<?xml version="1.0" standalone="no"?><!DOCTYPE svg PUBLIC "-//W3C//DTD SVG 1.1//EN" "http://www.w3.org/Graphics/SVG/1.1/DTD/svg11.dtd"><svg t="1691914204235" class="icon" viewBox="0 0 1024 1024" version="1.1" xmlns="http://www.w3.org/2000/svg" p-id="12520" xmlns:xlink="http://www.w3.org/1999/xlink" width="200" height="200"><path d="M541.266 625.667c-12.838 0-23.185 5.303-31.04 15.906-7.857 10.602-11.785 26.592-11.785 47.969 0 21.037 4.033 36.985 12.1 47.84 8.066 10.858 18.308 16.285 30.725 16.285 12.415 0 22.604-5.386 30.566-16.16 7.962-10.772 11.942-26.929 11.942-48.475 0-21.29-3.877-37.174-11.627-47.65-7.752-10.475-18.045-15.715-30.88-15.715z" fill="#B87333" p-id="12521"></path><path d="M875.55 781.861C988.589 491.471 598.015 67.064 557.275 23.904c0.096 0.158 0.198 0.348 0.286 0.507-2.515-2.675-3.93-4.148-3.93-4.148 5.946 27.453 9.71 53.024 11.717 77.106-0.11-0.83-0.18-1.63-0.293-2.462 2.855 31.777 2.443 60.766-0.624 87.548-0.474 4.053-0.957 8.114-1.55 12.072-0.094 0.64-0.22 1.275-0.316 1.907-19.623 125.191-100.24 199.796-185.917 277.582-22.407-21.604-35.65-52.756-35.64-98.529 0.079-20.836 2.87-44.68 8.791-72.023l-0.198 0.135c0.07-0.34 0.126-0.657 0.198-1.005 0 0-61.114 39.566-111.949 114.226-0.19 0.229-0.356 0.515-0.538 0.768a419.337 419.337 0 0 0-9.621 14.835c-0.15 0.23-0.285 0.475-0.428 0.705a412.805 412.805 0 0 0-8.467 14.447 361.098 361.098 0 0 0-1.906 3.42c-2.76 5.034-5.47 10.164-8.072 15.445-0.127 0.26-0.269 0.515-0.396 0.775a390.527 390.527 0 0 0-7.748 16.893c-0.6 1.386-1.17 2.796-1.754 4.189a365.119 365.119 0 0 0-5.638 14.313c-0.505 1.362-1.027 2.69-1.518 4.053-1.043 2.93-2.024 5.906-3.004 8.898-1.067 3.23-2.071 6.27-2.996 9.373-0.379 1.251-0.712 2.549-1.074 3.816a353.631 353.631 0 0 0-4.112 15.65 303.39 303.39 0 0 0-1.28 5.453c-1.472 6.587-2.832 13.237-3.946 20.062 0 0.047-0.016 0.095-0.016 0.141a316.21 316.21 0 0 0-1.653 11.21c-0.03 0.254-0.062 0.506-0.095 0.76a338.67 338.67 0 0 0-1.217 10.813c-0.048 0.412-0.08 0.824-0.119 1.244a375.418 375.418 0 0 0-0.846 10.584c-0.031 0.522-0.063 1.06-0.087 1.582a343.775 343.775 0 0 0-0.482 10.467l-0.048 1.868a397.42 397.42 0 0 0-0.124 10.417v2.074c0.037 3.468 0.115 6.951 0.25 10.458 0.024 0.737 0.04 1.48 0.08 2.216 0.15 3.507 0.347 7.038 0.593 10.584 0.07 0.76 0.11 1.505 0.166 2.264 0.269 3.577 0.608 7.18 0.98 10.799 0.08 0.751 0.15 1.488 0.237 2.233 0.395 3.688 0.878 7.4 1.392 11.13 0.102 0.703 0.198 1.4 0.293 2.105a419.252 419.252 0 0 0 1.85 11.573c0.118 0.618 0.204 1.236 0.323 1.853a376.72 376.72 0 0 0 2.388 12.239c0.095 0.459 0.182 0.918 0.269 1.378 0.946 4.406 1.96 8.798 3.044 13.172 0.047 0.222 0.095 0.435 0.15 0.65 4.665 18.809 10.752 38.18 18.516 58.13 3.92 10.061 8.791 19.038 14.453 27.13 66.252 116.339 253.649 192.607 253.649 192.607-0.647-0.274-54.378-22.228-114.297-60.365 59.919 38.138 113.65 60.09 114.297 60.35 3.66-32.617 17.812-54.876 38.85-70.63 0.064-0.112 0.19-0.191 0.309-0.277 4.246-3.16 8.768-6.057 13.543-8.725 0.253-0.143 0.505-0.278 0.759-0.42 4.783-2.635 9.81-5.042 15.07-7.243 0.157-0.063 0.3-0.135 0.458-0.199 37.411 15.533 63.92 41.023 68.972 87.509 0.032 0 40.937-16.656 91.275-46.248 57.294-33.555 127.183-84.245 162.562-146.357 5.653-8.09 10.523-17.068 14.454-27.13z m-490.812-3.072v-80.182h-72.456v80.182h-36.978V595.411h36.978v72.176h72.456v-72.176h36.978V778.79h-36.978z m156.778 3.127c-27.233 0-48.888-8.317-64.96-24.953-16.074-16.638-24.11-39.55-24.11-68.739 0-18.677 2.79-34.354 8.37-47.03 4.163-9.34 9.847-17.721 17.051-25.144 7.204-7.42 15.095-12.924 23.673-16.511 11.409-4.835 24.568-7.255 39.476-7.255 26.983 0 48.574 8.383 64.774 25.142 16.196 16.762 24.297 40.072 24.297 69.926 0 29.604-8.038 52.765-24.11 69.483-16.074 16.721-37.56 25.081-64.461 25.081z m104.312-155.484v-31.02h145.536v31.02h-54.217V778.79H700.17V626.432h-54.342z" fill="#B87333" p-id="12522"></path></svg>