<?xml version="1.0" standalone="no"?><!DOCTYPE svg PUBLIC "-//W3C//DTD SVG 1.1//EN" "http://www.w3.org/Graphics/SVG/1.1/DTD/svg11.dtd"><svg t="1677336083211" class="icon" viewBox="0 0 1024 1024" version="1.1" xmlns="http://www.w3.org/2000/svg" p-id="4637" xmlns:xlink="http://www.w3.org/1999/xlink" width="200" height="200"><path d="M704 512c0-8.288-3.232-15.776-8.4-21.456l0.08-0.064-320-352-0.08 0.08A31.76 31.76 0 0 0 352 128a32 32 0 0 0-32 32c0 8.288 3.232 15.76 8.4 21.456l-0.08 0.08L628.752 512 328.32 842.464l0.08 0.08A31.776 31.776 0 0 0 320 864a32 32 0 0 0 32 32 31.84 31.84 0 0 0 23.6-10.544l0.08 0.08 320-352-0.08-0.08c5.168-5.68 8.4-13.168 8.4-21.456z" fill="#231815" p-id="4638"></path></svg>