<svg xmlns="http://www.w3.org/2000/svg" xmlns:xlink="http://www.w3.org/1999/xlink" width="140" height="165" viewBox="0 0 140 165" fill="none"><defs><linearGradient id="linear_0" x1="50%" y1="101.71739130434783%" x2="51%" y2="15.96376811594203%" gradientUnits="objectBoundingBox"><stop offset="0" stop-color="#F768CA" stop-opacity="1" /><stop offset="0.45" stop-color="#C741D1" stop-opacity="1" /><stop offset="0.81" stop-color="#6B24C7" stop-opacity="1" /><stop offset="0.83" stop-color="#692AC7" stop-opacity="1" /><stop offset="0.87" stop-color="#623BC6" stop-opacity="1" /><stop offset="0.92" stop-color="#5758C6" stop-opacity="1" /><stop offset="0.97" stop-color="#487FC5" stop-opacity="1" /><stop offset="1" stop-color="#3D9AC4" stop-opacity="1" /></linearGradient><linearGradient id="linear_1" x1="50%" y1="6.178410274210343%" x2="51%" y2="99.7309961818813%" gradientUnits="objectBoundingBox"><stop offset="0" stop-color="#3D9AC4" stop-opacity="1" /><stop offset="0.03" stop-color="#487FC5" stop-opacity="1" /><stop offset="0.08" stop-color="#5758C6" stop-opacity="1" /><stop offset="0.13" stop-color="#623BC6" stop-opacity="1" /><stop offset="0.17" stop-color="#692AC7" stop-opacity="1" /><stop offset="0.19" stop-color="#6B24C7" stop-opacity="1" /><stop offset="0.55" stop-color="#C741D1" stop-opacity="1" /><stop offset="1" stop-color="#F768CA" stop-opacity="1" /></linearGradient><linearGradient id="linear_2" x1="50%" y1="100%" x2="51%" y2="0%" gradientUnits="objectBoundingBox"><stop offset="0" stop-color="#D36AF0" stop-opacity="1" /><stop offset="0.01" stop-color="#D068EE" stop-opacity="1" /><stop offset="0.2" stop-color="#9B46CB" stop-opacity="1" /><stop offset="0.37" stop-color="#742CB1" stop-opacity="1" /><stop offset="0.5" stop-color="#5C1DA2" stop-opacity="1" /><stop offset="0.59" stop-color="#53179C" stop-opacity="1" /><stop offset="0.59" stop-color="#53199D" stop-opacity="1" /><stop offset="0.71" stop-color="#4F3DA9" stop-opacity="1" /><stop offset="0.82" stop-color="#4C57B2" stop-opacity="1" /><stop offset="0.92" stop-color="#4B66B8" stop-opacity="1" /><stop offset="1" stop-color="#4A6CBA" stop-opacity="1" /></linearGradient><linearGradient id="linear_3" x1="50.00834042248897%" y1="143.38800413038044%" x2="51.00834042248897%" y2="-57.519661347812615%" gradientUnits="objectBoundingBox"><stop offset="0" stop-color="#705AB8" stop-opacity="1" /><stop offset="1" stop-color="#FFFFFF" stop-opacity="1" /></linearGradient><linearGradient id="linear_4" x1="49.99165957751372%" y1="143.38800413038044%" x2="50.99165957751372%" y2="-57.519661347812615%" gradientUnits="objectBoundingBox"><stop offset="0" stop-color="#705AB8" stop-opacity="1" /><stop offset="1" stop-color="#FFFFFF" stop-opacity="1" /></linearGradient><linearGradient id="linear_5" x1="23.66385711625803%" y1="-22.22557690873357%" x2="74.9762223429793%" y2="105.33749164836867%" gradientUnits="objectBoundingBox"><stop offset="0" stop-color="#705AB8" stop-opacity="1" /><stop offset="1" stop-color="#FFFFFF" stop-opacity="1" /></linearGradient><linearGradient id="linear_6" x1="36.23095514662346%" y1="-5.996229120613322%" x2="72.87285816952027%" y2="157.76297538398563%" gradientUnits="objectBoundingBox"><stop offset="0" stop-color="#705AB8" stop-opacity="1" /><stop offset="1" stop-color="#FFFFFF" stop-opacity="1" /></linearGradient><linearGradient id="linear_7" x1="49.99272162242618%" y1="113.59091695082518%" x2="50.99272162242618%" y2="-19.950708820737386%" gradientUnits="objectBoundingBox"><stop offset="0" stop-color="#705AB8" stop-opacity="1" /><stop offset="1" stop-color="#FFFFFF" stop-opacity="1" /></linearGradient><linearGradient id="linear_8" x1="50%" y1="99.9888230691852%" x2="51%" y2="-0.011176930814796034%" gradientUnits="objectBoundingBox"><stop offset="0" stop-color="#FFFFFF" stop-opacity="1" /><stop offset="0.44" stop-color="#881DED" stop-opacity="1" /><stop offset="1" stop-color="#262262" stop-opacity="1" /></linearGradient><linearGradient id="linear_9" x1="0%" y1="50.0092030185901%" x2="100%" y2="50.0092030185901%" gradientUnits="objectBoundingBox"><stop offset="0" stop-color="#728EE3" stop-opacity="1" /><stop offset="1" stop-color="#836888" stop-opacity="1" /></linearGradient><linearGradient id="linear_10" x1="0%" y1="50.02866972477064%" x2="100%" y2="50.02866972477064%" gradientUnits="objectBoundingBox"><stop offset="0" stop-color="#728EE3" stop-opacity="1" /><stop offset="1" stop-color="#836888" stop-opacity="1" /></linearGradient><linearGradient id="linear_11" x1="50.004436326741505%" y1="99.89679088296216%" x2="51.004436326741505%" y2="-0.08428201111297802%" gradientUnits="objectBoundingBox"><stop offset="0" stop-color="#FFFFFF" stop-opacity="1" /><stop offset="0.44" stop-color="#881DED" stop-opacity="1" /><stop offset="1" stop-color="#262262" stop-opacity="1" /></linearGradient><linearGradient id="linear_12" x1="51.02082342130364%" y1="99.9973047133629%" x2="52.02082342130364%" y2="-0.0002983784653808182%" gradientUnits="objectBoundingBox"><stop offset="0" stop-color="#FFFFFF" stop-opacity="1" /><stop offset="0.44" stop-color="#881DED" stop-opacity="1" /><stop offset="1" stop-color="#262262" stop-opacity="1" /></linearGradient><linearGradient id="linear_13" x1="50.135775606564025%" y1="100%" x2="51.135775606564025%" y2="0.0034527038232513804%" gradientUnits="objectBoundingBox"><stop offset="0" stop-color="#FFFFFF" stop-opacity="1" /><stop offset="0.44" stop-color="#881DED" stop-opacity="1" /><stop offset="1" stop-color="#262262" stop-opacity="1" /></linearGradient><linearGradient id="linear_14" x1="50.01521314719158%" y1="100%" x2="51.01521314719158%" y2="-0.007127405369396023%" gradientUnits="objectBoundingBox"><stop offset="0" stop-color="#FFFFFF" stop-opacity="1" /><stop offset="0.44" stop-color="#881DED" stop-opacity="1" /><stop offset="1" stop-color="#262262" stop-opacity="1" /></linearGradient><linearGradient id="linear_15" x1="-157.24313782532258%" y1="-364.0753269154422%" x2="-157.44893728809063%" y2="-463.8060314890033%" gradientUnits="objectBoundingBox"><stop offset="0" stop-color="#FFFFFF" stop-opacity="1" /><stop offset="0.44" stop-color="#881DED" stop-opacity="1" /><stop offset="1" stop-color="#262262" stop-opacity="1" /></linearGradient><linearGradient id="linear_16" x1="-332.3800616318683%" y1="-660.9198590459554%" x2="-332.52450567758734%" y2="-761.0658494499152%" gradientUnits="objectBoundingBox"><stop offset="0" stop-color="#FFFFFF" stop-opacity="1" /><stop offset="0.44" stop-color="#881DED" stop-opacity="1" /><stop offset="1" stop-color="#262262" stop-opacity="1" /></linearGradient><linearGradient id="linear_17" x1="51.746332477400536%" y1="95.12206073883554%" x2="51.79525562463579%" y2="-4.841390039726711%" gradientUnits="objectBoundingBox"><stop offset="0" stop-color="#FFFFFF" stop-opacity="1" /><stop offset="0.44" stop-color="#881DED" stop-opacity="1" /><stop offset="1" stop-color="#262262" stop-opacity="1" /></linearGradient><linearGradient id="linear_18" x1="50.012762698885425%" y1="-81.36477462437391%" x2="51.012762698885425%" y2="97.62103505843068%" gradientUnits="objectBoundingBox"><stop offset="0" stop-color="#F768CA" stop-opacity="1" /><stop offset="0.45" stop-color="#C741D1" stop-opacity="1" /><stop offset="0.81" stop-color="#6B24C7" stop-opacity="1" /><stop offset="0.83" stop-color="#692AC7" stop-opacity="1" /><stop offset="0.87" stop-color="#623BC6" stop-opacity="1" /><stop offset="0.92" stop-color="#5758C6" stop-opacity="1" /><stop offset="0.97" stop-color="#487FC5" stop-opacity="1" /><stop offset="1" stop-color="#3D9AC4" stop-opacity="1" /></linearGradient><linearGradient id="linear_19" x1="0%" y1="49.98694857739495%" x2="100%" y2="49.98694857739495%" gradientUnits="objectBoundingBox"><stop offset="0" stop-color="#F768CA" stop-opacity="1" /><stop offset="0.45" stop-color="#C741D1" stop-opacity="1" /><stop offset="0.81" stop-color="#6B24C7" stop-opacity="1" /><stop offset="0.83" stop-color="#692AC7" stop-opacity="1" /><stop offset="0.87" stop-color="#623BC6" stop-opacity="1" /><stop offset="0.92" stop-color="#5758C6" stop-opacity="1" /><stop offset="0.97" stop-color="#487FC5" stop-opacity="1" /><stop offset="1" stop-color="#3D9AC4" stop-opacity="1" /></linearGradient><linearGradient id="linear_20" x1="50.012762698885425%" y1="0%" x2="51.012762698885425%" y2="100.07202881152469%" gradientUnits="objectBoundingBox"><stop offset="0" stop-color="#FFFFFF" stop-opacity="1" /><stop offset="0.44" stop-color="#881DED" stop-opacity="1" /><stop offset="1" stop-color="#262262" stop-opacity="1" /></linearGradient><linearGradient id="linear_21" x1="23.697098976109324%" y1="102.2881739918441%" x2="17.344880546075014%" y2="1.5632079746261522%" gradientUnits="objectBoundingBox"><stop offset="0" stop-color="#705AB8" stop-opacity="1" /><stop offset="1" stop-color="#FFFFFF" stop-opacity="1" /></linearGradient><linearGradient id="linear_22" x1="50.012762698885425%" y1="-81.28130217028331%" x2="51.012762698885425%" y2="97.70450751252089%" gradientUnits="objectBoundingBox"><stop offset="0" stop-color="#F768CA" stop-opacity="1" /><stop offset="0.45" stop-color="#C741D1" stop-opacity="1" /><stop offset="0.81" stop-color="#6B24C7" stop-opacity="1" /><stop offset="0.83" stop-color="#692AC7" stop-opacity="1" /><stop offset="0.87" stop-color="#623BC6" stop-opacity="1" /><stop offset="0.92" stop-color="#5758C6" stop-opacity="1" /><stop offset="0.97" stop-color="#487FC5" stop-opacity="1" /><stop offset="1" stop-color="#3D9AC4" stop-opacity="1" /></linearGradient><linearGradient id="linear_23" x1="0%" y1="50.013051422605045%" x2="100%" y2="50.013051422605045%" gradientUnits="objectBoundingBox"><stop offset="0" stop-color="#F768CA" stop-opacity="1" /><stop offset="0.45" stop-color="#C741D1" stop-opacity="1" /><stop offset="0.81" stop-color="#6B24C7" stop-opacity="1" /><stop offset="0.83" stop-color="#692AC7" stop-opacity="1" /><stop offset="0.87" stop-color="#623BC6" stop-opacity="1" /><stop offset="0.92" stop-color="#5758C6" stop-opacity="1" /><stop offset="0.97" stop-color="#487FC5" stop-opacity="1" /><stop offset="1" stop-color="#3D9AC4" stop-opacity="1" /></linearGradient><linearGradient id="linear_24" x1="49.9957472144255%" y1="0.02400960384151479%" x2="50.9957472144255%" y2="100.09603841536621%" gradientUnits="objectBoundingBox"><stop offset="0" stop-color="#FFFFFF" stop-opacity="1" /><stop offset="0.44" stop-color="#881DED" stop-opacity="1" /><stop offset="1" stop-color="#262262" stop-opacity="1" /></linearGradient><linearGradient id="linear_25" x1="23.697098976109324%" y1="102.37879474399634%" x2="17.344880546075014%" y2="1.653828726778377%" gradientUnits="objectBoundingBox"><stop offset="0" stop-color="#705AB8" stop-opacity="1" /><stop offset="1" stop-color="#FFFFFF" stop-opacity="1" /></linearGradient><linearGradient id="linear_26" x1="50.004253509145094%" y1="-81.28130217028323%" x2="51.004253509145094%" y2="97.70450751252089%" gradientUnits="objectBoundingBox"><stop offset="0" stop-color="#F768CA" stop-opacity="1" /><stop offset="0.45" stop-color="#C741D1" stop-opacity="1" /><stop offset="0.81" stop-color="#6B24C7" stop-opacity="1" /><stop offset="0.83" stop-color="#692AC7" stop-opacity="1" /><stop offset="0.87" stop-color="#623BC6" stop-opacity="1" /><stop offset="0.92" stop-color="#5758C6" stop-opacity="1" /><stop offset="0.97" stop-color="#487FC5" stop-opacity="1" /><stop offset="1" stop-color="#3D9AC4" stop-opacity="1" /></linearGradient><linearGradient id="linear_27" x1="0%" y1="50.013051422605045%" x2="100%" y2="50.013051422605045%" gradientUnits="objectBoundingBox"><stop offset="0" stop-color="#F768CA" stop-opacity="1" /><stop offset="0.45" stop-color="#C741D1" stop-opacity="1" /><stop offset="0.81" stop-color="#6B24C7" stop-opacity="1" /><stop offset="0.83" stop-color="#692AC7" stop-opacity="1" /><stop offset="0.87" stop-color="#623BC6" stop-opacity="1" /><stop offset="0.92" stop-color="#5758C6" stop-opacity="1" /><stop offset="0.97" stop-color="#487FC5" stop-opacity="1" /><stop offset="1" stop-color="#3D9AC4" stop-opacity="1" /></linearGradient><linearGradient id="linear_28" x1="50.004253509145094%" y1="0%" x2="51.004253509145094%" y2="100.09606147934682%" gradientUnits="objectBoundingBox"><stop offset="0" stop-color="#FFFFFF" stop-opacity="1" /><stop offset="0.44" stop-color="#881DED" stop-opacity="1" /><stop offset="1" stop-color="#262262" stop-opacity="1" /></linearGradient><linearGradient id="linear_29" x1="23.697098976109324%" y1="102.37879474399641%" x2="17.344880546075014%" y2="1.6764839148164814%" gradientUnits="objectBoundingBox"><stop offset="0" stop-color="#705AB8" stop-opacity="1" /><stop offset="1" stop-color="#FFFFFF" stop-opacity="1" /></linearGradient></defs><g opacity="1" transform="translate(0.000012207031204525265 26.767852172851548)  rotate(0 58.785000000000025 69.00000000000001)"><path id="路径 296" fill-rule="evenodd" fill="url(#linear_0)" transform="translate(4.490000000000009 0)  rotate(0 54.5 69)" opacity="1" d="M54.5 138L0 106.54L0 31.46L54.5 0L109 31.46L109 106.54L54.5 138Z" /><path id="路径 297" fill-rule="evenodd" fill="url(#linear_1)" transform="translate(14.350000000000023 11.380000000000003)  rotate(0 44.639999999999986 57.61999999999999)" opacity="1" d="M89.28 89.47L44.64 115.24L0 89.47L0 25.77L44.64 0L89.28 25.77L89.28 89.47Z" /><path id="路径 298" fill-rule="evenodd" fill="url(#linear_2)" transform="translate(17.629999999999995 15.170000000000002)  rotate(0 41.360000000000014 53.83)" opacity="1" d="M82.72 83.78L41.36 107.66L0 83.78L0 23.88L41.36 0L82.72 23.88L82.72 83.78Z" /><path id="路径 299" fill-rule="evenodd" style="fill:#FFFFFF" transform="translate(5.796683746338886 1.4400000000000048)  rotate(0 26.414995322651293 17.010763674429544)" opacity="0.5" d="M9.25,33.84C13.33,32.96 51.69,10.44 52.62,8.43C52.87,7.87 52.92,0 52.62,0C51.27,0 0.4,29.24 0.05,30.22C-0.62,32.22 5.17,34.72 9.25,33.84Z " /><path id="路径 300" fill-rule="evenodd" style="fill:#FFFFFF" transform="translate(58.71610664991681 1.4399999999999977)  rotate(0 26.60360480187211 17.010763674429548)" opacity="0.5" d="M0.58,0C-0.3,0 -0.09,7.5 0.58,8.43C1.87,10.23 39.87,32.96 43.95,33.84C48.03,34.72 53.82,32.22 53.15,30.22C52.82,29.24 1.93,0 0.58,0Z " /><path id="路径 301" fill-rule="evenodd" fill="url(#linear_3)" transform="translate(5.14838331579972 72.80100897997917)  rotate(0 4.220912600312772 16.23880299556872)" opacity="0.5" d="M0.65,32.47C1.91,32.69 7.82,28.64 8.15,26.78C8.48,24.92 8.59,5.42 8.15,3.56C7.71,1.7 1.26,-2.18 0.65,1.59C0.28,3.83 -0.61,32.25 0.65,32.47Z " /><path id="路径 302" fill-rule="evenodd" fill="url(#linear_4)" transform="translate(104.17979148357472 72.80100897997917)  rotate(0 4.220912600312886 16.23880299556872)" opacity="0.5" d="M0.29,3.56C-0.15,5.42 -0.04,24.92 0.29,26.78C0.62,28.64 6.53,32.69 7.79,32.47C9.05,32.25 8.16,3.83 7.79,1.59C7.18,-2.18 0.73,1.7 0.29,3.56Z " /><path id="路径 303" fill-rule="evenodd" fill="url(#linear_5)" transform="translate(7.1488784185149825 102.47364775957865)  rotate(0 25.695560790742547 16.768176120210683)" opacity="0.5" d="M50.53,33.54C50.9,33.54 51.39,26.32 51.39,25.54C51.39,23.3 7.99,0.25 7.23,0.03C6.05,-0.3 -0.65,2.56 0.05,3.54C0.7,4.54 49.79,33.54 50.53,33.54Z " /><path id="路径 304" fill-rule="evenodd" fill="url(#linear_6)" transform="translate(59.39185595567881 102.46123587619363)  rotate(0 25.7764996378545 17.104382061903195)" opacity="0.5" d="M44.02,0.02C43.27,0.24 1.86,23.31 0.27,24.9C-0.06,25.21 -0.05,34.21 0.11,34.21C0.85,34.21 50.85,5.31 51.51,4.31C52.18,3.33 45.14,-0.29 44.02,0.02Z " /><path id="路径 305" fill-rule="evenodd" fill="url(#linear_7)" transform="translate(18.406702672613278 53.52560302065549)  rotate(0 40.479189783929314 33.772241231470744)" opacity="0.5" d="M40.58,67.54C43.55,67.49 79.52,46.83 80.2,45C80.88,43.17 81.97,9.78 78.88,1.93C75.79,-5.92 41,12.2 20.41,19.21C-0.18,26.22 -1.81,27.27 1.12,43.86C1.44,45.69 37.61,67.59 40.58,67.54Z " /><path id="路径 306" fill-rule="evenodd" style="fill:#FFFFFF" transform="translate(18.827149418575118 17.84911548899514)  rotate(0 40.6975567083677 29.989980329943208)" opacity="0.3" d="M40.42,0C38.31,0.16 12.37,12.33 1.7,21.54C-1.15,24 -0.11,60.64 2.52,59.97C5.15,59.3 7.1,44.48 36.03,36.16C64.51,27.97 76.9,35.06 80.03,36.33C80.86,36.67 82.28,22.01 80.63,21.61C79.9,21.44 42.53,-0.16 40.42,0Z " /><path id="路径 307" fill-rule="evenodd" fill="url(#linear_8)" transform="translate(14.350000000000023 11.39)  rotate(0 44.639999999999986 44.735)" opacity="0.5" d="M85,30.47C86.2,32.2 86,87.57 86,87.57L89.28,89.47L89.28,25.77L44.64,0L0,25.76L0,89.46L3.27,87.57C3.27,87.57 3,32.13 4.11,30.36C7.39,25.1 36.88,12.56 42.3,10.88C47.72,9.2 80.75,24.27 85,30.47Z " /><path id="路径 308" fill-rule="evenodd" style="fill:#FFFFFF" transform="translate(66.09357267560631 30.38098499337839)  rotate(0 16.115458911265534 10.070046925234735)" opacity="0.2" d="M30.65,19.66C32.18,18.69 33.21,11.56 30.8,10.35C28.39,9.14 9.3,-0.99 4.26,0.08C-0.78,1.15 -0.72,14.57 1.24,15.47C12.37,20.54 29.12,20.63 30.65,19.66Z " /><path id="路径 309" fill-rule="evenodd" fill="url(#linear_9)" transform="translate(4.490000000000009 0)  rotate(0 37.71500000000003 27.165)" opacity="1" d="M1.36,31.66C2.25,30.16 53.36,1.84 54.81,1.44C56.26,1.04 75.43,12.08 75.43,12.08L54.5,0L0,31.46L0,54.33C0,54.17 0.47,33.16 1.36,31.66Z " /><path id="路径 310" fill-rule="evenodd" style="fill:#E6ADFF" transform="translate(78.5 22.64)  rotate(0 12.616111111111081 28.92500000000001)" opacity="1" d="M24.27,15.15C24.6,16.68 25.13,57.85 25.13,57.85C25.13,57.85 25.36,16.27 25.13,14.51C24.9,12.75 0,0 0,0C0,0 23.94,13.62 24.27,15.15Z " /><path id="路径 311" fill-rule="evenodd" style="fill:#E6ADFF" transform="translate(13.837999999999965 11.38000000000001)  rotate(0 22.55600000000004 30.339999999999996)" opacity="1" d="M1.11,26.2C2.01,24.63 45.11,0 45.11,0C45.11,0 0.51,24.02 0.11,25.13C-0.29,26.24 0.51,60.68 0.51,60.68C0.51,60.68 0.21,27.77 1.11,26.2Z " /><path id="路径 312" fill-rule="evenodd" fill="url(#linear_10)" transform="translate(4.490000000000009 68.24000000000001)  rotate(0 54.5 34.88000000000001)" opacity="1" d="M109 21.2L109 38.3L54.5 69.76L0 38.3L0 0C0 0 0.01 35.03 1.31 37C2.61 38.97 52.52 68.62 55.01 68.43C57.5 68.24 106.32 39.86 107.43 37.99C108.54 36.12 109 21.2 109 21.2Z" /><path id="路径 313" fill-rule="evenodd" style="fill:#E6ADFF" transform="translate(13.811159998494531 84.54000000000002)  rotate(0 11.59942000075273 14.689999999999998)" opacity="1" d="M0.04,16.76C0.25,17.52 23.2,29.38 23.2,29.38C23.2,29.38 2.02,17.15 1.2,15.92C0.38,14.69 0.54,0 0.54,0C0.54,0 -0.17,16 0.04,16.76Z " /><path id="路径 314" fill-rule="evenodd" style="fill:#FFFFFF" transform="translate(27.50473305492551 114.21999390084542)  rotate(0 15.837238330394655 10.627737959883731)" opacity="0.5" d="M0.14,2.88C0.93,3.74 27.95,20.12 31.01,21.24C32.01,21.61 31.91,15.24 30.57,13.16C30,12.28 10.27,-0.01 5.29,0C3.68,0 -0.83,1.81 0.14,2.88Z " /><path id="路径 315" fill-rule="evenodd" style="fill:#FFFFFF" transform="translate(77.95983890360651 12.337134024655953)  rotate(0 4.76641259002713 3.2495683401654674)" opacity="1" d="M5.39,6.4C7.47,6.89 10.32,5.4 9.33,4.4C8.34,3.4 2.24,-0.5 0.24,0.05C-1.07,0.4 3.31,5.91 5.39,6.4Z " /><path id="路径 316" fill-rule="evenodd" style="fill:#FFFFFF" transform="translate(87.29790510976 17.81263333796626)  rotate(0 9.488767081608273 6.7889629696104805)" opacity="1" d="M3.82,10.81C5.39,12.35 19.29,15.07 18.97,12.56C18.65,10.05 3.36,-0.71 0.58,0.04C-1.42,0.57 2.25,9.27 3.82,10.81Z " /><path id="路径 317" fill-rule="evenodd" fill="url(#linear_11)" transform="translate(83.26368689119317 103.14637066505128)  rotate(0 12.865171626708388 9.71183816989766)" opacity="0.5" d="M0.53,19.42C1.2,19.45 25.02,5.11 25.67,4.48C26.32,3.85 21.85,-0.27 20.01,0.01C18.17,0.29 1.3,9.3 0.86,11.24C-0.31,16.36 -0.14,19.39 0.53,19.42Z " /><path id="路径 318" fill-rule="evenodd" fill="url(#linear_12)" transform="translate(14.512500000000045 37.350116788130656)  rotate(0 1.4185384544338717 19.57046908617277)" opacity="0.5" d="M0.19,1.47C0.03,3.39 -0.24,39.09 0.46,39.14C1.16,39.19 2.64,37.45 2.69,36.62C2.74,35.79 3,2.09 2.69,1.27C2.11,-0.46 0.35,-0.45 0.19,1.47Z " /><path id="路径 319" fill-rule="evenodd" fill="url(#linear_13)" transform="translate(100.52286598571379 37.92878184403184)  rotate(0 1.3135670071430923 17.640609077984074)" opacity="0.5" d="M0.22,35.28C0.66,35.28 2.63,33.69 2.63,32.87C2.63,32.05 2.14,0.19 1.92,0.03C1.7,-0.13 0.3,0.35 0.22,0.9C0.13,1.58 -0.22,35.28 0.22,35.28Z " /><path id="路径 320" fill-rule="evenodd" fill="url(#linear_14)" transform="translate(39.07130425631044 11.651039814331611)  rotate(0 9.985657478149221 7.294480092834192)" opacity="0.5" d="M19.92,0.01C19.78,-0.36 1.2,10.85 0.59,11.22C-0.02,11.59 -0.2,14.59 0.26,14.59C0.72,14.59 19.92,3.63 19.92,2.97C19.99,1.98 19.99,0.99 19.92,0.01Z " /><path id="路径 321" fill-rule="evenodd" style="fill:#4E217D" transform="translate(93.60669396107198 103.39000000000001)  rotate(0 2.620645925020142 2.75024211927672)" opacity="1" d="M0.02,3.54C0.39,4.72 2.87,5.99 3.54,5.31C4.21,4.63 5.82,0 5.02,0C3.79,0 -0.35,2.36 0.02,3.54Z " /><path id="路径 322" fill-rule="evenodd" style="fill:#4E217D" transform="translate(99.36846699938155 104.07192039076634)  rotate(0 1.7347302714211992 1.3737548726969067)" opacity="1" d="M0.36,2.6C1.23,3.27 3.81,1.5 3.43,0.98C3.05,0.46 1.38,-0.34 0.83,0.16C0.41,0.55 -0.51,1.93 0.36,2.6Z " /><path id="路径 323" fill-rule="evenodd" fill="url(#linear_15)" transform="translate(94.0458000155736 103.39576382600958)  rotate(0 2.4295495883769718 2.0159789390807674)" opacity="0.5" d="M3.87,3.5C4.42,2.34 5.29,-0.12 4.6,0C3.91,0.12 0.69,1.61 0.15,2.36C-0.85,3.74 3.32,4.66 3.87,3.5Z " /><path id="路径 324" fill-rule="evenodd" style="fill:#DAE1EF" transform="translate(93.56016296966959 106.60000000000002)  rotate(0 1.839918515165209 1.2440808091064923)" opacity="1" d="M1.68 2.31C2.24 2.59 2.9 2.53 3.39 2.18C3.52 2.11 3.62 2.02 3.68 1.91C3.59 2.01 3.49 2.1 3.39 2.18C3.01 2.37 2.37 2.34 1.62 1.91C0.88 1.48 0.32 0.81 0.03 0C0.03 0 -0.36 1.4 1.68 2.31Z" /><path id="路径 325" fill-rule="evenodd" fill="url(#linear_16)" transform="translate(100.21697652695332 104.21388552677746)  rotate(0 1.315388246217708 1.230004311736593)" opacity="0.5" d="M0.78,2.46C1.32,2.37 2.89,1.33 2.59,0.84C2.29,0.35 0.66,-0.17 0.45,0.06C-0.49,1.06 0.24,2.55 0.78,2.46Z " /><path id="路径 326" fill-rule="evenodd" style="fill:#DAE1EF" transform="translate(99.13242113974673 104.23000000000002)  rotate(0 0.6937894301266851 1.4144302007729266)" opacity="1" d="M0.06,2.46C0.27,3.22 1.39,2.57 1.39,2.57C1.39,2.57 0.9,2.56 0.55,1.88C0.2,1.2 1.07,0 1.07,0C1.07,0 -0.29,1.16 0.06,2.46Z " /><path id="路径 327" fill-rule="evenodd" style="fill:#4E217D" transform="translate(46.11414486127535 14.068642704298291)  rotate(0 3.726492676202895 2.4155475086520504)" opacity="1" d="M0.67,2.76C-0.62,4.22 0.1,5.09 1.67,4.76C3.24,4.43 8.51,0.5 7.27,0.18C4.33,-0.6 1.96,1.3 0.67,2.76Z " /><path id="路径 328" fill-rule="evenodd" fill="url(#linear_17)" transform="translate(47.8737768045072 14.059926706458924)  rotate(0 2.830165193921232 1.9238511143755588)" opacity="0.5" d="M0.22,1.52C-0.57,2.22 0.98,4.21 2.05,3.79C3.12,3.37 6.41,0.49 5.51,0.19C3.51,-0.49 1.01,0.82 0.22,1.52Z " /><path id="路径 329" fill-rule="evenodd" style="fill:#E6ADFF" transform="translate(44.54970203163941 16.08)  rotate(0 2.1901489841803254 1.7867660037142272)" opacity="1" d="M0.03,3.25C0.41,4.33 4.38,2.36 4.38,2.36C4.38,2.36 2.31,3.03 1.85,2.12C1.39,1.21 2.97,0 2.97,0C2.97,0 -0.35,2.17 0.03,3.25Z " /><path id="路径 330" fill-rule="evenodd" style="fill:#E6ADFF" transform="translate(15.928366074335258 101.25071337588761)  rotate(0 2.4765992498155924 1.888356804020745)" opacity="1" d="M4.48,3.77C5.58,3.94 4.48,1.14 3.96,0.66C2.82,0.13 1.57,-0.08 0.32,0.03C-1.25,0.42 3.38,3.6 4.48,3.77Z " /><path id="路径 331" fill-rule="evenodd" fill="url(#linear_18)" transform="translate(0 71.58000000000001)  rotate(0 58.76500000000004 23.960000000000008)" opacity="1" d="M117.53 9.61L114.2 15.81L58.95 47.92L3.67 15.81L0 9.61C0.45 6.3 1.36 3.07 2.69 0L58.95 32.81L115.53 0C116.75 3.06 117.43 6.31 117.53 9.61Z" /><path id="路径 332" fill-rule="evenodd" fill="url(#linear_19)" transform="translate(0 81.15)  rotate(0 58.775000000000034 19.155)" opacity="1" d="M114.22 6.2L58.95 38.31L3.67 6.2L0 0L58.95 34.53L117.55 0L114.22 6.2Z" /><path id="路径 333" fill-rule="evenodd" fill="url(#linear_20)" transform="translate(0 81.15)  rotate(0 58.76500000000004 20.82499999999999)" opacity="0.5" d="M17.75,17.57C17.75,17.57 57.57,41.65 59.01,41.65C60.87,41.65 100.37,17.04 100.37,17.04C100.37,17.04 103.45,14.45 103.75,14.27L113.51,9.17L113.51,6.6L114.2,6.24L117.53,0.04L58.93,34.57L0,0L3.67,6.2L4.51,6.72L4.51,8.57C4.51,8.57 7.66,10.17 13.86,13.57C14.07,13.68 17.75,17.57 17.75,17.57Z " /><path id="路径 334" fill-rule="evenodd" fill="url(#linear_21)" transform="translate(58.950000000000045 71.58000000000001)  rotate(0 29.30000000000001 22.07)" opacity="0.5" d="M0,44.14L58.6,9.61C58.6,9.61 58.37,3.93 56.6,0L0,32.81L0,44.14Z " /><path id="路径 335" fill-rule="evenodd" style="fill:#FFFFFF" transform="translate(5.148343101017531 74.03)  rotate(0 21.626971599811554 16.854999999999997)" opacity="0.5" d="M3.51,11.71C8.7,15.19 40.01,33.65 42.06,33.71C43.48,33.71 43.41,25.63 42.98,25C42.17,23.78 2.05,0 0.43,0C-0.64,0 0.24,9.52 3.51,11.71Z " /><path id="路径 336" fill-rule="evenodd" style="fill:#FFFFFF" transform="translate(75.92258448705138 74.05598919853199)  rotate(0 18.311363255364313 14.925011589352437)" opacity="0.5" d="M1,29.84C2.16,29.57 19.86,20.13 28.21,14C36.56,7.87 37.73,-0.21 35.85,0C35.85,-0.03 1.82,19.06 0.43,20.5C-0.25,21.2 -0.16,30.11 1,29.84Z " /><path id="路径 337" fill-rule="evenodd" style="fill:#E6ADFF" transform="translate(30.280000000000086 98.89000000000001)  rotate(0 25.95999999999998 8.704999999999998)" opacity="1" d="M28.73,17.41C29.34,17.41 51.92,3.1 51.92,3.1C51.92,3.1 30.4,16.15 28.67,16.15C26.94,16.15 0,0 0,0C0,0 28.12,17.41 28.73,17.41Z " /><path id="路径 338" fill-rule="evenodd" fill="url(#linear_22)" transform="translate(0 53.159999999999876)  rotate(0 58.76500000000004 23.960000000000065)" opacity="1" d="M115.53 0C116.75 3.06 117.43 6.31 117.53 9.61L114.2 15.82L58.95 47.92L3.67 15.82L0 9.61C0.45 6.3 1.36 3.07 2.69 0L58.95 32.81L115.53 0Z" /><path id="路径 339" fill-rule="evenodd" fill="url(#linear_23)" transform="translate(0 62.77)  rotate(0 58.775000000000034 19.155)" opacity="1" d="M114.22 6.21L58.95 38.31L3.67 6.21L0 0L58.95 34.53L117.55 0L114.22 6.21Z" /><path id="路径 340" fill-rule="evenodd" fill="url(#linear_24)" transform="translate(0 62.76000000000001)  rotate(0 58.785000000000025 20.82499999999999)" opacity="0.5" d="M117.57,0L58.97,34.53L0,0.01L3.67,6.22L4.51,6.73L4.51,8.58C4.51,8.58 7.66,10.19 13.86,13.58C14.07,13.7 17.75,17.58 17.75,17.58C17.75,17.58 57.57,41.65 59.01,41.65C60.87,41.65 100.37,17.04 100.37,17.04C100.37,17.04 103.45,14.46 103.75,14.28L113.51,9.17L113.51,6.63L114.24,6.21L117.57,0Z " /><path id="路径 341" fill-rule="evenodd" fill="url(#linear_25)" transform="translate(58.950000000000045 53.16000000000002)  rotate(0 29.30000000000001 22.07)" opacity="0.5" d="M0,44.14L58.6,9.61C58.6,9.61 58.37,3.93 56.6,0L0,32.81L0,44.14Z " /><path id="路径 342" fill-rule="evenodd" style="fill:#FFFFFF" transform="translate(5.148343101017531 55.65)  rotate(0 21.626971599811554 16.860000000000007)" opacity="0.5" d="M3.51,11.72C8.7,15.2 40.01,33.65 42.06,33.72C43.48,33.72 43.41,25.64 42.98,25.01C42.17,23.74 2.05,0 0.43,0C-0.64,0 0.24,9.53 3.51,11.72Z " /><path id="路径 343" fill-rule="evenodd" style="fill:#FFFFFF" transform="translate(75.92258448705138 55.67635417396175)  rotate(0 18.311363255364313 14.929615691891726)" opacity="0.5" d="M1,29.85C2.16,29.59 19.86,20.13 28.21,14C36.56,7.87 37.73,-0.2 35.85,0C35.85,-0.03 1.82,19.06 0.43,20.5C-0.25,21.21 -0.16,30.11 1,29.85Z " /><path id="路径 344" fill-rule="evenodd" style="fill:#E6ADFF" transform="translate(30.280000000000086 80.51000000000002)  rotate(0 25.95999999999998 8.704999999999998)" opacity="1" d="M28.73,17.41C29.34,17.41 51.92,3.1 51.92,3.1C51.92,3.1 30.4,16.16 28.67,16.16C26.94,16.16 0,0 0,0C0,0 28.12,17.41 28.73,17.41Z " /><path id="路径 345" fill-rule="evenodd" fill="url(#linear_26)" transform="translate(0 34.779999999999845)  rotate(0 58.775000000000034 23.96000000000008)" opacity="1" d="M0 9.61C0.45 6.3 1.36 3.07 2.69 0L58.95 32.81L115.55 0C116.77 3.06 117.45 6.31 117.55 9.61L114.2 15.82L58.95 47.92L3.67 15.82L0 9.61Z" /><path id="路径 346" fill-rule="evenodd" fill="url(#linear_27)" transform="translate(0 44.39000000000001)  rotate(0 58.775000000000034 19.155)" opacity="1" d="M114.22 6.21L58.95 38.31L3.67 6.21L0 0L58.95 34.53L117.55 0L114.22 6.21Z" /><path id="路径 347" fill-rule="evenodd" fill="url(#linear_28)" transform="translate(0 44.39000000000001)  rotate(0 58.775000000000034 20.819999999999993)" opacity="0.5" d="M114.24,6.21L117.55,0L58.95,34.53L0,0L3.67,6.21L4.51,6.72L4.51,8.57C4.51,8.57 7.66,10.18 13.86,13.57C14.07,13.69 17.75,17.57 17.75,17.57C17.75,17.57 57.57,41.64 59.01,41.64C60.87,41.64 100.37,17.03 100.37,17.03C100.37,17.03 103.45,14.45 103.75,14.27L113.51,9.16L113.51,6.63L114.24,6.21Z " /><path id="路径 348" fill-rule="evenodd" fill="url(#linear_29)" transform="translate(58.950000000000045 34.78)  rotate(0 29.30000000000001 22.07)" opacity="0.5" d="M0,44.14L58.6,9.61C58.6,9.61 58.37,3.93 56.6,0L0,32.81L0,44.14Z " /><path id="路径 349" fill-rule="evenodd" style="fill:#FFFFFF" transform="translate(5.148343101017531 37.27)  rotate(0 21.626971599811554 16.86)" opacity="0.5" d="M3.51,11.72C8.7,15.2 40.01,33.65 42.06,33.72C43.48,33.72 43.41,25.64 42.98,25.01C42.17,23.78 2.05,0 0.43,0C-0.64,0 0.24,9.53 3.51,11.72Z " /><path id="路径 350" fill-rule="evenodd" style="fill:#FFFFFF" transform="translate(75.92258448705138 37.29635417396175)  rotate(0 18.311363255364313 14.92961570678515)" opacity="0.5" d="M1,29.85C2.16,29.59 19.86,20.13 28.21,14C36.56,7.87 37.73,-0.2 35.85,0C35.85,-0.03 1.82,19.09 0.43,20.51C-0.25,21.21 -0.16,30.11 1,29.85Z " /><path id="路径 351" fill-rule="evenodd" style="fill:#E6ADFF" transform="translate(30.280000000000086 62.12999999999999)  rotate(0 25.95999999999998 8.71)" opacity="1" d="M28.73,17.42C29.34,17.42 51.92,3.1 51.92,3.1C51.92,3.1 30.42,16.16 28.67,16.16C26.92,16.16 0,0 0,0C0,0 28.12,17.42 28.73,17.42Z " /></g></svg>