<svg xmlns="http://www.w3.org/2000/svg" xmlns:xlink="http://www.w3.org/1999/xlink" width="176" height="176" viewBox="0 0 176 176" fill="none"><defs><filter id="filter_2" x="-60" y="-60" width="174" height="174" filterUnits="userSpaceOnUse" color-interpolation-filters="sRGB"><feFlood flood-opacity="0" result="BackgroundImageFix"/>
          <feColorMatrix in="SourceAlpha" type="matrix" values="0 0 0 0 0 0 0 0 0 0 0 0 0 0 0 0 0 0 127 0"/>
          <feOffset dx="0" dy="20"/>
          <feGaussianBlur stdDeviation="30"/>
          <feColorMatrix type="matrix" values="0 0 0 0 0.21568627450980393 0 0 0 0 0.24313725490196078 0 0 0 0 0.49019607843137253 0 0 0 0.05 0"/>
          <feBlend mode="normal" in2="BackgroundImageFix" result="effect1_Shadow"/>
          <feBlend mode="normal" in="SourceGraphic" in2="effect1_Shadow" result="shape"/></filter></defs><g opacity="1" transform="translate(61 41)  rotate(0 27 27)"><g id="Ellipse 3" filter="url(#filter_2)"><path id="Ellipse 3" fill-rule="evenodd" style="fill:#FFFFFF" transform="translate(0 0)  rotate(0 27 27)" opacity="0.8" d="M0 27C0 12.09 12.09 0 27 0C41.91 0 54 12.09 54 27C54 41.91 41.91 54 27 54C12.09 54 0 41.91 0 27Z" /><path  id="Ellipse 3" style="stroke:#979AB2; stroke-width:2; stroke-opacity:50; stroke-dasharray:0 0" transform="translate(0 0)  rotate(0 27 27)" d="M54,27Z M27,0C12.09,0 0,12.09 0,27C0,41.91 12.09,54 27,54C41.91,54 54,41.91 54,27C54,12.09 41.91,0 27,0Z " /></g><g opacity="1" transform="translate(12 12)  rotate(0 15 15)"><path id="矩形" fill-rule="evenodd" style="fill:#000000" transform="translate(0 0)  rotate(0 15 15)" opacity="0" d="M30 30L0 30L0 0L30 0L30 30Z" /><path id="路径" fill-rule="evenodd" style="fill:#6AA9FF" transform="translate(4.999999957037232 4)  rotate(0 9.999989834877061 11.499994660689746)" opacity="1" d="M10 0C15.28 0 17.58 4.32 17.45 9.66C18.29 11.69 18.83 12.93 19.31 14.41C20.32 17.55 19.99 18.86 19.74 18.89C19.21 18.95 17.66 16.52 17.66 16.52C17.66 17.92 16.91 19.76 15.29 21.09C16.07 21.32 17.83 21.95 17.41 22.64C17.08 23.19 11.58 22.99 10 22.82C8.41 22.99 2.92 23.19 2.58 22.64C2.16 21.95 3.93 21.32 4.71 21.09C3.09 19.76 2.34 17.93 2.34 16.52C2.34 16.52 0.79 18.95 0.26 18.89C0.01 18.86 -0.32 17.56 0.69 14.41C1.17 12.93 1.71 11.69 2.55 9.66C2.41 4.4 4.66 0 10 0Z" /></g></g></svg>