<?xml version="1.0" standalone="no"?><!DOCTYPE svg PUBLIC "-//W3C//DTD SVG 1.1//EN" "http://www.w3.org/Graphics/SVG/1.1/DTD/svg11.dtd"><svg t="1677336882997" class="icon" viewBox="0 0 1024 1024" version="1.1" xmlns="http://www.w3.org/2000/svg" p-id="9694" xmlns:xlink="http://www.w3.org/1999/xlink" width="200" height="200"><path d="M948.743504 509.701654c0-241.384629-195.670471-437.053054-437.053054-437.053054-241.383606 0-437.053054 195.668425-437.053054 437.053054 0 241.394862 195.669448 437.063287 437.053054 437.063287 99.092879 0 189.825346-33.712823 263.140119-89.271186 3.010567-3.416819 4.988618-7.776104 4.988618-12.675694 0-10.698666-8.676613-19.374256-19.374256-19.374256-5.551436 0-10.496052 2.202155-14.024411 5.933129l-0.24764 0c-65.605184 48.276517-146.358369 77.1798-234.05571 77.1798-218.572064 0-395.788232-177.23868-395.788232-395.798465 0-218.593554 177.216167-395.788232 395.788232-395.788232 218.59253 0 395.786185 177.194678 395.786185 395.788232 0 66.772776-15.664771 129.61401-44.88221 184.79068l0 0.325411c-0.537236 1.842974-1.124614 3.640923-1.124614 5.618974 0 10.697643 8.676613 19.374256 19.374256 19.374256 8.337899 0 15.305591-5.350868 18.025539-12.721743l0 0.135076C930.426323 650.149407 948.743504 582.071915 948.743504 509.701654zM397.18044 392.246569c0-24.408923-19.778462-44.186362-44.187385-44.186362-24.407899 0-44.186362 19.778462-44.186362 44.186362 0 24.407899 19.778462 44.163849 44.186362 44.163849C377.401977 436.410418 397.18044 416.654468 397.18044 392.246569zM671.602509 348.126722c-24.387433 0-44.163849 19.755949-44.163849 44.163849 0 24.407899 19.776416 44.186362 44.163849 44.186362 24.406876 0 44.186362-19.778462 44.186362-44.186362C715.787848 367.882672 696.008362 348.126722 671.602509 348.126722zM341.890182 671.343101c2.629897 0 5.079692-0.651846 7.394411-1.482771l0.202615 0c49.647747-22.452361 104.59929-34.836413 162.630984-34.836413 58.931181 0 114.669646 12.135388 164.924213 35.218106l0.448208 0c1.7519 0.471744 3.483334 1.101077 5.393847 1.101077 12.002358 0 21.687952-9.686616 21.687952-21.665439 0-7.936763-5.702885-15.446807-12.06478-19.230993 0.168846 0.075725 0.297782 0.132006-0.048095-0.030699-54.796-24.74559-116.737748-39.714514-180.769087-39.714514-64.436568 0-125.253702 14.608719-180.317809 39.645952-6.742565 3.709485-11.328 10.923794-11.328 19.171642C320.044642 661.588947 329.844845 671.343101 341.890182 671.343101z" fill="#8a8a8a" p-id="9695"></path></svg>