<?xml version="1.0" standalone="no"?>
<!DOCTYPE svg PUBLIC "-//W3C//DTD SVG 1.1//EN" "http://www.w3.org/Graphics/SVG/1.1/DTD/svg11.dtd"><svg t="1677336764420"
	class="icon" viewBox="0 0 1024 1024" version="1.1" xmlns="http://www.w3.org/2000/svg" p-id="7314"
	xmlns:xlink="http://www.w3.org/1999/xlink" width="200" height="200">
	<path
		d="M126.722555 199.281437q0-13.285429 21.461078-16.862275t54.163673-7.153693 71.536926-12.263473 73.580838-33.213573q24.526946-16.351297 45.477046-35.257485t40.367265-36.279441 38.323353-31.680639 40.367265-22.483034l0 380.167665-381.189621 0q-2.043912-41.9002-3.065868-87.377246t-1.021956-97.596806zM471.121756 1001.516966q-56.207585-42.922156-101.173653-80.734531t-80.223553-75.62475-61.317365-78.179641-44.966068-87.377246-30.658683-102.706587-17.884232-126.211577l377.101796 0 0 568.207585q-11.241517-3.065868-21.461078-7.153693t-19.417166-10.219561zM576.383234 450.682635l375.057884 0q-5.10978 70.51497-15.840319 125.189621t-27.592814 100.151697-41.9002 84.311377-59.273453 77.157685-79.201597 79.712575-101.173653 91.46507q-22.483034 12.263473-50.075848 15.329341l0-573.317365zM757.269461 145.117764q28.61477 20.439122 63.361277 26.570858t65.40519 8.175649 51.608782 3.576846 20.9501 11.752495q0 106.283433-3.065868 189.061876l-379.145709 0 0-384.255489q25.548902 6.131737 48.031936 22.994012t43.433134 37.812375 42.411178 43.433134 47.00998 40.878244z"
		p-id="7315" fill="#999999"></path>
</svg>