<?xml version="1.0" standalone="no"?><!DOCTYPE svg PUBLIC "-//W3C//DTD SVG 1.1//EN" "http://www.w3.org/Graphics/SVG/1.1/DTD/svg11.dtd"><svg t="1691922989086" class="icon" viewBox="0 0 1024 1024" version="1.1" xmlns="http://www.w3.org/2000/svg" p-id="2412" xmlns:xlink="http://www.w3.org/1999/xlink" width="200" height="200"><path d="M517.36064 15.81056c-277.02272 0-501.54496 224.53248-501.54496 501.55008C15.81056 794.32192 240.3328 1018.88 517.36064 1018.88 794.32704 1018.88 1018.88 794.32192 1018.88 517.36064 1018.88 240.34304 794.07616 15.81056 517.36064 15.81056zM675.55328 555.56096l-199.66464 199.71072c-21.15584 21.18144-55.28576 21.18144-76.43136 0-21.16096-21.19168-21.16096-55.22944 0-76.41088l161.49504-161.50016L399.45728 355.85536c-21.16096-21.17632-21.16096-55.27552 0-76.43648 21.1456-21.1456 55.27552-21.1456 76.43136 0l199.66464 199.7056C696.74496 500.2752 696.74496 534.62528 675.55328 555.56096z" fill="#2a333f" p-id="2413"></path></svg>