<svg xmlns="http://www.w3.org/2000/svg" xmlns:xlink="http://www.w3.org/1999/xlink" width="30" height="27" viewBox="0 0 30 27" fill="none"><g opacity="1" transform="translate(0 0.0007501091968151741)  rotate(0 15 12.99999497103611)"><path id="路径 155" fill-rule="evenodd" style="fill:#0962EA" transform="translate(0 2.6439413580878153)  rotate(0 15 11.678024291992202)" opacity="1" d="M23.85 0Z M0 6L0 17.35C0 20.67 2.76 23.36 6.15 23.36L23.85 23.36C27.24 23.36 30 20.67 30 17.35L30 6C30 2.69 27.24 0 23.85 0L6.15 0C2.76 0 0 2.69 0 6Z M6.15804 2.34866Z M23.848 21.0087C25.918 21.0087 27.588 19.3687 27.588 17.3587L27.588 5.99866C27.588 3.98866 25.918 2.34866 23.848 2.34866L6.15804 2.34866C4.08804 2.34866 2.40804 3.98866 2.40804 5.99866L2.40804 17.3587C2.40804 19.3687 4.08804 21.0087 6.15804 21.0087L23.848 21.0087Z " /><path id="路径 156" fill-rule="evenodd" style="fill:#FAF15D" transform="translate(10.253143310546875 8.953366712091778)  rotate(0 5.515982606404236 5.515950840851843)" opacity="1" d="M0 2.11L0 8.92C0 9.25 0.08 9.57 0.22 9.87C0.74 10.91 2.01 11.33 3.05 10.81L9.87 7.4C10.27 7.2 10.6 6.87 10.81 6.46C11.33 5.42 10.91 4.15 9.87 3.63L3.05 0.22C2.76 0.08 2.44 0 2.11 0C0.94 0 0 0.94 0 2.11Z M8.24961 5.51558L2.40961 2.59558L2.40961 8.43558L8.24961 5.51558Z " /><path id="路径 157" fill-rule="evenodd" style="fill:#0962EA" transform="translate(4.618340953243461 0)  rotate(0 10.41510642208948 2.510071645850047)" opacity="1" d="M18.9018 0.24Z M15.4118 2.86C14.9018 3.27 14.8018 4.01 15.1918 4.54C15.5918 5.07 16.3518 5.18 16.8818 4.78L20.3518 2.17L20.3618 2.16C20.8818 1.75 20.9818 1.01 20.5918 0.48C20.1918 -0.05 19.4318 -0.16 18.9018 0.24L15.4318 2.85L15.4118 2.86Z M1.93 0.24Z M0.46 2.16L0.48 2.17L3.95 4.78C4.48 5.18 5.24 5.07 5.64 4.54C6.03 4.01 5.93 3.27 5.41 2.86L5.4 2.85L1.93 0.24C1.4 -0.16 0.64 -0.05 0.24 0.48C-0.15 1.01 -0.05 1.75 0.46 2.16Z " /></g></svg>