<svg xmlns="http://www.w3.org/2000/svg" xmlns:xlink="http://www.w3.org/1999/xlink" width="82" height="82" viewBox="0 0 82 82" fill="none"><defs><linearGradient id="linear_0" x1="50%" y1="-3.0616171314629196e-15%" x2="51%" y2="99.99999999999999%" gradientUnits="objectBoundingBox"><stop offset="0" stop-color="#B7D4FF" stop-opacity="0" /><stop offset="1" stop-color="#7AB0FE" stop-opacity="0.26" /></linearGradient><filter id="filter_5" x="0" y="0" width="79" height="138" filterUnits="userSpaceOnUse" color-interpolation-filters="sRGB"><feFlood flood-opacity="0" result="BackgroundImageFix"/>
          <feBlend mode="normal" in="SourceGraphic" in2="BackgroundImageFix" result="shape"/>
          <feGaussianBlur stdDeviation="3.5" result="effect1_foregroundBlur" /></filter><rect id="path_0" x="0" y="0" width="39" height="39" /></defs><g opacity="1" transform="translate(0 0)  rotate(0 41 41)"><path id="Ellipse 189" fill-rule="evenodd" fill="url(#linear_0)" transform="translate(0 0)  rotate(0 41 41)" opacity="1" d="M41,0C18.36,0 0,18.36 0,41C0,63.64 18.36,82 41,82C63.64,82 82,63.64 82,41C82,18.36 63.64,0 41,0Z " /><g id="Ellipse 190" filter="url(#filter_5)"><path id="Ellipse 190" fill-rule="evenodd" style="fill:#5594F0" transform="translate(26 66)  rotate(0 13.5 3)" opacity="0.6" d="M13.5,0C6.04,0 0,1.34 0,3C0,4.66 6.04,6 13.5,6C20.96,6 27,4.66 27,3C27,1.34 20.96,0 13.5,0Z " /></g><g opacity="1" transform="translate(21 22)  rotate(0 19.5 19.5)"><mask id="bg-mask-0" fill="white"><use xlink:href="#path_0"></use></mask><g mask="url(#bg-mask-0)" ><path id="Vector" fill-rule="evenodd" style="fill:#5399FF" transform="translate(0.04 0)  rotate(0 19.46 19.5)" opacity="1" d="M35.77 10.47C36.6 10.47 37.4 10.8 38 11.39C38.59 11.98 38.92 12.78 38.92 13.62L38.92 35.85C38.92 36.68 38.59 37.48 38 38.08C37.4 38.67 36.6 39 35.77 39L5.5 39C4.04 39 2.64 38.42 1.61 37.39C0.58 36.36 0 34.96 0 33.5L0 5.5C0 4.04 0.58 2.64 1.61 1.61C2.64 0.58 4.04 0 5.5 0L27.03 0C28.48 0 29.88 0.58 30.91 1.61C31.95 2.64 32.52 4.04 32.52 5.5L32.52 10.47L35.77 10.47ZM15.29 6.94L15.29 12.48C15.29 12.6 15.26 12.72 15.22 12.84C15.17 12.95 15.1 13.05 15.01 13.14C14.93 13.23 14.82 13.3 14.71 13.34C14.6 13.39 14.47 13.42 14.35 13.42L5.46 13.42C5.34 13.42 5.22 13.39 5.1 13.34C4.99 13.3 4.88 13.23 4.8 13.14C4.71 13.05 4.64 12.95 4.59 12.84C4.55 12.72 4.52 12.6 4.52 12.48L4.52 6.94C4.52 6.69 4.62 6.46 4.8 6.28C4.97 6.1 5.21 6.01 5.46 6.01L14.35 6.01C14.47 6.01 14.6 6.03 14.71 6.08C14.82 6.12 14.93 6.19 15.01 6.28C15.1 6.37 15.17 6.47 15.22 6.58C15.26 6.7 15.29 6.82 15.29 6.94ZM20.31 10.95C20.04 11.22 19.89 11.59 19.89 11.97C19.89 12.36 20.04 12.72 20.31 12.99C20.58 13.26 20.95 13.41 21.33 13.42L28.66 13.42C29.05 13.41 29.41 13.26 29.68 12.99C29.95 12.72 30.11 12.36 30.11 11.97C30.11 11.59 29.95 11.22 29.68 10.95C29.41 10.68 29.05 10.53 28.66 10.53L21.33 10.53C20.95 10.53 20.58 10.68 20.31 10.95ZM37.36 35.85C37.36 36.27 37.19 36.67 36.89 36.97C36.59 37.27 36.19 37.44 35.77 37.44L32.52 37.44L32.52 12.03L35.77 12.03C36.19 12.03 36.59 12.19 36.89 12.49C37.19 12.79 37.36 13.2 37.36 13.62L37.36 35.85ZM29.68 19.88C29.95 20.16 30.11 20.52 30.11 20.9C30.11 21.29 29.95 21.65 29.68 21.92C29.41 22.19 29.05 22.35 28.66 22.35L5.97 22.35C5.58 22.35 5.22 22.19 4.95 21.92C4.68 21.65 4.52 21.29 4.52 20.9C4.52 20.52 4.68 20.16 4.95 19.88C5.22 19.61 5.58 19.46 5.97 19.46L28.66 19.46C29.05 19.46 29.41 19.61 29.68 19.88ZM30.11 29.84C30.11 29.45 29.95 29.09 29.68 28.82C29.41 28.55 29.05 28.39 28.66 28.39L5.97 28.39C5.58 28.39 5.22 28.55 4.95 28.82C4.68 29.09 4.52 29.45 4.52 29.84C4.52 30.22 4.68 30.58 4.95 30.85C5.22 31.12 5.58 31.28 5.97 31.28L28.66 31.28C29.05 31.28 29.41 31.12 29.68 30.85C29.95 30.58 30.11 30.22 30.11 29.84Z" /></g></g></g></svg>