<svg xmlns="http://www.w3.org/2000/svg" xmlns:xlink="http://www.w3.org/1999/xlink" width="82" height="82" viewBox="0 0 82 82" fill="none"><defs><linearGradient id="linear_0" x1="50%" y1="-3.0616171314629196e-15%" x2="51%" y2="99.99999999999999%" gradientUnits="objectBoundingBox"><stop offset="0" stop-color="#CBF8F0" stop-opacity="0" /><stop offset="1" stop-color="#71EBD5" stop-opacity="0.33" /></linearGradient><filter id="filter_5" x="0" y="0" width="79" height="142" filterUnits="userSpaceOnUse" color-interpolation-filters="sRGB"><feFlood flood-opacity="0" result="BackgroundImageFix"/>
          <feBlend mode="normal" in="SourceGraphic" in2="BackgroundImageFix" result="shape"/>
          <feGaussianBlur stdDeviation="3.5" result="effect1_foregroundBlur" /></filter><rect id="path_0" x="0" y="0" width="60" height="60" /></defs><g opacity="1" transform="translate(0 0)  rotate(0 41 41)"><path id="Ellipse 189" fill-rule="evenodd" fill="url(#linear_0)" transform="translate(0 0)  rotate(0 41 41)" opacity="1" d="M41,0C18.36,0 0,18.36 0,41C0,63.64 18.36,82 41,82C63.64,82 82,63.64 82,41C82,18.36 63.64,0 41,0Z " /><g id="Ellipse 190" filter="url(#filter_5)"><path id="Ellipse 190" fill-rule="evenodd" style="fill:#7CCFC1" transform="translate(26 68)  rotate(0 13.5 3)" opacity="0.6" d="M13.5,0C6.04,0 0,1.34 0,3C0,4.66 6.04,6 13.5,6C20.96,6 27,4.66 27,3C27,1.34 20.96,0 13.5,0Z " /></g><g opacity="1" transform="translate(11 11)  rotate(0 30 30)"><mask id="bg-mask-0" fill="white"><use xlink:href="#path_0"></use></mask><g mask="url(#bg-mask-0)" ><path id="Vector" fill-rule="evenodd" style="fill:#5BDDC6" transform="translate(7.5 4.61)  rotate(0 22.5 25.515)" opacity="1" d="M22.13 35.51L22.69 34.39C25.88 28.2 38.81 3.64 39.56 1.95C39.94 0.82 39.38 0.07 38.44 0.07C38.06 -0.11 37.69 0.07 37.31 0.45C36 1.57 14.44 30.82 14.44 30.82C13.13 32.51 13.69 35.32 15.75 36.63L16.31 37.01C18.37 38.32 21 37.76 22.13 35.51ZM31.13 4.39C28.31 3.26 25.31 2.51 22.31 2.51C9.94 2.32 0 12.45 0 25.01C0 30.07 1.5 34.76 4.31 38.51C6 34.95 10.88 34.95 11.62 34.95C10.69 31.95 12.56 29.14 12.56 29.14L31.13 4.39ZM19.31 7.57C19.31 8.32 20.06 9.07 20.81 9.07C21.56 9.07 22.31 8.32 22.31 7.57C22.31 6.82 21.56 6.07 20.81 6.07C20.06 6.07 19.31 6.82 19.31 7.57ZM31.87 43.2C32.25 43.76 32.81 44.88 31.5 45.82C31.5 45.82 31.5 46.01 31.31 46.01C28.5 47.32 25.69 47.88 22.5 47.88C20.81 47.88 19.31 47.7 17.81 47.32C18.56 46.38 20.06 43.76 18.56 39.82C18.56 39.82 20.44 40.95 23.44 37.95L25.31 34.95C25.31 34.95 33.75 18.64 38.62 9.07C42.56 13.2 45 18.64 45 24.82C45 27.26 44.63 29.51 44.06 31.57C44.06 31.76 44.06 31.76 43.69 32.7C43.69 32.7 43.5 32.88 43.5 33.07C43.31 33.26 43.31 33.26 43.31 33.45C42.8399 35.1793 41.7074 35.0623 40.9122 34.9801C40.7602 34.9644 40.6204 34.95 40.5 34.95L39.19 34.95C34.69 34.95 31.13 37.57 31.13 40.76C31.13 41.7 31.31 42.45 31.87 43.2ZM13.69 14.51C12.38 14.51 11.25 13.39 11.25 12.07C11.25 10.76 12.38 9.64 13.69 9.64C15 9.64 16.12 10.76 16.12 12.07C16.12 13.39 15 14.51 13.69 14.51ZM11.62 19.95C11.62 21.64 10.31 22.95 8.63 22.95C6.94 22.95 5.63 21.64 5.63 19.95C5.63 18.26 6.94 16.95 8.63 16.95C10.31 16.95 11.62 18.26 11.62 19.95ZM10.69 37.38C7.69 37.38 5.81 40.01 5.63 42.26C5.63 42.82 5.81 44.88 6 45.45C6.38 48.26 3.19 49.95 3.19 49.95C3.19 49.95 7.88 52.38 11.81 49.95C15.75 47.51 19.69 42.07 14.06 38.51C12.75 37.76 11.62 37.38 10.69 37.38Z" /></g></g></g></svg>