<svg xmlns="http://www.w3.org/2000/svg" xmlns:xlink="http://www.w3.org/1999/xlink" width="168" height="139" viewBox="0 0 168 139" fill="none"><defs><linearGradient id="linear_0" x1="49.98498047461693%" y1="99.65962982410225%" x2="50.98498047461693%" y2="0.731324835267018%" gradientUnits="objectBoundingBox"><stop offset="0" stop-color="#F768CA" stop-opacity="1" /><stop offset="0.45" stop-color="#C741D1" stop-opacity="1" /><stop offset="0.81" stop-color="#6B24C7" stop-opacity="1" /><stop offset="0.83" stop-color="#692AC7" stop-opacity="1" /><stop offset="0.87" stop-color="#623BC6" stop-opacity="1" /><stop offset="0.92" stop-color="#5758C6" stop-opacity="1" /><stop offset="0.97" stop-color="#487FC5" stop-opacity="1" /><stop offset="1" stop-color="#3D9AC4" stop-opacity="1" /></linearGradient><linearGradient id="linear_1" x1="50.43433731740022%" y1="93.91129589143813%" x2="49.907319977762526%" y2="-6.679805371620818%" gradientUnits="objectBoundingBox"><stop offset="0" stop-color="#705AB8" stop-opacity="1" /><stop offset="1" stop-color="#FFFFFF" stop-opacity="1" /></linearGradient><linearGradient id="linear_2" x1="50.04468275245745%" y1="100%" x2="51.04468275245745%" y2="0%" gradientUnits="objectBoundingBox"><stop offset="0" stop-color="#FFFFFF" stop-opacity="1" /><stop offset="0.44" stop-color="#881DED" stop-opacity="1" /><stop offset="1" stop-color="#262262" stop-opacity="1" /></linearGradient><linearGradient id="linear_3" x1="49.9548872180455%" y1="99.65962982410225%" x2="50.9548872180455%" y2="0.731324835267018%" gradientUnits="objectBoundingBox"><stop offset="0" stop-color="#F768CA" stop-opacity="1" /><stop offset="0.45" stop-color="#C741D1" stop-opacity="1" /><stop offset="0.81" stop-color="#6B24C7" stop-opacity="1" /><stop offset="0.83" stop-color="#692AC7" stop-opacity="1" /><stop offset="0.87" stop-color="#623BC6" stop-opacity="1" /><stop offset="0.92" stop-color="#5758C6" stop-opacity="1" /><stop offset="0.97" stop-color="#487FC5" stop-opacity="1" /><stop offset="1" stop-color="#3D9AC4" stop-opacity="1" /></linearGradient><linearGradient id="linear_4" x1="49.56566268260015%" y1="93.91129589143813%" x2="50.09268002223784%" y2="-6.679805371620818%" gradientUnits="objectBoundingBox"><stop offset="0" stop-color="#705AB8" stop-opacity="1" /><stop offset="1" stop-color="#FFFFFF" stop-opacity="1" /></linearGradient><linearGradient id="linear_5" x1="49.77578475336279%" y1="100%" x2="50.77578475336279%" y2="0%" gradientUnits="objectBoundingBox"><stop offset="0" stop-color="#FFFFFF" stop-opacity="1" /><stop offset="0.44" stop-color="#881DED" stop-opacity="1" /><stop offset="1" stop-color="#262262" stop-opacity="1" /></linearGradient><linearGradient id="linear_6" x1="50%" y1="101.71726686471996%" x2="51%" y2="15.969857256720543%" gradientUnits="objectBoundingBox"><stop offset="0" stop-color="#F768CA" stop-opacity="1" /><stop offset="0.45" stop-color="#C741D1" stop-opacity="1" /><stop offset="0.81" stop-color="#6B24C7" stop-opacity="1" /><stop offset="0.83" stop-color="#692AC7" stop-opacity="1" /><stop offset="0.87" stop-color="#623BC6" stop-opacity="1" /><stop offset="0.92" stop-color="#5758C6" stop-opacity="1" /><stop offset="0.97" stop-color="#487FC5" stop-opacity="1" /><stop offset="1" stop-color="#3D9AC4" stop-opacity="1" /></linearGradient><linearGradient id="linear_7" x1="49.994400268787096%" y1="6.186550976138825%" x2="50.994400268787096%" y2="99.73101952277658%" gradientUnits="objectBoundingBox"><stop offset="0" stop-color="#3D9AC4" stop-opacity="1" /><stop offset="0.03" stop-color="#487FC5" stop-opacity="1" /><stop offset="0.08" stop-color="#5758C6" stop-opacity="1" /><stop offset="0.13" stop-color="#623BC6" stop-opacity="1" /><stop offset="0.17" stop-color="#692AC7" stop-opacity="1" /><stop offset="0.19" stop-color="#6B24C7" stop-opacity="1" /><stop offset="0.55" stop-color="#C741D1" stop-opacity="1" /><stop offset="1" stop-color="#F768CA" stop-opacity="1" /></linearGradient><linearGradient id="linear_8" x1="49.993954781767634%" y1="100%" x2="50.993954781767634%" y2="0%" gradientUnits="objectBoundingBox"><stop offset="0" stop-color="#D36AF0" stop-opacity="1" /><stop offset="0.01" stop-color="#D068EE" stop-opacity="1" /><stop offset="0.2" stop-color="#9B46CB" stop-opacity="1" /><stop offset="0.37" stop-color="#742CB1" stop-opacity="1" /><stop offset="0.5" stop-color="#5C1DA2" stop-opacity="1" /><stop offset="0.59" stop-color="#53179C" stop-opacity="1" /><stop offset="0.59" stop-color="#53199D" stop-opacity="1" /><stop offset="0.71" stop-color="#4F3DA9" stop-opacity="1" /><stop offset="0.82" stop-color="#4C57B2" stop-opacity="1" /><stop offset="0.92" stop-color="#4B66B8" stop-opacity="1" /><stop offset="1" stop-color="#4A6CBA" stop-opacity="1" /></linearGradient><linearGradient id="linear_9" x1="50.008340422489894%" y1="143.49877154161516%" x2="51.008340422489894%" y2="-57.452663921384094%" gradientUnits="objectBoundingBox"><stop offset="0" stop-color="#705AB8" stop-opacity="1" /><stop offset="1" stop-color="#FFFFFF" stop-opacity="1" /></linearGradient><linearGradient id="linear_10" x1="49.968039170912114%" y1="143.49877154161516%" x2="50.968039170912114%" y2="-57.452663921384094%" gradientUnits="objectBoundingBox"><stop offset="0" stop-color="#705AB8" stop-opacity="1" /><stop offset="1" stop-color="#FFFFFF" stop-opacity="1" /></linearGradient><linearGradient id="linear_11" x1="23.711177131430897%" y1="-22.280369050776383%" x2="75.0373476816184%" y2="105.30875748561917%" gradientUnits="objectBoundingBox"><stop offset="0" stop-color="#705AB8" stop-opacity="1" /><stop offset="1" stop-color="#FFFFFF" stop-opacity="1" /></linearGradient><linearGradient id="linear_12" x1="36.219333781662215%" y1="-5.9942873002298915%" x2="72.85683627817136%" y2="157.77785150489768%" gradientUnits="objectBoundingBox"><stop offset="0" stop-color="#705AB8" stop-opacity="1" /><stop offset="1" stop-color="#FFFFFF" stop-opacity="1" /></linearGradient><linearGradient id="linear_13" x1="49.99411001502936%" y1="113.59198516204536%" x2="50.99411001502936%" y2="-19.96013663820638%" gradientUnits="objectBoundingBox"><stop offset="0" stop-color="#705AB8" stop-opacity="1" /><stop offset="1" stop-color="#FFFFFF" stop-opacity="1" /></linearGradient><linearGradient id="linear_14" x1="49.994400268787096%" y1="100%" x2="50.994400268787096%" y2="-3.1766747994192474e-14%" gradientUnits="objectBoundingBox"><stop offset="0" stop-color="#FFFFFF" stop-opacity="1" /><stop offset="0.44" stop-color="#881DED" stop-opacity="1" /><stop offset="1" stop-color="#262262" stop-opacity="1" /></linearGradient><linearGradient id="linear_15" x1="0%" y1="50.05520794994482%" x2="100%" y2="50.05520794994482%" gradientUnits="objectBoundingBox"><stop offset="0" stop-color="#728EE3" stop-opacity="1" /><stop offset="1" stop-color="#836888" stop-opacity="1" /></linearGradient><linearGradient id="linear_16" x1="1.3037481390093579e-14%" y1="50.035832019492545%" x2="100%" y2="50.035832019492545%" gradientUnits="objectBoundingBox"><stop offset="0" stop-color="#728EE3" stop-opacity="1" /><stop offset="1" stop-color="#836888" stop-opacity="1" /></linearGradient><linearGradient id="linear_17" x1="50.01140014416485%" y1="99.99975788972881%" x2="51.01140014416485%" y2="-0.027830936610671035%" gradientUnits="objectBoundingBox"><stop offset="0" stop-color="#FFFFFF" stop-opacity="1" /><stop offset="0.44" stop-color="#881DED" stop-opacity="1" /><stop offset="1" stop-color="#262262" stop-opacity="1" /></linearGradient><linearGradient id="linear_18" x1="50.110408318471464%" y1="99.9961785279646%" x2="51.110408318471464%" y2="-0.003217437520087241%" gradientUnits="objectBoundingBox"><stop offset="0" stop-color="#FFFFFF" stop-opacity="1" /><stop offset="0.44" stop-color="#881DED" stop-opacity="1" /><stop offset="1" stop-color="#262262" stop-opacity="1" /></linearGradient><linearGradient id="linear_19" x1="49.99486896228436%" y1="100%" x2="50.99486896228436%" y2="0.007982411541329748%" gradientUnits="objectBoundingBox"><stop offset="0" stop-color="#FFFFFF" stop-opacity="1" /><stop offset="0.44" stop-color="#881DED" stop-opacity="1" /><stop offset="1" stop-color="#262262" stop-opacity="1" /></linearGradient><linearGradient id="linear_20" x1="50.03619485839713%" y1="100%" x2="51.03619485839713%" y2="-0.010317694262987995%" gradientUnits="objectBoundingBox"><stop offset="0" stop-color="#FFFFFF" stop-opacity="1" /><stop offset="0.44" stop-color="#881DED" stop-opacity="1" /><stop offset="1" stop-color="#262262" stop-opacity="1" /></linearGradient><linearGradient id="linear_21" x1="-121.37101890745737%" y1="-338.61256101832515%" x2="-121.5772293512007%" y2="-438.42869730808223%" gradientUnits="objectBoundingBox"><stop offset="0" stop-color="#FFFFFF" stop-opacity="1" /><stop offset="0.44" stop-color="#881DED" stop-opacity="1" /><stop offset="1" stop-color="#262262" stop-opacity="1" /></linearGradient><linearGradient id="linear_22" x1="-263.14613708930324%" y1="-614.6724393634173%" x2="-263.4436548596503%" y2="-713.4416292787275%" gradientUnits="objectBoundingBox"><stop offset="0" stop-color="#FFFFFF" stop-opacity="1" /><stop offset="0.44" stop-color="#881DED" stop-opacity="1" /><stop offset="1" stop-color="#262262" stop-opacity="1" /></linearGradient><linearGradient id="linear_23" x1="51.73874313176518%" y1="95.6417201553698%" x2="51.63031782263183%" y2="-4.222366414869317%" gradientUnits="objectBoundingBox"><stop offset="0" stop-color="#FFFFFF" stop-opacity="1" /><stop offset="0.44" stop-color="#881DED" stop-opacity="1" /><stop offset="1" stop-color="#262262" stop-opacity="1" /></linearGradient><linearGradient id="linear_24" x1="50.004253509145045%" y1="-81.28130217028388%" x2="51.004253509145045%" y2="97.70450751252082%" gradientUnits="objectBoundingBox"><stop offset="0" stop-color="#F768CA" stop-opacity="1" /><stop offset="0.45" stop-color="#C741D1" stop-opacity="1" /><stop offset="0.81" stop-color="#6B24C7" stop-opacity="1" /><stop offset="0.83" stop-color="#692AC7" stop-opacity="1" /><stop offset="0.87" stop-color="#623BC6" stop-opacity="1" /><stop offset="0.92" stop-color="#5758C6" stop-opacity="1" /><stop offset="0.97" stop-color="#487FC5" stop-opacity="1" /><stop offset="1" stop-color="#3D9AC4" stop-opacity="1" /></linearGradient><linearGradient id="linear_25" x1="0%" y1="50.01305142260512%" x2="99.99149370534197%" y2="50.01305142260512%" gradientUnits="objectBoundingBox"><stop offset="0" stop-color="#F768CA" stop-opacity="1" /><stop offset="0.45" stop-color="#C741D1" stop-opacity="1" /><stop offset="0.81" stop-color="#6B24C7" stop-opacity="1" /><stop offset="0.83" stop-color="#692AC7" stop-opacity="1" /><stop offset="0.87" stop-color="#623BC6" stop-opacity="1" /><stop offset="0.92" stop-color="#5758C6" stop-opacity="1" /><stop offset="0.97" stop-color="#487FC5" stop-opacity="1" /><stop offset="1" stop-color="#3D9AC4" stop-opacity="1" /></linearGradient><linearGradient id="linear_26" x1="49.99574721442545%" y1="0.09596928982730436%" x2="50.99574721442545%" y2="100.09596928982731%" gradientUnits="objectBoundingBox"><stop offset="0" stop-color="#FFFFFF" stop-opacity="1" /><stop offset="0.44" stop-color="#881DED" stop-opacity="1" /><stop offset="1" stop-color="#262262" stop-opacity="1" /></linearGradient><linearGradient id="linear_27" x1="27.1032423208192%" y1="102.4694154961487%" x2="20.734129692832642%" y2="1.744449478930761%" gradientUnits="objectBoundingBox"><stop offset="0" stop-color="#705AB8" stop-opacity="1" /><stop offset="1" stop-color="#FFFFFF" stop-opacity="1" /></linearGradient><linearGradient id="linear_28" x1="50.012784454103794%" y1="100%" x2="51.012784454103794%" y2="0%" gradientUnits="objectBoundingBox"><stop offset="0" stop-color="#FFFFFF" stop-opacity="1" /><stop offset="0.44" stop-color="#881DED" stop-opacity="1" /><stop offset="1" stop-color="#262262" stop-opacity="1" /></linearGradient><linearGradient id="linear_29" x1="50.00000000000004%" y1="101.88405797101458%" x2="51.00000000000004%" y2="-16.98550724637685%" gradientUnits="objectBoundingBox"><stop offset="0" stop-color="#F768CA" stop-opacity="1" /><stop offset="0.45" stop-color="#C741D1" stop-opacity="1" /><stop offset="0.81" stop-color="#6B24C7" stop-opacity="1" /><stop offset="0.83" stop-color="#692AC7" stop-opacity="1" /><stop offset="0.87" stop-color="#623BC6" stop-opacity="1" /><stop offset="0.92" stop-color="#5758C6" stop-opacity="1" /><stop offset="0.97" stop-color="#487FC5" stop-opacity="1" /><stop offset="1" stop-color="#3D9AC4" stop-opacity="1" /></linearGradient><linearGradient id="linear_30" x1="0%" y1="50%" x2="100%" y2="50%" gradientUnits="objectBoundingBox"><stop offset="0" stop-color="#705AB8" stop-opacity="1" /><stop offset="1" stop-color="#FFFFFF" stop-opacity="1" /></linearGradient><linearGradient id="linear_31" x1="0%" y1="50%" x2="100%" y2="50%" gradientUnits="objectBoundingBox"><stop offset="0" stop-color="#705AB8" stop-opacity="1" /><stop offset="1" stop-color="#FFFFFF" stop-opacity="1" /></linearGradient><linearGradient id="linear_32" x1="0%" y1="50%" x2="100%" y2="50%" gradientUnits="objectBoundingBox"><stop offset="0" stop-color="#705AB8" stop-opacity="1" /><stop offset="1" stop-color="#FFFFFF" stop-opacity="1" /></linearGradient><linearGradient id="linear_33" x1="0%" y1="50%" x2="100%" y2="50%" gradientUnits="objectBoundingBox"><stop offset="0" stop-color="#705AB8" stop-opacity="1" /><stop offset="1" stop-color="#FFFFFF" stop-opacity="1" /></linearGradient><linearGradient id="linear_34" x1="29.59001782531196%" y1="14.999999999999936%" x2="74.331550802139%" y2="142.83333333333354%" gradientUnits="objectBoundingBox"><stop offset="0" stop-color="#BFD7FF" stop-opacity="1" /><stop offset="1" stop-color="#000000" stop-opacity="100" /></linearGradient><linearGradient id="linear_35" x1="0%" y1="50.07518796992474%" x2="100%" y2="50.07518796992474%" gradientUnits="objectBoundingBox"><stop offset="0" stop-color="#BFD7FF" stop-opacity="1" /><stop offset="1" stop-color="#000000" stop-opacity="100" /></linearGradient><linearGradient id="linear_36" x1="41.718135878719856%" y1="-140.0000000000005%" x2="55.81134194272879%" y2="206.01503759398548%" gradientUnits="objectBoundingBox"><stop offset="0" stop-color="#BFD7FF" stop-opacity="1" /><stop offset="1" stop-color="#000000" stop-opacity="100" /></linearGradient><linearGradient id="linear_37" x1="43.1510557661072%" y1="-110.67669172932388%" x2="56.74066053059025%" y2="235.3383458646621%" gradientUnits="objectBoundingBox"><stop offset="0" stop-color="#BFD7FF" stop-opacity="1" /><stop offset="1" stop-color="#000000" stop-opacity="100" /></linearGradient><linearGradient id="linear_38" x1="50%" y1="100%" x2="51%" y2="0%" gradientUnits="objectBoundingBox"><stop offset="0" stop-color="#FFFFFF" stop-opacity="1" /><stop offset="0.44" stop-color="#881DED" stop-opacity="1" /><stop offset="1" stop-color="#262262" stop-opacity="1" /></linearGradient><linearGradient id="linear_39" x1="49.97292907417444%" y1="100%" x2="50.97292907417444%" y2="0%" gradientUnits="objectBoundingBox"><stop offset="0" stop-color="#FFFFFF" stop-opacity="1" /><stop offset="0.44" stop-color="#881DED" stop-opacity="1" /><stop offset="1" stop-color="#262262" stop-opacity="1" /></linearGradient><linearGradient id="linear_40" x1="50.02807411566533%" y1="100%" x2="51.02807411566533%" y2="0%" gradientUnits="objectBoundingBox"><stop offset="0" stop-color="#FFFFFF" stop-opacity="1" /><stop offset="0.44" stop-color="#881DED" stop-opacity="1" /><stop offset="1" stop-color="#262262" stop-opacity="1" /></linearGradient><linearGradient id="linear_41" x1="50%" y1="100%" x2="51%" y2="0%" gradientUnits="objectBoundingBox"><stop offset="0" stop-color="#FFFFFF" stop-opacity="1" /><stop offset="0.44" stop-color="#881DED" stop-opacity="1" /><stop offset="1" stop-color="#262262" stop-opacity="1" /></linearGradient><linearGradient id="linear_42" x1="50.012784454103794%" y1="100%" x2="51.012784454103794%" y2="0%" gradientUnits="objectBoundingBox"><stop offset="0" stop-color="#FFFFFF" stop-opacity="1" /><stop offset="0.44" stop-color="#881DED" stop-opacity="1" /><stop offset="1" stop-color="#262262" stop-opacity="1" /></linearGradient><linearGradient id="linear_43" x1="50.00000000000004%" y1="101.88351202549994%" x2="51.00000000000004%" y2="-16.951608229498767%" gradientUnits="objectBoundingBox"><stop offset="0" stop-color="#F768CA" stop-opacity="1" /><stop offset="0.45" stop-color="#C741D1" stop-opacity="1" /><stop offset="0.81" stop-color="#6B24C7" stop-opacity="1" /><stop offset="0.83" stop-color="#692AC7" stop-opacity="1" /><stop offset="0.87" stop-color="#623BC6" stop-opacity="1" /><stop offset="0.92" stop-color="#5758C6" stop-opacity="1" /><stop offset="0.97" stop-color="#487FC5" stop-opacity="1" /><stop offset="1" stop-color="#3D9AC4" stop-opacity="1" /></linearGradient><linearGradient id="linear_44" x1="0%" y1="50%" x2="100%" y2="50%" gradientUnits="objectBoundingBox"><stop offset="0" stop-color="#705AB8" stop-opacity="1" /><stop offset="1" stop-color="#FFFFFF" stop-opacity="1" /></linearGradient><linearGradient id="linear_45" x1="0%" y1="50%" x2="100%" y2="50%" gradientUnits="objectBoundingBox"><stop offset="0" stop-color="#705AB8" stop-opacity="1" /><stop offset="1" stop-color="#FFFFFF" stop-opacity="1" /></linearGradient><linearGradient id="linear_46" x1="0%" y1="50%" x2="100%" y2="50%" gradientUnits="objectBoundingBox"><stop offset="0" stop-color="#705AB8" stop-opacity="1" /><stop offset="1" stop-color="#FFFFFF" stop-opacity="1" /></linearGradient><linearGradient id="linear_47" x1="0%" y1="50%" x2="100%" y2="50%" gradientUnits="objectBoundingBox"><stop offset="0" stop-color="#705AB8" stop-opacity="1" /><stop offset="1" stop-color="#FFFFFF" stop-opacity="1" /></linearGradient><linearGradient id="linear_48" x1="29.59001782531196%" y1="15.047196002220883%" x2="74.331550802139%" y2="142.80955024986142%" gradientUnits="objectBoundingBox"><stop offset="0" stop-color="#BFD7FF" stop-opacity="1" /><stop offset="1" stop-color="#000000" stop-opacity="100" /></linearGradient><linearGradient id="linear_49" x1="0%" y1="50.07518796992474%" x2="100%" y2="50.07518796992474%" gradientUnits="objectBoundingBox"><stop offset="0" stop-color="#BFD7FF" stop-opacity="1" /><stop offset="1" stop-color="#000000" stop-opacity="100" /></linearGradient><linearGradient id="linear_50" x1="41.718135878719856%" y1="-140.0000000000005%" x2="55.81134194272879%" y2="206.01503759398548%" gradientUnits="objectBoundingBox"><stop offset="0" stop-color="#BFD7FF" stop-opacity="1" /><stop offset="1" stop-color="#000000" stop-opacity="100" /></linearGradient><linearGradient id="linear_51" x1="43.1510557661072%" y1="-110.67669172932388%" x2="56.74066053059025%" y2="235.3383458646621%" gradientUnits="objectBoundingBox"><stop offset="0" stop-color="#BFD7FF" stop-opacity="1" /><stop offset="1" stop-color="#000000" stop-opacity="100" /></linearGradient><linearGradient id="linear_52" x1="50%" y1="100%" x2="51%" y2="0%" gradientUnits="objectBoundingBox"><stop offset="0" stop-color="#FFFFFF" stop-opacity="1" /><stop offset="0.44" stop-color="#881DED" stop-opacity="1" /><stop offset="1" stop-color="#262262" stop-opacity="1" /></linearGradient><linearGradient id="linear_53" x1="49.97292907417444%" y1="100%" x2="50.97292907417444%" y2="-0.07380073800731289%" gradientUnits="objectBoundingBox"><stop offset="0" stop-color="#FFFFFF" stop-opacity="1" /><stop offset="0.44" stop-color="#881DED" stop-opacity="1" /><stop offset="1" stop-color="#262262" stop-opacity="1" /></linearGradient><linearGradient id="linear_54" x1="50.02807411566533%" y1="100%" x2="51.02807411566533%" y2="-0.06798096532964594%" gradientUnits="objectBoundingBox"><stop offset="0" stop-color="#FFFFFF" stop-opacity="1" /><stop offset="0.44" stop-color="#881DED" stop-opacity="1" /><stop offset="1" stop-color="#262262" stop-opacity="1" /></linearGradient><linearGradient id="linear_55" x1="50%" y1="100%" x2="51%" y2="0%" gradientUnits="objectBoundingBox"><stop offset="0" stop-color="#FFFFFF" stop-opacity="1" /><stop offset="0.44" stop-color="#881DED" stop-opacity="1" /><stop offset="1" stop-color="#262262" stop-opacity="1" /></linearGradient></defs><g opacity="1" transform="translate(-0.000002441406195430318 1.5258788721439487e-7)  rotate(0 83.52999999999997 69.02000000000002)"><path id="路径 480" fill-rule="evenodd" fill="url(#linear_0)" transform="translate(0 69.53999999999999)  rotate(0 16.644999999999982 15.041195744412391)" opacity="1" d="M33.29,0L0,0C3.19,8.34 7.3,16.31 12.26,23.74C12.26,23.74 31.76,30.52 31.89,30.06L33.29,0Z " /><path id="路径 481" fill-rule="evenodd" style="fill:#4E217D" transform="translate(6.349999999999966 69.53999999999999)  rotate(0 13.015 9.120000000000005)" opacity="1" d="M9.2,17.79L26.03,18.24L26.03,17.09C26.03,17.09 10.62,17.22 9.75,16.57C8.88,15.92 0.99,0 0.99,0L0,0C0,0 7.78,16.05 9.2,17.79Z " /><path id="路径 482" fill-rule="evenodd" style="fill:#E6ADFF" transform="translate(6.349999999999966 69.53999999999999)  rotate(0 4.599999999999994 8.900000000000006)" opacity="1" d="M3.78,8.9C5.4,11.98 7.21,14.95 9.2,17.8L0,0C0,0 1.73,4.8 3.78,8.9Z " /><path id="路径 483" fill-rule="evenodd" style="fill:#FFFFFF" transform="translate(8.719467015067096 69.82635607160043)  rotate(0 11.787280645751487 6.676821964199803)" opacity="0.5" d="M7.49,13.35C8.56,13.35 20.9,13.13 22.04,11.35C23.18,9.57 24.15,0.97 23.17,0.8C22.19,0.63 -0.56,-0.92 0.01,0.8C1.3,4.63 6.42,13.35 7.49,13.35Z " /><path id="路径 484" fill-rule="evenodd" style="fill:#FFFFFF" transform="translate(1.0592719378749962 69.72969219047613)  rotate(0 5.2307167665734156 7.02851787308694)" opacity="0.5" d="M6.85,13.92C7.67,14.03 10.42,14.38 10.46,13.23C10.53,11.4 5.37,0.72 4.22,0.47C3.07,0.22 -0.36,-0.45 0.03,0.47C1.62,4.24 6.03,13.81 6.85,13.92Z " /><path id="路径 485" fill-rule="evenodd" fill="url(#linear_1)" transform="translate(8.71627826467936 83.5176852511785)  rotate(0 11.384824651357746 6.943954199023352)" opacity="0.5" d="M5,9.19C5.72,9.68 20.69,14.5 21.68,13.82C22.67,13.14 23.18,0.5 22.35,0.14C21.52,-0.22 0.17,0.07 0,1.39C-0.15,2.57 4.28,8.7 5,9.19Z " /><path id="路径 486" fill-rule="evenodd" fill="url(#linear_2)" transform="translate(22.099999999999966 69.53999999999999)  rotate(0 5.595000000000006 15.030000000000001)" opacity="0.5" d="M2.11,27.8L9.79,30.06L11.19,0L0,0C1.61,9.18 2.31,18.49 2.11,27.8Z " /><path id="路径 487" fill-rule="evenodd" fill="url(#linear_3)" transform="translate(133.80999999999995 69.53999999999999)  rotate(0 16.625 15.041195744412391)" opacity="1" d="M20.99,23.74C25.95,16.31 30.06,8.34 33.25,0L0,0L1.36,30.06C1.49,30.52 20.99,23.74 20.99,23.74Z " /><path id="路径 488" fill-rule="evenodd" style="fill:#4E217D" transform="translate(134.67999999999995 69.53999999999999)  rotate(0 13.015 9.120000000000005)" opacity="1" d="M25.04,0C25.04,0 17.15,15.92 16.28,16.57C15.41,17.22 0,17.09 0,17.09L0,18.24L16.83,17.79C18.25,16.05 26.03,0 26.03,0L25.04,0Z " /><path id="路径 489" fill-rule="evenodd" style="fill:#E6ADFF" transform="translate(151.50999999999993 69.53999999999999)  rotate(0 4.6000000000000085 8.900000000000006)" opacity="1" d="M0,17.8C1.99,14.95 3.8,11.98 5.42,8.9C7.47,4.8 9.2,0 9.2,0L0,17.8Z " /><path id="路径 490" fill-rule="evenodd" style="fill:#FFFFFF" transform="translate(134.7659716934299 69.82635607160043)  rotate(0 11.78728064575148 6.676821964199803)" opacity="0.5" d="M0.4,0.8C-0.58,0.97 0.39,9.57 1.53,11.35C2.67,13.13 15.01,13.35 16.08,13.35C17.15,13.35 22.27,4.63 23.56,0.8C24.13,-0.92 1.38,0.63 0.4,0.8Z " /><path id="路径 491" fill-rule="evenodd" style="fill:#FFFFFF" transform="translate(155.53929452897813 69.72969219047613)  rotate(0 5.2307167665734084 7.02851787308694)" opacity="0.5" d="M6.24,0.47C5.09,0.72 -0.07,11.4 0,13.23C0.04,14.38 2.79,14.03 3.61,13.92C4.43,13.81 8.84,4.24 10.43,0.47C10.82,-0.45 7.39,0.22 6.24,0.47Z " /><path id="路径 492" fill-rule="evenodd" fill="url(#linear_4)" transform="translate(135.57407243260508 83.5176852511785)  rotate(0 11.384824651357732 6.943954199023352)" opacity="0.5" d="M0.42,0.14C-0.41,0.5 0.1,13.14 1.09,13.82C2.08,14.5 17.05,9.68 17.77,9.19C18.49,8.7 22.92,2.57 22.77,1.39C22.6,0.07 1.25,-0.22 0.42,0.14Z " /><path id="路径 493" fill-rule="evenodd" fill="url(#linear_5)" transform="translate(133.80999999999995 69.53999999999999)  rotate(0 5.575000000000003 15.030000000000001)" opacity="0.5" d="M0,0L1.32,30.06L9,27.8C8.81,18.49 9.53,9.17 11.15,0L0,0Z " /><path id="路径 494" fill-rule="evenodd" fill="url(#linear_6)" transform="translate(29.239999999999966 0.030000000000001137)  rotate(0 54.5 69.005)" opacity="1" d="M54.5 138.01L0 106.54L0 31.47L54.5 0L109 31.47L109 106.54L54.5 138.01Z" /><path id="路径 495" fill-rule="evenodd" fill="url(#linear_7)" transform="translate(39.099999999999966 11.409999999999997)  rotate(0 44.645 57.625)" opacity="1" d="M89.29 89.47L44.64 115.25L0 89.47L0 25.78L44.64 0L89.29 25.78L89.29 89.47Z" /><path id="路径 496" fill-rule="evenodd" fill="url(#linear_8)" transform="translate(42.38999999999996 15.210000000000008)  rotate(0 41.355 53.82499999999999)" opacity="1" d="M82.71 83.77L41.35 107.65L0 83.77L0 23.87L41.35 0L82.71 23.87L82.71 83.77Z" /><path id="路径 497" fill-rule="evenodd" style="fill:#FFFFFF" transform="translate(30.546683746338957 1.4700000000000273)  rotate(0 26.416791715693563 17.011037201202512)" opacity="0.5" d="M9.25,33.84C13.33,32.96 51.69,10.45 52.62,8.43C52.88,7.87 52.92,0 52.62,0C51.26,0 0.38,29.24 0.05,30.23C-0.62,32.23 5.17,34.72 9.25,33.84Z " /><path id="路径 498" fill-rule="evenodd" style="fill:#FFFFFF" transform="translate(83.47211964165025 1.4700000000000273)  rotate(0 26.600598306005367 17.011037201202512)" opacity="0.5" d="M0.59,0C-0.3,0 -0.08,7.5 0.59,8.43C1.88,10.24 39.87,32.96 43.95,33.84C48.03,34.72 53.82,32.23 53.15,30.23C52.82,29.24 1.94,0 0.59,0Z " /><path id="路径 499" fill-rule="evenodd" fill="url(#linear_9)" transform="translate(29.898383315799563 72.81232654643688)  rotate(0 4.220912600312808 16.232777797701402)" opacity="0.5" d="M0.65,32.46C1.91,32.67 7.82,28.63 8.15,26.77C8.48,24.91 8.59,5.42 8.15,3.55C7.71,1.68 1.26,-2.16 0.65,1.58C0.28,3.83 -0.61,32.25 0.65,32.46Z " /><path id="路径 500" fill-rule="evenodd" fill="url(#linear_10)" transform="translate(128.93377692288948 72.81232654643688)  rotate(0 4.218919880655434 16.232777797701402)" opacity="0.5" d="M0.29,3.55C-0.14,5.42 -0.04,24.91 0.29,26.77C0.62,28.63 6.53,32.67 7.79,32.46C9.05,32.25 8.16,3.83 7.79,1.58C7.19,-2.16 0.72,1.68 0.29,3.55Z " /><path id="路径 501" fill-rule="evenodd" fill="url(#linear_11)" transform="translate(31.873217973947135 102.52049700759821)  rotate(0 25.698391013026416 16.764751496200887)" opacity="0.5" d="M50.53,33.53C50.9,33.53 51.4,26.32 51.4,25.53C51.4,23.29 7.99,0.24 7.23,0.03C6.11,-0.32 -0.62,2.54 0.05,3.53C0.71,4.53 49.79,33.53 50.53,33.53Z " /><path id="路径 502" fill-rule="evenodd" fill="url(#linear_12)" transform="translate(84.14560440764784 102.50004364072802)  rotate(0 25.77959565038566 17.099978179635997)" opacity="0.5" d="M44.01,0.02C43.27,0.23 1.85,23.31 0.27,24.9C-0.06,25.2 -0.06,34.2 0.1,34.2C0.84,34.2 50.85,5.31 51.51,4.31C52.18,3.32 45.13,-0.3 44.01,0.02Z " /><path id="路径 503" fill-rule="evenodd" fill="url(#linear_13)" transform="translate(43.15670267261315 53.56091142616966)  rotate(0 40.47806563135099 33.76958702869143)" opacity="0.5" d="M40.58,67.54C43.55,67.49 79.51,46.82 80.2,45C80.89,43.18 81.95,9.79 78.89,1.94C75.83,-5.91 41,12.15 20.41,19.17C-0.18,26.19 -1.81,27.23 1.12,43.83C1.45,45.69 37.61,67.59 40.58,67.54Z " /><path id="路径 504" fill-rule="evenodd" style="fill:#FFFFFF" transform="translate(43.57714941857502 17.879115489497593)  rotate(0 40.69977882132022 29.985114695064823)" opacity="0.3" d="M40.42,0C38.31,0.16 12.42,12.33 1.7,21.54C-1.15,23.99 -0.11,60.64 2.52,59.96C5.15,59.28 7.11,44.48 36.03,36.16C64.51,27.96 76.9,35.05 80.03,36.32C80.86,36.68 82.29,22.02 80.63,21.62C79.91,21.44 42.53,-0.16 40.42,0Z " /><path id="路径 505" fill-rule="evenodd" fill="url(#linear_14)" transform="translate(39.099999999999966 11.410000000000025)  rotate(0 44.645 44.735)" opacity="0.5" d="M3.27,87.57C3.27,87.57 3,32.13 4.11,30.36C7.4,25.1 36.89,12.57 42.31,10.89C47.73,9.21 80.75,24.27 85,30.47C86.2,32.21 86,87.57 86,87.57L89.29,89.47L89.29,25.78L44.64,0L0,25.78L0,89.47L3.27,87.57Z " /><path id="路径 506" fill-rule="evenodd" style="fill:#FFFFFF" transform="translate(90.8519804901867 30.408405696739493)  rotate(0 16.11481209138492 10.071336573554191)" opacity="0.2" d="M30.65,19.66C32.19,18.69 33.2,11.56 30.79,10.36C28.38,9.16 9.29,-1.01 4.26,0.08C-0.77,1.17 -0.73,14.58 1.24,15.47C12.36,20.54 29.11,20.63 30.65,19.66Z " /><path id="路径 507" fill-rule="evenodd" fill="url(#linear_15)" transform="translate(29.239999999999966 0)  rotate(0 37.715 27.17)" opacity="1" d="M1.36,31.67C2.25,30.18 53.36,1.84 54.82,1.44C56.28,1.04 75.43,12.08 75.43,12.08L54.5,0L0,31.47L0,54.34C0,54.17 0.47,33.16 1.36,31.67Z " /><path id="路径 508" fill-rule="evenodd" style="fill:#E6ADFF" transform="translate(103.24999999999996 22.669999999999987)  rotate(0 12.618888888888904 28.92500000000001)" opacity="1" d="M24.27,15.16C24.6,16.69 25.14,57.85 25.14,57.85C25.14,57.85 25.36,16.27 25.14,14.52C24.92,12.77 0,0 0,0C0,0 23.94,13.63 24.27,15.16Z " /><path id="路径 509" fill-rule="evenodd" style="fill:#E6ADFF" transform="translate(38.59308185440952 11.409999999999997)  rotate(0 22.558459072795223 30.340000000000003)" opacity="1" d="M1.12,26.2C2.03,24.64 45.12,0 45.12,0C45.12,0 0.53,24.01 0.12,25.13C-0.29,26.25 0.51,60.68 0.51,60.68C0.51,60.68 0.21,27.76 1.12,26.2Z " /><path id="路径 510" fill-rule="evenodd" fill="url(#linear_16)" transform="translate(29.239999999999952 68.27000000000001)  rotate(0 54.50000000000001 34.88500000000002)" opacity="1" d="M54.5,69.77L109,38.3L109,21.2C109,21.2 108.55,36.13 107.43,37.99C106.31,39.85 57.5,68.24 55.01,68.43C52.52,68.62 2.62,38.98 1.31,37C0,35.02 0,0 0,0L0,38.3L54.5,69.77Z " /><path id="路径 511" fill-rule="evenodd" style="fill:#E6ADFF" transform="translate(38.54867205215416 84.58000000000001)  rotate(0 11.605663973922901 14.689999999999998)" opacity="1" d="M0.04,16.76C0.26,17.52 23.21,29.38 23.21,29.38C23.21,29.38 2.02,17.15 1.21,15.92C0.4,14.69 0.55,0 0.55,0C0.55,0 -0.18,16 0.04,16.76Z " /><path id="路径 512" fill-rule="evenodd" style="fill:#FFFFFF" transform="translate(52.2621229016173 114.25997561684423)  rotate(0 15.835619012040183 10.627747101884353)" opacity="0.5" d="M0.14,2.87C0.92,3.73 27.94,20.11 31,21.24C32,21.61 31.91,15.24 30.57,13.16C29.99,12.27 10.26,-0.02 5.28,0C3.67,0 -0.84,1.8 0.14,2.87Z " /><path id="路径 513" fill-rule="evenodd" style="fill:#FFFFFF" transform="translate(102.69939975173428 12.367134024655968)  rotate(0 4.764809914616748 3.2495683401654816)" opacity="1" d="M5.38,6.4C7.46,6.89 10.31,5.4 9.33,4.4C8.35,3.4 2.26,-0.5 0.24,0.05C-1.07,0.41 3.3,5.91 5.38,6.4Z " /><path id="路径 514" fill-rule="evenodd" style="fill:#FFFFFF" transform="translate(112.04790510975984 17.84360030943904)  rotate(0 9.493601001911841 6.794387822163429)" opacity="1" d="M3.82,10.82C5.39,12.37 19.29,15.08 18.98,12.57C18.67,10.06 3.36,-0.7 0.58,0.04C-1.42,0.57 2.25,9.27 3.82,10.82Z " /><path id="路径 515" fill-rule="evenodd" fill="url(#linear_17)" transform="translate(108.02010244567587 103.16540327718903)  rotate(0 12.86696384946714 9.707321863828781)" opacity="0.5" d="M0.53,19.41C1.2,19.44 25.02,5.1 25.67,4.47C26.32,3.84 21.85,-0.28 20.01,0.01C18.17,0.3 1.3,9.32 0.86,11.23C-0.32,16.36 -0.14,19.38 0.53,19.41Z " /><path id="路径 516" fill-rule="evenodd" fill="url(#linear_18)" transform="translate(39.30745660914863 37.381259634397765)  rotate(0 1.4094311324246789 19.575118240470573)" opacity="0.5" d="M0.19,1.48C0.03,3.41 -0.25,39.09 0.45,39.15C1.15,39.21 2.63,37.45 2.68,36.63C2.73,35.81 2.96,2.09 2.68,1.27C2.11,-0.46 0.35,-0.45 0.19,1.48Z " /><path id="路径 517" fill-rule="evenodd" fill="url(#linear_19)" transform="translate(125.28026883878782 37.95718358039002)  rotate(0 1.309865580606072 17.64140820980498)" opacity="0.5" d="M0.22,35.28C0.66,35.28 2.62,33.69 2.62,32.87C2.62,32.05 2.13,0.2 1.91,0.03C1.69,-0.14 0.29,0.38 0.22,0.91C0.12,1.59 -0.22,35.28 0.22,35.28Z " /><path id="路径 518" fill-rule="evenodd" fill="url(#linear_20)" transform="translate(63.83293303571158 11.691505196291416)  rotate(0 9.979842584504937 7.294247401854292)" opacity="0.5" d="M19.91,0.01C19.78,-0.35 1.21,10.85 0.59,11.22C-0.03,11.59 -0.19,14.59 0.26,14.59C0.71,14.59 19.91,3.63 19.91,2.96C19.98,1.98 19.98,0.99 19.91,0.01Z " /><path id="路径 519" fill-rule="evenodd" style="fill:#4E217D" transform="translate(118.35674574748178 103.43923388696899)  rotate(0 2.6224999384911314 2.7480178359981267)" opacity="1" d="M0.02,3.54C0.39,4.72 2.87,5.99 3.54,5.3C4.21,4.61 5.83,0.03 5.02,0C3.8,-0.05 -0.35,2.36 0.02,3.54Z " /><path id="路径 520" fill-rule="evenodd" style="fill:#4E217D" transform="translate(124.13186681943161 104.10192039076637)  rotate(0 1.7380948818064468 1.3800942507363914)" opacity="1" d="M0.37,2.61C1.25,3.29 3.82,1.5 3.44,0.98C3.06,0.46 1.38,-0.34 0.83,0.16C0.41,0.55 -0.51,1.93 0.37,2.61Z " /><path id="路径 521" fill-rule="evenodd" fill="url(#linear_21)" transform="translate(118.78548428458161 103.4357305960771)  rotate(0 2.424707453872898 2.01425348118417)" opacity="0.5" d="M3.86,3.49C4.41,2.32 5.28,-0.12 4.59,0C3.9,0.12 0.7,1.6 0.15,2.35C-0.85,3.74 3.31,4.66 3.86,3.49Z " /><path id="路径 522" fill-rule="evenodd" style="fill:#DAE1EF" transform="translate(118.32159981367421 106.64000000000001)  rotate(0 1.8342000931628775 1.2475833777101286)" opacity="1" d="M1.67 2.32C2.23 2.6 2.89 2.54 3.38 2.18C3.51 2.11 3.61 2.02 3.67 1.91C3.58 2.01 3.48 2.1 3.38 2.18C3 2.37 2.35 2.34 1.61 1.91C0.87 1.48 0.31 0.8 0.03 0C0.03 0 -0.35 1.4 1.67 2.32Z" /><path id="路径 523" fill-rule="evenodd" fill="url(#linear_22)" transform="translate(124.94992879288846 104.27246040965494)  rotate(0 1.3276517888835428 1.240315933592683)" opacity="0.5" d="M0.8,2.48C1.33,2.4 2.91,1.35 2.62,0.85C2.33,0.35 0.68,-0.19 0.48,0.07C-0.52,1.07 0.27,2.56 0.8,2.48Z " /><path id="路径 524" fill-rule="evenodd" style="fill:#DAE1EF" transform="translate(123.88971779396458 104.26000000000002)  rotate(0 0.6951411030176899 1.4166343490304598)" opacity="1" d="M0.06,2.46C0.27,3.23 1.39,2.57 1.39,2.57C1.39,2.57 0.9,2.58 0.55,1.89C0.2,1.2 1.07,0 1.07,0C1.07,0 -0.3,1.13 0.06,2.46Z " /><path id="路径 525" fill-rule="evenodd" style="fill:#4E217D" transform="translate(70.88084646270771 14.099330500671954)  rotate(0 3.719792352139507 2.420203610465208)" opacity="1" d="M0.66,2.77C-0.62,4.23 0.09,5.1 1.71,4.77C3.33,4.44 8.49,0.51 7.25,0.18C4.32,-0.6 1.94,1.31 0.66,2.77Z " /><path id="路径 526" fill-rule="evenodd" fill="url(#linear_23)" transform="translate(72.63751906481617 14.090922956866791)  rotate(0 2.8248707163324127 1.923477512591532)" opacity="0.5" d="M0.21,1.53C-0.57,2.23 0.97,4.21 2.04,3.79C3.11,3.37 6.4,0.5 5.49,0.19C3.49,-0.49 0.99,0.83 0.21,1.53Z " /><path id="路径 527" fill-rule="evenodd" style="fill:#E6ADFF" transform="translate(69.3012215278357 16.109999999999985)  rotate(0 2.1893892360821354 1.7867660037142343)" opacity="1" d="M0.03,3.25C0.4,4.33 4.38,2.36 4.38,2.36C4.38,2.36 2.32,3.04 1.85,2.12C1.38,1.2 2.98,0 2.98,0C2.98,0 -0.34,2.17 0.03,3.25Z " /><path id="路径 528" fill-rule="evenodd" style="fill:#E6ADFF" transform="translate(40.68202520230675 101.31075929293772)  rotate(0 2.4727057257686624 1.8829404657422515)" opacity="1" d="M4.48,3.76C5.57,3.92 4.48,1.14 3.97,0.66C2.83,0.13 1.57,-0.08 0.32,0.03C-1.24,0.42 3.39,3.6 4.48,3.76Z " /><path id="路径 529" fill-rule="evenodd" fill="url(#linear_24)" transform="translate(24.749999999999943 71.57000000000002)  rotate(0 58.77500000000001 23.960000000000008)" opacity="1" d="M58.95 32.77L115.55 0C116.77 3.06 117.45 6.31 117.55 9.61L114.23 15.82L58.95 47.92L3.68 15.82L0 9.61C0.46 6.3 1.37 3.07 2.69 0L58.95 32.77Z" /><path id="路径 530" fill-rule="evenodd" fill="url(#linear_25)" transform="translate(24.749999999999957 81.17999999999998)  rotate(0 58.78 19.155)" opacity="1" d="M114.23 6.21L58.95 38.31L3.68 6.21L0 0L58.95 34.53L117.56 0L114.23 6.21Z" /><path id="路径 531" fill-rule="evenodd" fill="url(#linear_26)" transform="translate(24.749999999999957 81.13999999999996)  rotate(0 58.785 20.840000000000003)" opacity="0.5" d="M113.51,6.63L114.25,6.21L117.57,0L58.97,34.53L0,0.04L3.68,6.25L4.51,6.76L4.51,8.61C4.51,8.61 7.67,10.22 13.86,13.61C14.07,13.73 17.76,17.61 17.76,17.61C17.76,17.61 57.58,41.68 59.01,41.68C60.87,41.68 100.38,17.07 100.38,17.07C100.38,17.07 103.45,14.49 103.76,14.31L113.51,9.2L113.51,6.63Z " /><path id="路径 532" fill-rule="evenodd" fill="url(#linear_27)" transform="translate(83.69999999999995 71.52999999999994)  rotate(0 29.299999999999997 22.07000000000002)" opacity="0.5" d="M0,44.14L58.6,9.61C58.6,9.61 58.37,3.93 56.6,0L0,32.81L0,44.14Z " /><path id="路径 533" fill-rule="evenodd" style="fill:#FFFFFF" transform="translate(29.90228136383135 74.06000000000003)  rotate(0 21.625268570591167 16.860000000000014)" opacity="0.5" d="M3.51,11.72C8.71,15.2 40.02,33.65 42.07,33.72C43.48,33.72 43.41,25.64 42.98,25.01C42.18,23.78 2.04,0 0.44,0C-0.64,0 0.24,9.53 3.51,11.72Z " /><path id="路径 534" fill-rule="evenodd" style="fill:#FFFFFF" transform="translate(100.67326620186735 74.08635417396172)  rotate(0 18.314419369175468 14.929615691891769)" opacity="0.5" d="M1.01,29.85C2.18,29.59 19.87,20.13 28.21,14C36.55,7.87 37.74,-0.2 35.86,0C35.86,-0.03 1.83,19.06 0.43,20.5C-0.25,21.21 -0.16,30.11 1.01,29.85Z " /><path id="路径 535" fill-rule="evenodd" style="fill:#E6ADFF" transform="translate(55.039999999999964 98.91999999999999)  rotate(0 25.945 8.710000000000008)" opacity="1" d="M28.7,17.42C29.32,17.42 51.89,3.1 51.89,3.1C51.89,3.1 30.38,16.16 28.66,16.16C26.94,16.16 0,0 0,0C0,0 28.23,17.42 28.7,17.42Z " /><path id="路径 536" fill-rule="evenodd" fill="url(#linear_28)" transform="translate(64.27999999999996 57.239999999999974)  rotate(0 19.555000000000007 18.595)" opacity="0.5" d="M19.56 0L25.6 12.24L39.11 14.21L29.33 23.74L31.64 37.19L19.56 30.84L7.47 37.19L9.78 23.74L0 14.21L13.52 12.24L19.56 0Z" /><path id="路径 537" fill-rule="evenodd" fill="url(#linear_29)" transform="translate(65.69999999999995 58.72999999999998)  rotate(0 18.14 17.25)" opacity="1" d="M29.76 12.23L36.28 13.18L27.21 22.02L29.35 34.5L18.14 28.61L6.93 34.5L9.07 22.02L0 13.18L12.53 11.35L18.14 0L23.74 11.35L27.98 11.97L29.76 12.23Z" /><path id="路径 538" fill-rule="evenodd" fill="url(#linear_30)" transform="translate(65.62999999999995 71.91)  rotate(0 9.235 4.420000000000016)" opacity="0.5" d="M18.47 4.82L9.07 8.84L0 0L18.47 4.82Z" /><path id="路径 539" fill-rule="evenodd" fill="url(#linear_31)" transform="translate(84.09999999999995 71.91)  rotate(0 8.905000000000001 4.420000000000016)" opacity="0.5" d="M17.81 0L8.74 8.84L0 4.82L17.81 0Z" /><path id="路径 540" fill-rule="evenodd" fill="url(#linear_32)" transform="translate(72.55999999999996 76.72999999999999)  rotate(0 5.769999999999996 8.25)" opacity="0.5" d="M11.21 10.61L0 16.5L11.54 0L11.21 10.61Z" /><path id="路径 541" fill-rule="evenodd" fill="url(#linear_33)" transform="translate(83.76999999999997 76.72999999999999)  rotate(0 5.60499999999999 8.25)" opacity="0.5" d="M11.21 16.5L0 10.61L0.33 0L11.21 16.5Z" /><path id="路径 542" fill-rule="evenodd" fill="url(#linear_34)" transform="translate(83.76999999999997 58.72999999999998)  rotate(0 2.8049999999999926 9)" opacity="0.5" d="M0 0L5.61 11.35L0.33 18L0 0Z" /><path id="路径 543" fill-rule="evenodd" fill="url(#linear_35)" transform="translate(84.09999999999995 70.08000000000001)  rotate(0 8.905000000000001 3.3249999999999886)" opacity="0.5" d="M0 6.65L5.28 0L17.81 1.83L0 6.65Z" /><path id="路径 544" fill-rule="evenodd" fill="url(#linear_36)" transform="translate(84.09999999999995 70.08000000000001)  rotate(0 8.905000000000001 3.3249999999999886)" opacity="0.5" d="M0 6.65L5.28 0L17.81 1.83L0 6.65Z" /><path id="路径 545" fill-rule="evenodd" fill="url(#linear_37)" transform="translate(65.62999999999995 70.08000000000001)  rotate(0 9.235 3.3249999999999886)" opacity="0.5" d="M18.47 6.65L0 1.83L12.54 0L18.47 6.65Z" /><path id="路径 546" fill-rule="evenodd" style="fill:#FFFFFF" transform="translate(88.92696433389942 73.22666666666666)  rotate(0 2.556517833050279 1.056666666666672)" opacity="0.8" d="M0.31,2.11L5.11,0.81C5.11,0.81 2.6,-1.02 0.45,0.81C-0.48,1.59 0.31,2.11 0.31,2.11Z " /><path id="路径 547" fill-rule="evenodd" fill="url(#linear_38)" transform="translate(72.62999999999995 87.34)  rotate(0 11.210000000000008 2.944999999999993)" opacity="0.5" d="M11.21,0.77L22.42,5.89L11.18,0L0,5.89C0,5.89 8.5,1.89 11.21,0.77Z " /><path id="路径 548" fill-rule="evenodd" fill="url(#linear_39)" transform="translate(65.62999999999995 71.91)  rotate(0 9.235 6.775000000000006)" opacity="0.5" d="M18.47 4.82L8.33 13.55L0 0L18.47 4.82Z" /><path id="路径 549" fill-rule="evenodd" fill="url(#linear_40)" transform="translate(84.09999999999995 71.91)  rotate(0 8.905000000000001 7.35499999999999)" opacity="0.5" d="M17.81 0L9.81 14.71L0 4.82L17.81 0Z" /><path id="路径 550" fill-rule="evenodd" fill="url(#linear_41)" transform="translate(72.62999999999995 76.72999999999999)  rotate(0 11.210000000000008 8.25)" opacity="0.5" d="M22.42 16.5L11.21 14.73L0 16.5L11.47 0L22.42 16.5Z" /><path id="路径 551" fill-rule="evenodd" style="fill:#F7FFFF" transform="translate(79.46215685848829 65.1080887389368)  rotate(0 2.259047439519634 3.927680511480645)" opacity="0.4" d="M4.2,7.61C4.85,6.59 4.43,0.91 3.66,0.15C2.89,-0.61 0.69,1.66 0.2,3.01C-0.99,6.32 3.55,8.63 4.2,7.61Z " /><path id="路径 552" fill-rule="evenodd" style="fill:#F7FFFF" transform="translate(74.78403371647879 79.96407266197335)  rotate(0 2.743284960750401 2.561542201748722)" opacity="0.4" d="M5.44,0.79C6.26,-2.26 -3.22,4.51 1.17,5.1C3.58,5.43 4.93,2.68 5.44,0.79Z " /><path id="路径 553" fill-rule="evenodd" fill="url(#linear_42)" transform="translate(64.27999999999996 20.049999999999983)  rotate(0 19.555000000000007 18.595)" opacity="0.5" d="M31.64 37.19L19.56 30.84L7.47 37.19L9.78 23.73L0 14.21L13.52 12.24L19.56 0L25.6 12.24L39.11 14.21L29.33 23.73L31.64 37.19Z" /><path id="路径 554" fill-rule="evenodd" fill="url(#linear_43)" transform="translate(65.69999999999995 21.53)  rotate(0 18.14 17.254999999999995)" opacity="1" d="M12.53 11.36L18.14 0L23.74 11.36L27.98 11.98L29.76 12.24L36.28 13.19L27.21 22.03L29.35 34.51L18.14 28.62L6.93 34.51L9.07 22.03L0 13.19L12.53 11.36Z" /><path id="路径 555" fill-rule="evenodd" fill="url(#linear_44)" transform="translate(65.62999999999995 34.72)  rotate(0 9.235 4.420000000000016)" opacity="0.5" d="M18.47 4.82L9.07 8.84L0 0L18.47 4.82Z" /><path id="路径 556" fill-rule="evenodd" fill="url(#linear_45)" transform="translate(84.09999999999995 34.72)  rotate(0 8.905000000000001 4.420000000000016)" opacity="0.5" d="M17.81 0L8.74 8.84L0 4.82L17.81 0Z" /><path id="路径 557" fill-rule="evenodd" fill="url(#linear_46)" transform="translate(72.55999999999996 39.53999999999999)  rotate(0 5.769999999999996 8.25)" opacity="0.5" d="M11.21 10.61L0 16.5L11.54 0L11.21 10.61Z" /><path id="路径 558" fill-rule="evenodd" fill="url(#linear_47)" transform="translate(83.76999999999997 39.53999999999999)  rotate(0 5.60499999999999 8.25)" opacity="0.5" d="M11.21 16.5L0 10.61L0.33 0L11.21 16.5Z" /><path id="路径 559" fill-rule="evenodd" fill="url(#linear_48)" transform="translate(83.76999999999997 21.53)  rotate(0 2.8049999999999926 9.004999999999995)" opacity="0.5" d="M0 0L5.61 11.36L0.33 18.01L0 0Z" /><path id="路径 560" fill-rule="evenodd" fill="url(#linear_49)" transform="translate(84.09999999999995 32.890000000000015)  rotate(0 8.905000000000001 3.3249999999999886)" opacity="0.5" d="M0 6.65L5.28 0L17.81 1.83L0 6.65Z" /><path id="路径 561" fill-rule="evenodd" fill="url(#linear_50)" transform="translate(84.09999999999995 32.890000000000015)  rotate(0 8.905000000000001 3.3249999999999886)" opacity="0.5" d="M0 6.65L5.28 0L17.81 1.83L0 6.65Z" /><path id="路径 562" fill-rule="evenodd" fill="url(#linear_51)" transform="translate(65.62999999999995 32.890000000000015)  rotate(0 9.235 3.3249999999999886)" opacity="0.5" d="M18.47 6.65L0 1.83L12.54 0L18.47 6.65Z" /><path id="路径 563" fill-rule="evenodd" style="fill:#FFFFFF" transform="translate(88.92696433389942 36.03369558847035)  rotate(0 2.556517833050279 1.0581522057648272)" opacity="0.8" d="M0.31,2.12L5.11,0.82C5.11,0.82 2.6,-1.01 0.45,0.81C-0.48,1.6 0.31,2.12 0.31,2.12Z " /><path id="路径 564" fill-rule="evenodd" fill="url(#linear_52)" transform="translate(72.62999999999995 50.15)  rotate(0 11.210000000000008 2.944999999999993)" opacity="0.5" d="M11.21,0.77L22.42,5.89L11.18,0L0,5.89C0,5.89 8.5,1.89 11.21,0.77Z " /><path id="路径 565" fill-rule="evenodd" fill="url(#linear_53)" transform="translate(65.62999999999995 34.72)  rotate(0 9.235 6.775000000000006)" opacity="0.5" d="M18.47 4.82L8.33 13.55L0 0L18.47 4.82Z" /><path id="路径 566" fill-rule="evenodd" fill="url(#linear_54)" transform="translate(84.09999999999995 34.72)  rotate(0 8.905000000000001 7.35499999999999)" opacity="0.5" d="M17.81 0L9.81 14.71L0 4.82L17.81 0Z" /><path id="路径 567" fill-rule="evenodd" fill="url(#linear_55)" transform="translate(72.62999999999995 39.53999999999999)  rotate(0 11.210000000000008 8.25)" opacity="0.5" d="M22.42 16.5L11.21 14.73L0 16.5L11.47 0L22.42 16.5Z" /><path id="路径 568" fill-rule="evenodd" style="fill:#F7FFFF" transform="translate(79.46215685848829 27.905530850928386)  rotate(0 2.259047439519634 3.9322529233729426)" opacity="0.4" d="M4.2,7.62C4.85,6.61 4.43,0.92 3.66,0.15C2.89,-0.62 0.69,1.67 0.2,3.02C-0.99,6.33 3.55,8.63 4.2,7.62Z " /><path id="路径 569" fill-rule="evenodd" style="fill:#F7FFFF" transform="translate(74.78403371647879 42.77325586903734)  rotate(0 2.743284960750401 2.5619505982166686)" opacity="0.4" d="M5.44,0.79C6.26,-2.26 -3.22,4.5 1.17,5.1C3.58,5.43 4.93,2.68 5.44,0.79Z " /></g></svg>