<svg xmlns="http://www.w3.org/2000/svg" xmlns:xlink="http://www.w3.org/1999/xlink" width="173" height="195" viewBox="0 0 173 195" fill="none"><defs><linearGradient id="linear_0" x1="50.000000000000064%" y1="2.0970394736842124%" x2="51.000000000000064%" y2="66.61184210526321%" gradientUnits="objectBoundingBox"><stop offset="0" stop-color="#F768CA" stop-opacity="1" /><stop offset="0.45" stop-color="#C741D1" stop-opacity="1" /><stop offset="0.81" stop-color="#6B24C7" stop-opacity="1" /><stop offset="0.83" stop-color="#692AC7" stop-opacity="1" /><stop offset="0.87" stop-color="#623BC6" stop-opacity="1" /><stop offset="0.92" stop-color="#5758C6" stop-opacity="1" /><stop offset="0.97" stop-color="#487FC5" stop-opacity="1" /><stop offset="1" stop-color="#3D9AC4" stop-opacity="1" /></linearGradient><linearGradient id="linear_1" x1="50.015092061575594%" y1="7.702423445425499%" x2="51.015092061575594%" y2="91.02010144655264%" gradientUnits="objectBoundingBox"><stop offset="0" stop-color="#F768CA" stop-opacity="1" /><stop offset="0.45" stop-color="#C741D1" stop-opacity="1" /><stop offset="0.81" stop-color="#6B24C7" stop-opacity="1" /><stop offset="0.83" stop-color="#692AC7" stop-opacity="1" /><stop offset="0.87" stop-color="#623BC6" stop-opacity="1" /><stop offset="0.92" stop-color="#5758C6" stop-opacity="1" /><stop offset="0.97" stop-color="#487FC5" stop-opacity="1" /><stop offset="1" stop-color="#3D9AC4" stop-opacity="1" /></linearGradient><linearGradient id="linear_2" x1="49.976686828782974%" y1="-17.464406946549673%" x2="50.976686828782974%" y2="147.81562957797513%" gradientUnits="objectBoundingBox"><stop offset="0" stop-color="#705AB8" stop-opacity="1" /><stop offset="1" stop-color="#FFFFFF" stop-opacity="1" /></linearGradient><linearGradient id="linear_3" x1="50%" y1="100%" x2="51%" y2="0%" gradientUnits="objectBoundingBox"><stop offset="0" stop-color="#FFFFFF" stop-opacity="1" /><stop offset="0.44" stop-color="#881DED" stop-opacity="1" /><stop offset="1" stop-color="#262262" stop-opacity="1" /></linearGradient><linearGradient id="linear_4" x1="50.01142334932667%" y1="2.0970394736842124%" x2="51.01142334932667%" y2="66.61184210526321%" gradientUnits="objectBoundingBox"><stop offset="0" stop-color="#F768CA" stop-opacity="1" /><stop offset="0.45" stop-color="#C741D1" stop-opacity="1" /><stop offset="0.81" stop-color="#6B24C7" stop-opacity="1" /><stop offset="0.83" stop-color="#692AC7" stop-opacity="1" /><stop offset="0.87" stop-color="#623BC6" stop-opacity="1" /><stop offset="0.92" stop-color="#5758C6" stop-opacity="1" /><stop offset="0.97" stop-color="#487FC5" stop-opacity="1" /><stop offset="1" stop-color="#3D9AC4" stop-opacity="1" /></linearGradient><linearGradient id="linear_5" x1="49.98490793842509%" y1="7.702423445425499%" x2="50.98490793842509%" y2="91.02010144655264%" gradientUnits="objectBoundingBox"><stop offset="0" stop-color="#F768CA" stop-opacity="1" /><stop offset="0.45" stop-color="#C741D1" stop-opacity="1" /><stop offset="0.81" stop-color="#6B24C7" stop-opacity="1" /><stop offset="0.83" stop-color="#692AC7" stop-opacity="1" /><stop offset="0.87" stop-color="#623BC6" stop-opacity="1" /><stop offset="0.92" stop-color="#5758C6" stop-opacity="1" /><stop offset="0.97" stop-color="#487FC5" stop-opacity="1" /><stop offset="1" stop-color="#3D9AC4" stop-opacity="1" /></linearGradient><linearGradient id="linear_6" x1="50.011808182442685%" y1="-17.464406946549673%" x2="51.011808182442685%" y2="147.81562957797513%" gradientUnits="objectBoundingBox"><stop offset="0" stop-color="#705AB8" stop-opacity="1" /><stop offset="1" stop-color="#FFFFFF" stop-opacity="1" /></linearGradient><linearGradient id="linear_7" x1="50.00000000000223%" y1="100%" x2="51.00000000000223%" y2="0%" gradientUnits="objectBoundingBox"><stop offset="0" stop-color="#FFFFFF" stop-opacity="1" /><stop offset="0.44" stop-color="#881DED" stop-opacity="1" /><stop offset="1" stop-color="#262262" stop-opacity="1" /></linearGradient><linearGradient id="linear_8" x1="1.5860328923216508e-13%" y1="50%" x2="100%" y2="50%" gradientUnits="objectBoundingBox"><stop offset="0" stop-color="#941F63" stop-opacity="1" /><stop offset="0.56" stop-color="#DE108C" stop-opacity="1" /><stop offset="1" stop-color="#FF144B" stop-opacity="1" /></linearGradient><linearGradient id="linear_9" x1="99.99999999999967%" y1="50%" x2="4.75809867696496e-13%" y2="50%" gradientUnits="objectBoundingBox"><stop offset="0" stop-color="#941F63" stop-opacity="1" /><stop offset="0.56" stop-color="#DE108C" stop-opacity="1" /><stop offset="1" stop-color="#FF144B" stop-opacity="1" /></linearGradient><linearGradient id="linear_10" x1="50.01501952538307%" y1="99.6928718620687%" x2="51.01501952538307%" y2="0.7313248352670152%" gradientUnits="objectBoundingBox"><stop offset="0" stop-color="#F768CA" stop-opacity="1" /><stop offset="0.45" stop-color="#C741D1" stop-opacity="1" /><stop offset="0.81" stop-color="#6B24C7" stop-opacity="1" /><stop offset="0.83" stop-color="#692AC7" stop-opacity="1" /><stop offset="0.87" stop-color="#623BC6" stop-opacity="1" /><stop offset="0.92" stop-color="#5758C6" stop-opacity="1" /><stop offset="0.97" stop-color="#487FC5" stop-opacity="1" /><stop offset="1" stop-color="#3D9AC4" stop-opacity="1" /></linearGradient><linearGradient id="linear_11" x1="50.42715711182105%" y1="93.8996086419889%" x2="49.9001930204514%" y2="-6.678974070647406%" gradientUnits="objectBoundingBox"><stop offset="0" stop-color="#705AB8" stop-opacity="1" /><stop offset="1" stop-color="#FFFFFF" stop-opacity="1" /></linearGradient><linearGradient id="linear_12" x1="50.04468275245726%" y1="100%" x2="51.04468275245726%" y2="0%" gradientUnits="objectBoundingBox"><stop offset="0" stop-color="#FFFFFF" stop-opacity="1" /><stop offset="0.44" stop-color="#881DED" stop-opacity="1" /><stop offset="1" stop-color="#262262" stop-opacity="1" /></linearGradient><linearGradient id="linear_13" x1="50.01501952538333%" y1="99.6928718620687%" x2="51.01501952538333%" y2="0.7313248352670152%" gradientUnits="objectBoundingBox"><stop offset="0" stop-color="#F768CA" stop-opacity="1" /><stop offset="0.45" stop-color="#C741D1" stop-opacity="1" /><stop offset="0.81" stop-color="#6B24C7" stop-opacity="1" /><stop offset="0.83" stop-color="#692AC7" stop-opacity="1" /><stop offset="0.87" stop-color="#623BC6" stop-opacity="1" /><stop offset="0.92" stop-color="#5758C6" stop-opacity="1" /><stop offset="0.97" stop-color="#487FC5" stop-opacity="1" /><stop offset="1" stop-color="#3D9AC4" stop-opacity="1" /></linearGradient><linearGradient id="linear_14" x1="49.544451829968686%" y1="93.8996086419889%" x2="50.11562739598138%" y2="-6.678974070647406%" gradientUnits="objectBoundingBox"><stop offset="0" stop-color="#705AB8" stop-opacity="1" /><stop offset="1" stop-color="#FFFFFF" stop-opacity="1" /></linearGradient><linearGradient id="linear_15" x1="49.95531724754173%" y1="100%" x2="50.95531724754173%" y2="0%" gradientUnits="objectBoundingBox"><stop offset="0" stop-color="#FFFFFF" stop-opacity="1" /><stop offset="0.44" stop-color="#881DED" stop-opacity="1" /><stop offset="1" stop-color="#262262" stop-opacity="1" /></linearGradient><linearGradient id="linear_16" x1="50%" y1="101.71726686471996%" x2="51%" y2="15.969857256720502%" gradientUnits="objectBoundingBox"><stop offset="0" stop-color="#F768CA" stop-opacity="1" /><stop offset="0.45" stop-color="#C741D1" stop-opacity="1" /><stop offset="0.81" stop-color="#6B24C7" stop-opacity="1" /><stop offset="0.83" stop-color="#692AC7" stop-opacity="1" /><stop offset="0.87" stop-color="#623BC6" stop-opacity="1" /><stop offset="0.92" stop-color="#5758C6" stop-opacity="1" /><stop offset="0.97" stop-color="#487FC5" stop-opacity="1" /><stop offset="1" stop-color="#3D9AC4" stop-opacity="1" /></linearGradient><linearGradient id="linear_17" x1="50.005599731212904%" y1="6.186550976138825%" x2="51.005599731212904%" y2="99.73101952277658%" gradientUnits="objectBoundingBox"><stop offset="0" stop-color="#3D9AC4" stop-opacity="1" /><stop offset="0.03" stop-color="#487FC5" stop-opacity="1" /><stop offset="0.08" stop-color="#5758C6" stop-opacity="1" /><stop offset="0.13" stop-color="#623BC6" stop-opacity="1" /><stop offset="0.17" stop-color="#692AC7" stop-opacity="1" /><stop offset="0.19" stop-color="#6B24C7" stop-opacity="1" /><stop offset="0.55" stop-color="#C741D1" stop-opacity="1" /><stop offset="1" stop-color="#F768CA" stop-opacity="1" /></linearGradient><linearGradient id="linear_18" x1="50%" y1="100%" x2="51%" y2="0%" gradientUnits="objectBoundingBox"><stop offset="0" stop-color="#D36AF0" stop-opacity="1" /><stop offset="0.01" stop-color="#D068EE" stop-opacity="1" /><stop offset="0.2" stop-color="#9B46CB" stop-opacity="1" /><stop offset="0.37" stop-color="#742CB1" stop-opacity="1" /><stop offset="0.5" stop-color="#5C1DA2" stop-opacity="1" /><stop offset="0.59" stop-color="#53179C" stop-opacity="1" /><stop offset="0.59" stop-color="#53199D" stop-opacity="1" /><stop offset="0.71" stop-color="#4F3DA9" stop-opacity="1" /><stop offset="0.82" stop-color="#4C57B2" stop-opacity="1" /><stop offset="0.92" stop-color="#4B66B8" stop-opacity="1" /><stop offset="1" stop-color="#4A6CBA" stop-opacity="1" /></linearGradient><linearGradient id="linear_19" x1="49.99217545775116%" y1="143.45143750759166%" x2="50.99217545775116%" y2="-57.433712774140254%" gradientUnits="objectBoundingBox"><stop offset="0" stop-color="#705AB8" stop-opacity="1" /><stop offset="1" stop-color="#FFFFFF" stop-opacity="1" /></linearGradient><linearGradient id="linear_20" x1="50.007824542250525%" y1="143.45143750759166%" x2="51.007824542250525%" y2="-57.433712774140254%" gradientUnits="objectBoundingBox"><stop offset="0" stop-color="#705AB8" stop-opacity="1" /><stop offset="1" stop-color="#FFFFFF" stop-opacity="1" /></linearGradient><linearGradient id="linear_21" x1="23.711177131430777%" y1="-22.219912998091125%" x2="75.03734768161833%" y2="105.30742730267397%" gradientUnits="objectBoundingBox"><stop offset="0" stop-color="#705AB8" stop-opacity="1" /><stop offset="1" stop-color="#FFFFFF" stop-opacity="1" /></linearGradient><linearGradient id="linear_22" x1="36.23099697884511%" y1="-5.994287300230078%" x2="72.87294230844365%" y2="157.77785150489808%" gradientUnits="objectBoundingBox"><stop offset="0" stop-color="#705AB8" stop-opacity="1" /><stop offset="1" stop-color="#FFFFFF" stop-opacity="1" /></linearGradient><linearGradient id="linear_23" x1="50.003138494804574%" y1="113.6236544545632%" x2="51.003138494804574%" y2="-19.948634725435436%" gradientUnits="objectBoundingBox"><stop offset="0" stop-color="#705AB8" stop-opacity="1" /><stop offset="1" stop-color="#FFFFFF" stop-opacity="1" /></linearGradient><linearGradient id="linear_24" x1="50.005599731212904%" y1="100%" x2="51.005599731212904%" y2="3.1766747994192474e-14%" gradientUnits="objectBoundingBox"><stop offset="0" stop-color="#FFFFFF" stop-opacity="1" /><stop offset="0.44" stop-color="#881DED" stop-opacity="1" /><stop offset="1" stop-color="#262262" stop-opacity="1" /></linearGradient><linearGradient id="linear_25" x1="0%" y1="50.00000000000006%" x2="100%" y2="50.00000000000006%" gradientUnits="objectBoundingBox"><stop offset="0" stop-color="#728EE3" stop-opacity="1" /><stop offset="1" stop-color="#836888" stop-opacity="1" /></linearGradient><linearGradient id="linear_26" x1="0.000002074580056922843%" y1="50.02866972477066%" x2="100%" y2="50.02866972477066%" gradientUnits="objectBoundingBox"><stop offset="0" stop-color="#728EE3" stop-opacity="1" /><stop offset="1" stop-color="#836888" stop-opacity="1" /></linearGradient><linearGradient id="linear_27" x1="50.004436326741285%" y1="99.99975788972911%" x2="51.004436326741285%" y2="-0.027830936610671115%" gradientUnits="objectBoundingBox"><stop offset="0" stop-color="#FFFFFF" stop-opacity="1" /><stop offset="0.44" stop-color="#881DED" stop-opacity="1" /><stop offset="1" stop-color="#262262" stop-opacity="1" /></linearGradient><linearGradient id="linear_28" x1="49.965770782536154%" y1="99.9961785279646%" x2="50.965770782536154%" y2="-0.0032174375202324345%" gradientUnits="objectBoundingBox"><stop offset="0" stop-color="#FFFFFF" stop-opacity="1" /><stop offset="0.44" stop-color="#881DED" stop-opacity="1" /><stop offset="1" stop-color="#262262" stop-opacity="1" /></linearGradient><linearGradient id="linear_29" x1="47.90341993101212%" y1="100%" x2="48.90341993101212%" y2="0.010609380772281067%" gradientUnits="objectBoundingBox"><stop offset="0" stop-color="#FFFFFF" stop-opacity="1" /><stop offset="0.44" stop-color="#881DED" stop-opacity="1" /><stop offset="1" stop-color="#262262" stop-opacity="1" /></linearGradient><linearGradient id="linear_30" x1="50.02056180240153%" y1="100%" x2="51.02056180240153%" y2="-0.007127405369444728%" gradientUnits="objectBoundingBox"><stop offset="0" stop-color="#FFFFFF" stop-opacity="1" /><stop offset="0.44" stop-color="#881DED" stop-opacity="1" /><stop offset="1" stop-color="#262262" stop-opacity="1" /></linearGradient><linearGradient id="linear_31" x1="-132.70323032187642%" y1="-356.7963456966484%" x2="-132.90934603218204%" y2="-456.6043926086525%" gradientUnits="objectBoundingBox"><stop offset="0" stop-color="#FFFFFF" stop-opacity="1" /><stop offset="0.44" stop-color="#881DED" stop-opacity="1" /><stop offset="1" stop-color="#262262" stop-opacity="1" /></linearGradient><linearGradient id="linear_32" x1="-286.7682334749059%" y1="-646.5577798449883%" x2="-286.91243322234794%" y2="-746.4432168854521%" gradientUnits="objectBoundingBox"><stop offset="0" stop-color="#FFFFFF" stop-opacity="1" /><stop offset="0.44" stop-color="#881DED" stop-opacity="1" /><stop offset="1" stop-color="#262262" stop-opacity="1" /></linearGradient><linearGradient id="linear_33" x1="51.70940819399822%" y1="95.60874175166127%" x2="51.758331341233465%" y2="-4.374125174635419%" gradientUnits="objectBoundingBox"><stop offset="0" stop-color="#FFFFFF" stop-opacity="1" /><stop offset="0.44" stop-color="#881DED" stop-opacity="1" /><stop offset="1" stop-color="#262262" stop-opacity="1" /></linearGradient><linearGradient id="linear_34" x1="49.99574649085503%" y1="-81.26043405676145%" x2="50.99574649085503%" y2="97.72537562604346%" gradientUnits="objectBoundingBox"><stop offset="0" stop-color="#F768CA" stop-opacity="1" /><stop offset="0.45" stop-color="#C741D1" stop-opacity="1" /><stop offset="0.81" stop-color="#6B24C7" stop-opacity="1" /><stop offset="0.83" stop-color="#692AC7" stop-opacity="1" /><stop offset="0.87" stop-color="#623BC6" stop-opacity="1" /><stop offset="0.92" stop-color="#5758C6" stop-opacity="1" /><stop offset="0.97" stop-color="#487FC5" stop-opacity="1" /><stop offset="1" stop-color="#3D9AC4" stop-opacity="1" /></linearGradient><linearGradient id="linear_35" x1="0%" y1="50.01305142260512%" x2="100%" y2="50.01305142260512%" gradientUnits="objectBoundingBox"><stop offset="0" stop-color="#F768CA" stop-opacity="1" /><stop offset="0.45" stop-color="#C741D1" stop-opacity="1" /><stop offset="0.81" stop-color="#6B24C7" stop-opacity="1" /><stop offset="0.83" stop-color="#692AC7" stop-opacity="1" /><stop offset="0.87" stop-color="#623BC6" stop-opacity="1" /><stop offset="0.92" stop-color="#5758C6" stop-opacity="1" /><stop offset="0.97" stop-color="#487FC5" stop-opacity="1" /><stop offset="1" stop-color="#3D9AC4" stop-opacity="1" /></linearGradient><linearGradient id="linear_36" x1="49.987241643276384%" y1="0.09596928982730436%" x2="50.987241643276384%" y2="100.09596928982731%" gradientUnits="objectBoundingBox"><stop offset="0" stop-color="#FFFFFF" stop-opacity="1" /><stop offset="0.44" stop-color="#881DED" stop-opacity="1" /><stop offset="1" stop-color="#262262" stop-opacity="1" /></linearGradient><linearGradient id="linear_37" x1="25.433373144514864%" y1="102.37879474399641%" x2="19.082238525848926%" y2="1.6764839148166406%" gradientUnits="objectBoundingBox"><stop offset="0" stop-color="#705AB8" stop-opacity="1" /><stop offset="1" stop-color="#FFFFFF" stop-opacity="1" /></linearGradient><linearGradient id="linear_38" x1="49.99574649085501%" y1="-81.2813021702837%" x2="50.99574649085501%" y2="97.70450751252095%" gradientUnits="objectBoundingBox"><stop offset="0" stop-color="#F768CA" stop-opacity="1" /><stop offset="0.45" stop-color="#C741D1" stop-opacity="1" /><stop offset="0.81" stop-color="#6B24C7" stop-opacity="1" /><stop offset="0.83" stop-color="#692AC7" stop-opacity="1" /><stop offset="0.87" stop-color="#623BC6" stop-opacity="1" /><stop offset="0.92" stop-color="#5758C6" stop-opacity="1" /><stop offset="0.97" stop-color="#487FC5" stop-opacity="1" /><stop offset="1" stop-color="#3D9AC4" stop-opacity="1" /></linearGradient><linearGradient id="linear_39" x1="0%" y1="49.986948577395026%" x2="100%" y2="49.986948577395026%" gradientUnits="objectBoundingBox"><stop offset="0" stop-color="#F768CA" stop-opacity="1" /><stop offset="0.45" stop-color="#C741D1" stop-opacity="1" /><stop offset="0.81" stop-color="#6B24C7" stop-opacity="1" /><stop offset="0.83" stop-color="#692AC7" stop-opacity="1" /><stop offset="0.87" stop-color="#623BC6" stop-opacity="1" /><stop offset="0.92" stop-color="#5758C6" stop-opacity="1" /><stop offset="0.97" stop-color="#487FC5" stop-opacity="1" /><stop offset="1" stop-color="#3D9AC4" stop-opacity="1" /></linearGradient><linearGradient id="linear_40" x1="49.995746490854984%" y1="0%" x2="50.995746490854984%" y2="100.02399808015356%" gradientUnits="objectBoundingBox"><stop offset="0" stop-color="#FFFFFF" stop-opacity="1" /><stop offset="0.44" stop-color="#881DED" stop-opacity="1" /><stop offset="1" stop-color="#262262" stop-opacity="1" /></linearGradient><linearGradient id="linear_41" x1="25.433373144514864%" y1="102.37879474399654%" x2="19.082238525848926%" y2="1.6538287267786007%" gradientUnits="objectBoundingBox"><stop offset="0" stop-color="#705AB8" stop-opacity="1" /><stop offset="1" stop-color="#FFFFFF" stop-opacity="1" /></linearGradient><linearGradient id="linear_42" x1="50.00000000000008%" y1="100%" x2="51.00000000000008%" y2="0%" gradientUnits="objectBoundingBox"><stop offset="0" stop-color="#FFFFFF" stop-opacity="1" /><stop offset="0.44" stop-color="#881DED" stop-opacity="1" /><stop offset="1" stop-color="#262262" stop-opacity="1" /></linearGradient><linearGradient id="linear_43" x1="50.00000000000008%" y1="101.88405797101443%" x2="51.00000000000008%" y2="-16.98550724637685%" gradientUnits="objectBoundingBox"><stop offset="0" stop-color="#F768CA" stop-opacity="1" /><stop offset="0.45" stop-color="#C741D1" stop-opacity="1" /><stop offset="0.81" stop-color="#6B24C7" stop-opacity="1" /><stop offset="0.83" stop-color="#692AC7" stop-opacity="1" /><stop offset="0.87" stop-color="#623BC6" stop-opacity="1" /><stop offset="0.92" stop-color="#5758C6" stop-opacity="1" /><stop offset="0.97" stop-color="#487FC5" stop-opacity="1" /><stop offset="1" stop-color="#3D9AC4" stop-opacity="1" /></linearGradient><linearGradient id="linear_44" x1="0%" y1="50.00000000000032%" x2="100%" y2="50.00000000000032%" gradientUnits="objectBoundingBox"><stop offset="0" stop-color="#705AB8" stop-opacity="1" /><stop offset="1" stop-color="#FFFFFF" stop-opacity="1" /></linearGradient><linearGradient id="linear_45" x1="0%" y1="50.00000000000032%" x2="100%" y2="50.00000000000032%" gradientUnits="objectBoundingBox"><stop offset="0" stop-color="#705AB8" stop-opacity="1" /><stop offset="1" stop-color="#FFFFFF" stop-opacity="1" /></linearGradient><linearGradient id="linear_46" x1="0%" y1="50%" x2="100%" y2="50%" gradientUnits="objectBoundingBox"><stop offset="0" stop-color="#705AB8" stop-opacity="1" /><stop offset="1" stop-color="#FFFFFF" stop-opacity="1" /></linearGradient><linearGradient id="linear_47" x1="0%" y1="50%" x2="100%" y2="50%" gradientUnits="objectBoundingBox"><stop offset="0" stop-color="#705AB8" stop-opacity="1" /><stop offset="1" stop-color="#FFFFFF" stop-opacity="1" /></linearGradient><linearGradient id="linear_48" x1="29.464285714285488%" y1="14.999999999999936%" x2="74.28571428571416%" y2="142.8333333333332%" gradientUnits="objectBoundingBox"><stop offset="0" stop-color="#BFD7FF" stop-opacity="1" /><stop offset="1" stop-color="#000000" stop-opacity="100" /></linearGradient><linearGradient id="linear_49" x1="0%" y1="50%" x2="100%" y2="50%" gradientUnits="objectBoundingBox"><stop offset="0" stop-color="#BFD7FF" stop-opacity="1" /><stop offset="1" stop-color="#000000" stop-opacity="100" /></linearGradient><linearGradient id="linear_50" x1="41.694725028058414%" y1="-140.36144578313272%" x2="55.780022446689124%" y2="206.17469879518114%" gradientUnits="objectBoundingBox"><stop offset="0" stop-color="#BFD7FF" stop-opacity="1" /><stop offset="1" stop-color="#000000" stop-opacity="100" /></linearGradient><linearGradient id="linear_51" x1="43.151055766107284%" y1="-110.99397590361475%" x2="56.74066053059016%" y2="235.6927710843375%" gradientUnits="objectBoundingBox"><stop offset="0" stop-color="#BFD7FF" stop-opacity="1" /><stop offset="1" stop-color="#000000" stop-opacity="100" /></linearGradient><linearGradient id="linear_52" x1="50.000000000000256%" y1="100%" x2="51.000000000000256%" y2="-0.3407155025550561%" gradientUnits="objectBoundingBox"><stop offset="0" stop-color="#FFFFFF" stop-opacity="1" /><stop offset="0.44" stop-color="#881DED" stop-opacity="1" /><stop offset="1" stop-color="#262262" stop-opacity="1" /></linearGradient><linearGradient id="linear_53" x1="50.02707092582563%" y1="100%" x2="51.02707092582563%" y2="0%" gradientUnits="objectBoundingBox"><stop offset="0" stop-color="#FFFFFF" stop-opacity="1" /><stop offset="0.44" stop-color="#881DED" stop-opacity="1" /><stop offset="1" stop-color="#262262" stop-opacity="1" /></linearGradient><linearGradient id="linear_54" x1="49.99999999999984%" y1="100%" x2="50.99999999999984%" y2="0%" gradientUnits="objectBoundingBox"><stop offset="0" stop-color="#FFFFFF" stop-opacity="1" /><stop offset="0.44" stop-color="#881DED" stop-opacity="1" /><stop offset="1" stop-color="#262262" stop-opacity="1" /></linearGradient><linearGradient id="linear_55" x1="50.00000000000012%" y1="100%" x2="51.00000000000012%" y2="0%" gradientUnits="objectBoundingBox"><stop offset="0" stop-color="#FFFFFF" stop-opacity="1" /><stop offset="0.44" stop-color="#881DED" stop-opacity="1" /><stop offset="1" stop-color="#262262" stop-opacity="1" /></linearGradient><linearGradient id="linear_56" x1="49.999999999999844%" y1="101.84864240323508%" x2="50.999999999999844%" y2="-16.926632004621315%" gradientUnits="objectBoundingBox"><stop offset="0" stop-color="#8980EB" stop-opacity="1" /><stop offset="1" stop-color="#705AB8" stop-opacity="1" /></linearGradient><linearGradient id="linear_57" x1="50%" y1="101.87969924812037%" x2="51%" y2="-16.97994987468655%" gradientUnits="objectBoundingBox"><stop offset="0" stop-color="#F768CA" stop-opacity="1" /><stop offset="0.45" stop-color="#C741D1" stop-opacity="1" /><stop offset="0.81" stop-color="#6B24C7" stop-opacity="1" /><stop offset="0.83" stop-color="#692AC7" stop-opacity="1" /><stop offset="0.87" stop-color="#623BC6" stop-opacity="1" /><stop offset="0.92" stop-color="#5758C6" stop-opacity="1" /><stop offset="0.97" stop-color="#487FC5" stop-opacity="1" /><stop offset="1" stop-color="#3D9AC4" stop-opacity="1" /></linearGradient><linearGradient id="linear_58" x1="0%" y1="50.12224938875364%" x2="100%" y2="50.12224938875364%" gradientUnits="objectBoundingBox"><stop offset="0" stop-color="#705AB8" stop-opacity="1" /><stop offset="1" stop-color="#FFFFFF" stop-opacity="1" /></linearGradient><linearGradient id="linear_59" x1="0%" y1="50.12224938875364%" x2="100%" y2="50.12224938875364%" gradientUnits="objectBoundingBox"><stop offset="0" stop-color="#705AB8" stop-opacity="1" /><stop offset="1" stop-color="#FFFFFF" stop-opacity="1" /></linearGradient><linearGradient id="linear_60" x1="0%" y1="49.934469200524305%" x2="100%" y2="49.934469200524305%" gradientUnits="objectBoundingBox"><stop offset="0" stop-color="#705AB8" stop-opacity="1" /><stop offset="1" stop-color="#FFFFFF" stop-opacity="1" /></linearGradient><linearGradient id="linear_61" x1="0%" y1="49.934469200524305%" x2="100%" y2="49.934469200524305%" gradientUnits="objectBoundingBox"><stop offset="0" stop-color="#705AB8" stop-opacity="1" /><stop offset="1" stop-color="#FFFFFF" stop-opacity="1" /></linearGradient><linearGradient id="linear_62" x1="29.729729729729314%" y1="15.00600240096031%" x2="74.5173745173755%" y2="142.737094837935%" gradientUnits="objectBoundingBox"><stop offset="0" stop-color="#BFD7FF" stop-opacity="1" /><stop offset="1" stop-color="#000000" stop-opacity="100" /></linearGradient><linearGradient id="linear_63" x1="0%" y1="50%" x2="100%" y2="50%" gradientUnits="objectBoundingBox"><stop offset="0" stop-color="#BFD7FF" stop-opacity="1" /><stop offset="1" stop-color="#000000" stop-opacity="100" /></linearGradient><linearGradient id="linear_64" x1="41.74757281553391%" y1="-139.93506493506317%" x2="55.82524271844682%" y2="205.5194805194791%" gradientUnits="objectBoundingBox"><stop offset="0" stop-color="#BFD7FF" stop-opacity="1" /><stop offset="1" stop-color="#000000" stop-opacity="100" /></linearGradient><linearGradient id="linear_65" x1="43.09133489461356%" y1="-110.3896103896082%" x2="56.67447306791593%" y2="235.06493506493223%" gradientUnits="objectBoundingBox"><stop offset="0" stop-color="#BFD7FF" stop-opacity="1" /><stop offset="1" stop-color="#000000" stop-opacity="100" /></linearGradient><linearGradient id="linear_66" x1="50.09633911368007%" y1="100%" x2="51.09633911368007%" y2="0%" gradientUnits="objectBoundingBox"><stop offset="0" stop-color="#FFFFFF" stop-opacity="1" /><stop offset="0.44" stop-color="#881DED" stop-opacity="1" /><stop offset="1" stop-color="#262262" stop-opacity="1" /></linearGradient><linearGradient id="linear_67" x1="50.000000000000334%" y1="100%" x2="51.000000000000334%" y2="0%" gradientUnits="objectBoundingBox"><stop offset="0" stop-color="#FFFFFF" stop-opacity="1" /><stop offset="0.44" stop-color="#881DED" stop-opacity="1" /><stop offset="1" stop-color="#262262" stop-opacity="1" /></linearGradient><linearGradient id="linear_68" x1="50%" y1="100%" x2="51%" y2="0%" gradientUnits="objectBoundingBox"><stop offset="0" stop-color="#FFFFFF" stop-opacity="1" /><stop offset="0.44" stop-color="#881DED" stop-opacity="1" /><stop offset="1" stop-color="#262262" stop-opacity="1" /></linearGradient><linearGradient id="linear_69" x1="50.048216007714515%" y1="100%" x2="51.048216007714515%" y2="0%" gradientUnits="objectBoundingBox"><stop offset="0" stop-color="#FFFFFF" stop-opacity="1" /><stop offset="0.44" stop-color="#881DED" stop-opacity="1" /><stop offset="1" stop-color="#262262" stop-opacity="1" /></linearGradient><linearGradient id="linear_70" x1="50.000000000000156%" y1="101.84864240323508%" x2="51.000000000000156%" y2="-16.926632004621315%" gradientUnits="objectBoundingBox"><stop offset="0" stop-color="#8980EB" stop-opacity="1" /><stop offset="1" stop-color="#705AB8" stop-opacity="1" /></linearGradient><linearGradient id="linear_71" x1="50.00000000000016%" y1="101.87969924812037%" x2="51.00000000000016%" y2="-16.97994987468655%" gradientUnits="objectBoundingBox"><stop offset="0" stop-color="#F768CA" stop-opacity="1" /><stop offset="0.45" stop-color="#C741D1" stop-opacity="1" /><stop offset="0.81" stop-color="#6B24C7" stop-opacity="1" /><stop offset="0.83" stop-color="#692AC7" stop-opacity="1" /><stop offset="0.87" stop-color="#623BC6" stop-opacity="1" /><stop offset="0.92" stop-color="#5758C6" stop-opacity="1" /><stop offset="0.97" stop-color="#487FC5" stop-opacity="1" /><stop offset="1" stop-color="#3D9AC4" stop-opacity="1" /></linearGradient><linearGradient id="linear_72" x1="0%" y1="50.12224938875364%" x2="100%" y2="50.12224938875364%" gradientUnits="objectBoundingBox"><stop offset="0" stop-color="#705AB8" stop-opacity="1" /><stop offset="1" stop-color="#FFFFFF" stop-opacity="1" /></linearGradient><linearGradient id="linear_73" x1="0%" y1="50.12224938875364%" x2="100%" y2="50.12224938875364%" gradientUnits="objectBoundingBox"><stop offset="0" stop-color="#705AB8" stop-opacity="1" /><stop offset="1" stop-color="#FFFFFF" stop-opacity="1" /></linearGradient><linearGradient id="linear_74" x1="0%" y1="49.934469200524305%" x2="100%" y2="49.934469200524305%" gradientUnits="objectBoundingBox"><stop offset="0" stop-color="#705AB8" stop-opacity="1" /><stop offset="1" stop-color="#FFFFFF" stop-opacity="1" /></linearGradient><linearGradient id="linear_75" x1="0%" y1="49.934469200524305%" x2="100%" y2="49.934469200524305%" gradientUnits="objectBoundingBox"><stop offset="0" stop-color="#705AB8" stop-opacity="1" /><stop offset="1" stop-color="#FFFFFF" stop-opacity="1" /></linearGradient><linearGradient id="linear_76" x1="29.72972972972866%" y1="15.00600240096031%" x2="74.51737451737387%" y2="142.737094837935%" gradientUnits="objectBoundingBox"><stop offset="0" stop-color="#BFD7FF" stop-opacity="1" /><stop offset="1" stop-color="#000000" stop-opacity="100" /></linearGradient><linearGradient id="linear_77" x1="0%" y1="50%" x2="100%" y2="50%" gradientUnits="objectBoundingBox"><stop offset="0" stop-color="#BFD7FF" stop-opacity="1" /><stop offset="1" stop-color="#000000" stop-opacity="100" /></linearGradient><linearGradient id="linear_78" x1="41.7475728155342%" y1="-139.93506493506317%" x2="55.82524271844651%" y2="205.5194805194791%" gradientUnits="objectBoundingBox"><stop offset="0" stop-color="#BFD7FF" stop-opacity="1" /><stop offset="1" stop-color="#000000" stop-opacity="100" /></linearGradient><linearGradient id="linear_79" x1="43.09133489461356%" y1="-110.3896103896082%" x2="56.79156908665119%" y2="235.06493506493223%" gradientUnits="objectBoundingBox"><stop offset="0" stop-color="#BFD7FF" stop-opacity="1" /><stop offset="1" stop-color="#000000" stop-opacity="100" /></linearGradient><linearGradient id="linear_80" x1="50%" y1="100%" x2="51%" y2="0%" gradientUnits="objectBoundingBox"><stop offset="0" stop-color="#FFFFFF" stop-opacity="1" /><stop offset="0.44" stop-color="#881DED" stop-opacity="1" /><stop offset="1" stop-color="#262262" stop-opacity="1" /></linearGradient><linearGradient id="linear_81" x1="49.999999999999666%" y1="100%" x2="50.999999999999666%" y2="0%" gradientUnits="objectBoundingBox"><stop offset="0" stop-color="#FFFFFF" stop-opacity="1" /><stop offset="0.44" stop-color="#881DED" stop-opacity="1" /><stop offset="1" stop-color="#262262" stop-opacity="1" /></linearGradient><linearGradient id="linear_82" x1="49.99999999999966%" y1="100%" x2="50.99999999999966%" y2="0%" gradientUnits="objectBoundingBox"><stop offset="0" stop-color="#FFFFFF" stop-opacity="1" /><stop offset="0.44" stop-color="#881DED" stop-opacity="1" /><stop offset="1" stop-color="#262262" stop-opacity="1" /></linearGradient><linearGradient id="linear_83" x1="50%" y1="100%" x2="51%" y2="0%" gradientUnits="objectBoundingBox"><stop offset="0" stop-color="#FFFFFF" stop-opacity="1" /><stop offset="0.44" stop-color="#881DED" stop-opacity="1" /><stop offset="1" stop-color="#262262" stop-opacity="1" /></linearGradient></defs><g opacity="1" transform="translate(-0.000012207031204525265 -0.0000013732910133512632)  rotate(0 83.53 97.44999999999999)"><path id="路径 571" fill-rule="evenodd" fill="url(#linear_0)" transform="translate(29.930000000000007 0)  rotate(0 21.78 36.47999999999999)" opacity="1" d="M3.87 72.96L0 60.8L3.84 55.97L29.83 40.29L29.83 9.95L33.13 7.57L43.56 0L43.56 51.76L3.87 72.96Z" /><path id="路径 572" fill-rule="evenodd" fill="url(#linear_1)" transform="translate(29.930000000000007 7.569999999999993)  rotate(0 16.564999999999998 26.61500000000001)" opacity="1" d="M29.83 2.38L33.13 0L33.13 34.26L0 53.23L3.84 48.4L29.83 32.72L29.83 2.38Z" /><path id="路径 573" fill-rule="evenodd" style="fill:#FFFFFF" transform="translate(63.777307995443095 3.109510387146514)  rotate(0 4.5046793356117405 15.566926691869043)" opacity="0.5" d="M1.32,31.07C2.45,31.63 8.32,28.33 8.78,27C9.24,25.67 8.98,-0.13 8.18,0C7.38,0.13 0.16,3.08 0.04,4.45C-0.13,6.4 0.19,30.51 1.32,31.07Z " /><path id="路径 574" fill-rule="evenodd" fill="url(#linear_2)" transform="translate(31.152821093683656 41.05540875146306)  rotate(0 21.177052991561624 13.958128570825181)" opacity="0.5" d="M0.05,20.79C-0.47,22.13 3.44,28.41 5.31,27.88C7.18,27.35 42.23,7.48 42.31,6.54C42.39,5.6 42.47,0.44 41.62,0.1C40.77,-0.24 33.99,0.28 32.87,1.21C29.87,3.64 0.45,19.74 0.05,20.79Z " /><path id="路径 575" fill-rule="evenodd" style="fill:#4E217D" transform="translate(29.930000000000007 6.990000000000009)  rotate(0 17.004999999999995 27.430000000000007)" opacity="1" d="M33.13 0.58L34.01 0L33.83 35.22L0 54.86L0 53.81L33.13 34.84L33.13 0.58Z" /><path id="路径 576" fill-rule="evenodd" style="fill:#FFFFFF" transform="translate(30.758379615390197 40.63520087355414)  rotate(0 15.816267505816285 9.502906756057484)" opacity="0.5" d="M3.36,16C3.36,16.44 -0.87,19.06 0.16,19C1.19,18.94 31.59,1.76 31.63,1.2C31.67,0.64 30.39,-0.07 29.36,0C27.43,0.12 3.36,15.56 3.36,16Z " /><path id="路径 577" fill-rule="evenodd" style="fill:#E6ADFF" transform="translate(29.930000000000007 42.26999999999998)  rotate(0 17.044999999999987 9.79000000000002)" opacity="1" d="M24.2,6.35C32.4,1.2 34.09,0 34.09,0L0,19.58C0,19.58 16,11.5 24.2,6.35Z " /><path id="路径 578" fill-rule="evenodd" fill="url(#linear_3)" transform="translate(56.97000000000003 28.25)  rotate(0 8.259999999999991 14.544999999999987)" opacity="0.5" d="M0 13.73L2.79 12.04L2.79 8.15L6.09 5.31L6.81 5.31L16.52 0L16.52 23.51L5.43 29.09L0 13.73Z" /><path id="路径 579" fill-rule="evenodd" fill="url(#linear_4)" transform="translate(93.36000000000001 0)  rotate(0 21.88499999999999 36.47999999999999)" opacity="1" d="M0 51.64L0 0L10.64 7.57L13.94 9.95L13.94 40.29L39.94 55.97L43.77 60.8L39.9 72.96L0 51.64Z" /><path id="路径 580" fill-rule="evenodd" fill="url(#linear_5)" transform="translate(104 7.569999999999993)  rotate(0 16.564999999999998 26.61500000000001)" opacity="1" d="M3.3 32.72L29.3 48.4L33.13 53.23L0 34.26L0 0L3.3 2.38L3.3 32.72Z" /><path id="路径 581" fill-rule="evenodd" style="fill:#FFFFFF" transform="translate(94.14330064401292 3.079706314787245)  rotate(0 4.404614046351327 15.579266094096809)" opacity="0.5" d="M0.96,0C0.2,-0.1 -0.29,25.37 0.2,26.7C0.69,28.03 6.96,31.66 8.09,31.1C9.22,30.54 8.73,6.43 8.56,4.48C8.41,3.11 1.72,0.1 0.96,0Z " /><path id="路径 582" fill-rule="evenodd" fill="url(#linear_6)" transform="translate(93.56281857403036 41.05540875146306)  rotate(0 21.172181326373476 13.958128570825181)" opacity="0.5" d="M0.73,0.1C-0.11,0.44 -0.03,5.6 0.05,6.54C0.13,7.48 35.19,27.35 37.05,27.88C38.91,28.41 42.82,22.13 42.3,20.79C41.9,19.74 12.44,3.64 9.49,1.21C8.36,0.28 1.57,-0.24 0.73,0.1Z " /><path id="路径 583" fill-rule="evenodd" style="fill:#4E217D" transform="translate(103.12 6.990000000000009)  rotate(0 17.004999999999995 27.430000000000007)" opacity="1" d="M0.88 34.84L34.01 53.81L34.01 54.86L0.19 35.22L0 0L0.88 0.58L0.88 34.84Z" /><path id="路径 584" fill-rule="evenodd" style="fill:#FFFFFF" transform="translate(104.68907131221374 40.63520087355414)  rotate(0 15.816110954190975 9.502906756057484)" opacity="0.5" d="M0,1.2C0.04,1.76 30.44,18.94 31.47,19C32.5,19.06 28.26,16.44 28.26,16C28.26,15.56 4.19,0.12 2.26,0C1.22,-0.07 -0.04,0.64 0,1.2Z " /><path id="路径 585" fill-rule="evenodd" style="fill:#E6ADFF" transform="translate(103.05000000000001 42.26999999999998)  rotate(0 17.039999999999992 9.79000000000002)" opacity="1" d="M0,0C0,0 1.7,1.2 9.89,6.35C18.08,11.5 34.08,19.58 34.08,19.58L0,0Z " /><path id="路径 586" fill-rule="evenodd" fill="url(#linear_7)" transform="translate(93.37 28.22)  rotate(0 8.280000000000001 14.559999999999988)" opacity="0.5" d="M13.93 12.07L16.56 13.76L11.13 29.12L0.04 23.54L0 0L9.75 5.34L10.46 5.34L13.93 8.18L13.93 12.07Z" /><path id="路径 587" fill-rule="evenodd" fill="url(#linear_8)" transform="translate(41.599999999999966 132.61)  rotate(0 17.920000000000016 31.129999999999995)" opacity="1" d="M0,0L0,32.69C0,32.69 21.55,54.7 35.84,62.26L35.84,14.96L0,0Z " /><path id="路径 588" fill-rule="evenodd" style="fill:#75125A" transform="translate(41.599999999999966 157.19)  rotate(0 17.920000000000016 18.839999999999975)" opacity="0.5" d="M0,0L0,8.11C0,8.11 21.55,30.12 35.84,37.68L35.84,28.15C15.52,17.05 4.95,6.29 0,0Z " /><path id="路径 589" fill-rule="evenodd" fill="url(#linear_9)" transform="translate(89.62 132.61)  rotate(0 17.919999999999987 31.129999999999995)" opacity="1" d="M0,62.26C14.3,54.7 35.84,32.69 35.84,32.69L35.84,0L0,14.96L0,62.26Z " /><path id="路径 590" fill-rule="evenodd" style="fill:#75125A" transform="translate(89.62 157.19)  rotate(0 17.919999999999987 18.839999999999975)" opacity="0.5" d="M0,37.68C14.3,30.12 35.84,8.11 35.84,8.11L35.84,0C30.87,6.29 20.33,17.05 0,28.15L0,37.68Z " /><path id="路径 591" fill-rule="evenodd" style="fill:#912774" transform="translate(41.599999999999966 132.55)  rotate(0 17.920000000000016 31.150000000000006)" opacity="0.5" d="M20.15,23.96C22.79,25.32 26.32,27.87 27.54,34.07C28.76,40.27 29.13,58.3 29.13,58.3L35.84,62.3L35.84,15L0,0L0,32.69L3.36,36.08C3.36,36.08 3.02,14.38 6.42,14.74C9.82,15.1 15.63,18.56 16.91,22.5C18.19,26.44 17.82,49.3 17.82,49.3L19.1,50.37C19.1,50.37 17.51,22.6 20.15,23.96Z " /><path id="路径 592" fill-rule="evenodd" style="fill:#912774" transform="translate(89.62 132.59999999999997)  rotate(0 17.919999999999987 31.150000000000006)" opacity="0.5" d="M4.82,59.41C4.82,59.41 4.36,39.73 5.58,33.53C6.8,27.33 18.39,18.4 21.03,17.03C23.67,15.66 23.39,44.59 23.39,44.59L25.3,42.82C25.3,42.82 25.84,32.3 25.84,28.15C25.84,24.22 25.98,11.32 29.37,10.96C32.76,10.6 32.49,36.03 32.49,36.03L35.84,32.69L35.84,0L0,15L0,62.3L4.82,59.41Z " /><path id="路径 593" fill-rule="evenodd" fill="url(#linear_10)" transform="translate(0 94.24999999999994)  rotate(0 16.64500000000001 15.041195744412448)" opacity="1" d="M33.29,0L0,0C3.19,8.35 7.31,16.31 12.27,23.74C12.27,23.74 31.76,30.52 31.89,30.06L33.29,0Z " /><path id="路径 594" fill-rule="evenodd" style="fill:#4E217D" transform="translate(6.350000000000023 94.25)  rotate(0 13.014999999999986 9.120000000000005)" opacity="1" d="M9.2,17.79L26.03,18.24L26.03,17.09C26.03,17.09 10.63,17.22 9.75,16.57C8.87,15.92 0.99,0 0.99,0L0,0C0,0 7.78,16.05 9.2,17.79Z " /><path id="路径 595" fill-rule="evenodd" style="fill:#E6ADFF" transform="translate(6.350000000000023 94.25)  rotate(0 4.599999999999994 8.89500000000001)" opacity="1" d="M3.78,8.89C5.39,11.97 7.2,14.94 9.2,17.79L0,0C0,0 1.73,4.77 3.78,8.89Z " /><path id="路径 596" fill-rule="evenodd" style="fill:#FFFFFF" transform="translate(8.71946701506721 94.53635607160038)  rotate(0 11.787280645751508 6.676821964199803)" opacity="0.5" d="M7.49,13.35C8.56,13.35 20.9,13.13 22.04,11.35C23.18,9.57 24.15,0.97 23.17,0.8C22.19,0.63 -0.56,-0.92 0.01,0.8C1.3,4.63 6.42,13.35 7.49,13.35Z " /><path id="路径 597" fill-rule="evenodd" style="fill:#FFFFFF" transform="translate(1.0691894694173243 94.43969219047614)  rotate(0 5.230664768766502 7.028517873086912)" opacity="0.5" d="M6.84,13.92C7.65,14.03 10.42,14.38 10.46,13.23C10.52,11.4 5.36,0.72 4.21,0.47C3.06,0.22 -0.36,-0.45 0.03,0.47C1.61,4.24 6.03,13.81 6.84,13.92Z " /><path id="路径 598" fill-rule="evenodd" fill="url(#linear_11)" transform="translate(8.716752939103287 108.22768525117846)  rotate(0 11.385975056488775 6.944818480845839)" opacity="0.5" d="M5,9.19C5.71,9.68 20.69,14.51 21.68,13.82C22.67,13.13 23.18,0.5 22.36,0.14C21.54,-0.22 0.17,0.07 0,1.39C-0.14,2.57 4.29,8.7 5,9.19Z " /><path id="路径 599" fill-rule="evenodd" fill="url(#linear_12)" transform="translate(22.100000000000023 94.25)  rotate(0 5.594999999999999 15.030000000000001)" opacity="0.5" d="M2.11,27.8L9.79,30.06L11.19,0L0,0C1.61,9.18 2.31,18.49 2.11,27.8Z " /><path id="路径 600" fill-rule="evenodd" fill="url(#linear_13)" transform="translate(133.77000000000004 94.24999999999994)  rotate(0 16.644999999999982 15.041195744412448)" opacity="1" d="M21.03,23.74C25.99,16.31 30.1,8.35 33.29,0L0,0L1.4,30.06C1.54,30.52 21.03,23.74 21.03,23.74Z " /><path id="路径 601" fill-rule="evenodd" style="fill:#4E217D" transform="translate(134.68000000000006 94.25)  rotate(0 13.014999999999986 9.120000000000005)" opacity="1" d="M25.05,0C25.05,0 17.17,15.92 16.29,16.57C15.41,17.22 0,17.09 0,17.09L0,18.24L16.83,17.79C18.26,16.05 26.03,0 26.03,0L25.05,0Z " /><path id="路径 602" fill-rule="evenodd" style="fill:#E6ADFF" transform="translate(151.55 94.25)  rotate(0 4.5800000000000125 8.89500000000001)" opacity="1" d="M0,17.79C2,14.94 3.81,11.97 5.42,8.89C6.82,5.99 8.06,3.02 9.16,0L0,17.79Z " /><path id="路径 603" fill-rule="evenodd" style="fill:#FFFFFF" transform="translate(134.7659716934299 94.53635607160038)  rotate(0 11.78728064575148 6.676821964199803)" opacity="0.5" d="M0.4,0.8C-0.58,0.97 0.39,9.57 1.53,11.35C2.67,13.13 15.03,13.35 16.09,13.35C17.15,13.35 22.27,4.63 23.56,0.8C24.13,-0.92 1.38,0.63 0.4,0.8Z " /><path id="路径 604" fill-rule="evenodd" style="fill:#FFFFFF" transform="translate(155.53929452897813 94.43969219047614)  rotate(0 5.230716766573437 7.028517873086912)" opacity="0.5" d="M6.24,0.47C5.09,0.72 -0.07,11.4 0,13.23C0.04,14.38 2.79,14.03 3.61,13.92C4.43,13.81 8.84,4.24 10.43,0.47C10.82,-0.45 7.39,0.22 6.24,0.47Z " /><path id="路径 605" fill-rule="evenodd" fill="url(#linear_14)" transform="translate(135.5836444954079 108.22768525117846)  rotate(0 11.38003861995631 6.944818480845839)" opacity="0.5" d="M0.41,0.14C-0.41,0.5 0.11,13.13 1.09,13.82C2.07,14.51 17.04,9.68 17.76,9.19C18.48,8.7 22.91,2.57 22.76,1.39C22.6,0.07 1.23,-0.22 0.41,0.14Z " /><path id="路径 606" fill-rule="evenodd" fill="url(#linear_15)" transform="translate(133.77000000000004 94.25)  rotate(0 5.594999999999999 15.030000000000001)" opacity="0.5" d="M0,0L1.4,30.06L9.08,27.8C8.88,18.49 9.58,9.18 11.19,0L0,0Z " /><path id="路径 607" fill-rule="evenodd" fill="url(#linear_16)" transform="translate(29.25 24.74000000000001)  rotate(0 54.5 69.005)" opacity="1" d="M54.5 138.01L0 106.54L0 31.47L54.5 0L109 31.47L109 106.54L54.5 138.01Z" /><path id="路径 608" fill-rule="evenodd" fill="url(#linear_17)" transform="translate(39.10000000000002 36.120000000000005)  rotate(0 44.64499999999998 57.625)" opacity="1" d="M89.29 89.47L44.65 115.25L0 89.47L0 25.78L44.65 0L89.29 25.78L89.29 89.47Z" /><path id="路径 609" fill-rule="evenodd" fill="url(#linear_18)" transform="translate(42.389999999999986 39.91999999999999)  rotate(0 41.360000000000014 53.825)" opacity="1" d="M82.72 83.77L41.36 107.65L0 83.77L0 23.88L41.36 0L82.72 23.88L82.72 83.77Z" /><path id="路径 610" fill-rule="evenodd" style="fill:#FFFFFF" transform="translate(30.555233775818124 26.180000000000035)  rotate(0 26.412516700954 17.012609417620766)" opacity="0.5" d="M9.25,33.84C13.33,32.95 51.68,10.45 52.61,8.43C52.87,7.87 52.91,0 52.61,0C51.26,0.01 0.38,29.24 0.05,30.23C-0.63,32.23 5.17,34.73 9.25,33.84Z " /><path id="路径 611" fill-rule="evenodd" style="fill:#FFFFFF" transform="translate(83.4721196416503 26.180000000000035)  rotate(0 26.6013232912658 17.012609417620766)" opacity="0.5" d="M0.59,0C-0.3,0 -0.08,7.5 0.59,8.43C1.88,10.24 39.87,32.95 43.95,33.84C48.03,34.73 53.83,32.23 53.15,30.23C52.82,29.24 1.94,0.01 0.59,0Z " /><path id="路径 612" fill-rule="evenodd" fill="url(#linear_19)" transform="translate(29.901112124899953 97.52232654643689)  rotate(0 4.219548195762627 16.23813405533062)" opacity="0.5" d="M0.65,32.47C1.91,32.69 7.82,28.63 8.15,26.77C8.48,24.91 8.59,5.42 8.15,3.55C7.71,1.68 1.26,-2.16 0.65,1.58C0.29,3.83 -0.61,32.25 0.65,32.47Z " /><path id="路径 613" fill-rule="evenodd" fill="url(#linear_20)" transform="translate(128.93979148357477 97.52232654643689)  rotate(0 4.2195481957626555 16.23813405533062)" opacity="0.5" d="M0.29,3.55C-0.15,5.42 -0.04,24.91 0.29,26.77C0.62,28.63 6.53,32.69 7.79,32.47C9.05,32.25 8.15,3.83 7.79,1.58C7.18,-2.16 0.73,1.68 0.29,3.55Z " /><path id="路径 614" fill-rule="evenodd" fill="url(#linear_21)" transform="translate(31.87321797394725 127.2220936191959)  rotate(0 25.698391013026395 16.768953190402044)" opacity="0.5" d="M50.53,33.54C50.9,33.54 51.4,26.33 51.4,25.54C51.4,23.29 7.99,0.24 7.23,0.03C6.11,-0.31 -0.62,2.55 0.05,3.54C0.71,4.54 49.79,33.54 50.53,33.54Z " /><path id="路径 615" fill-rule="evenodd" fill="url(#linear_22)" transform="translate(84.15185595567874 127.21004364072809)  rotate(0 25.776469876370243 17.09997817963594)" opacity="0.5" d="M44.01,0.02C43.27,0.23 1.86,23.31 0.27,24.9C-0.06,25.2 -0.05,34.2 0.11,34.2C0.85,34.2 50.85,5.31 51.51,4.31C52.18,3.32 45.13,-0.3 44.01,0.02Z " /><path id="路径 616" fill-rule="evenodd" fill="url(#linear_23)" transform="translate(43.16208479457265 78.26110889002956)  rotate(0 40.47537457037129 33.76448833576879)" opacity="0.5" d="M40.59,67.53C43.55,67.48 79.51,46.83 80.2,45C80.89,43.17 81.95,9.76 78.89,1.93C75.83,-5.9 40.99,12.18 20.41,19.19C-0.17,26.2 -1.8,27.24 1.12,43.84C1.45,45.7 37.63,67.58 40.59,67.53Z " /><path id="路径 617" fill-rule="evenodd" style="fill:#FFFFFF" transform="translate(43.57714941857512 42.56911548949756)  rotate(0 40.700905662162995 29.985114695064823)" opacity="0.3" d="M40.42,0C38.31,0.16 12.42,12.33 1.7,21.54C-1.15,23.99 -0.11,60.64 2.52,59.96C5.15,59.28 7.11,44.48 36.03,36.16C64.51,27.96 76.9,35.05 80.03,36.32C80.87,36.7 82.29,22.04 80.63,21.62C79.91,21.44 42.53,-0.16 40.42,0Z " /><path id="路径 618" fill-rule="evenodd" fill="url(#linear_24)" transform="translate(39.10000000000002 36.119999999999976)  rotate(0 44.64499999999998 44.735)" opacity="0.5" d="M44.65,0L0,25.78L0,89.47L3.29,87.57C3.29,87.57 3.02,32.13 4.12,30.36C7.45,25.07 36.9,12.57 42.32,10.89C47.74,9.21 80.77,24.28 85.01,30.47C86.2,32.21 86.01,87.57 86.01,87.57L89.29,89.47L89.29,25.78L44.65,0Z " /><path id="路径 619" fill-rule="evenodd" style="fill:#FFFFFF" transform="translate(90.84921459708318 55.10984524333446)  rotate(0 16.11461242347005 10.077367172648025)" opacity="0.2" d="M30.65,19.68C32.18,18.72 33.2,11.57 30.79,10.37C28.38,9.17 9.3,-1 4.26,0.08C-0.78,1.16 -0.73,14.59 1.24,15.48C12.36,20.55 29.12,20.64 30.65,19.68Z " /><path id="路径 620" fill-rule="evenodd" fill="url(#linear_25)" transform="translate(29.25 24.74000000000001)  rotate(0 37.715 27.169999999999987)" opacity="1" d="M75.43 12.09C75.43 12.09 56.26 1.04 54.81 1.44C53.36 1.84 2.25 30.17 1.36 31.67C0.47 33.17 0 54.17 0 54.34L0 31.45L54.5 0L75.43 12.09Z" /><path id="路径 621" fill-rule="evenodd" style="fill:#E6ADFF" transform="translate(103.25 47.389999999999986)  rotate(0 12.621111111111105 28.924999999999983)" opacity="1" d="M24.27,15.15C24.6,16.68 25.14,57.85 25.14,57.85C25.14,57.85 25.37,16.26 25.14,14.51C24.91,12.76 0,0 0,0C0,0 23.94,13.62 24.27,15.15Z " /><path id="路径 622" fill-rule="evenodd" style="fill:#E6ADFF" transform="translate(38.59695031119276 36.120000000000005)  rotate(0 22.55652484440364 30.340000000000003)" opacity="1" d="M1.11,26.2C2.01,24.64 45.11,0 45.11,0C45.11,0 0.51,24.01 0.11,25.13C-0.29,26.25 0.5,60.68 0.5,60.68C0.5,60.68 0.21,27.76 1.11,26.2Z " /><path id="路径 623" fill-rule="evenodd" fill="url(#linear_26)" transform="translate(29.24999773870769 92.99000000000001)  rotate(0 54.500001130646154 34.87999999999997)" opacity="1" d="M109 38.29L54.5 69.76L0 38.29L0 0.05C0 1.56 0.02 35.07 1.3 37C2.61 38.97 52.53 68.64 55.01 68.42C57.49 68.2 106.32 39.85 107.43 37.99C108.54 36.13 109 21.2 109 21.2L109 38.29Z" /><path id="路径 624" fill-rule="evenodd" style="fill:#E6ADFF" transform="translate(38.570699432892354 109.29000000000002)  rotate(0 11.594650283553847 14.689999999999998)" opacity="1" d="M0.04,16.75C0.25,17.52 23.19,29.38 23.19,29.38C23.19,29.38 2,17.15 1.19,15.92C0.38,14.69 0.53,0 0.53,0C0.53,0 -0.17,15.98 0.04,16.75Z " /><path id="路径 625" fill-rule="evenodd" style="fill:#FFFFFF" transform="translate(52.274476527851505 138.96997561684412)  rotate(0 15.83736659393162 10.627747101884353)" opacity="0.5" d="M0.14,2.87C0.93,3.73 27.94,20.11 31.01,21.24C32.01,21.61 31.91,15.24 30.57,13.16C29.98,12.27 10.28,-0.02 5.28,0C3.67,0 -0.83,1.81 0.14,2.87Z " /><path id="路径 626" fill-rule="evenodd" style="fill:#FFFFFF" transform="translate(102.69942001605887 37.078835306098085)  rotate(0 4.765319261535893 3.2487176994443985)" opacity="1" d="M5.39,6.4C7.48,6.89 10.31,5.4 9.33,4.4C8.35,3.4 2.26,-0.49 0.24,0.05C-1.07,0.41 3.3,5.91 5.39,6.4Z " /><path id="路径 627" fill-rule="evenodd" style="fill:#FFFFFF" transform="translate(112.04890783939362 42.55360030943899)  rotate(0 9.49326187896267 6.794387822163458)" opacity="1" d="M3.82,10.82C5.38,12.37 19.3,15.08 18.98,12.57C18.66,10.06 3.37,-0.7 0.58,0.04C-1.42,0.57 2.26,9.27 3.82,10.82Z " /><path id="路径 628" fill-rule="evenodd" fill="url(#linear_27)" transform="translate(108.02368689119305 127.87540327718904)  rotate(0 12.865171626708559 9.707321863828753)" opacity="0.5" d="M0.53,19.41C1.2,19.44 25.02,5.1 25.67,4.47C26.32,3.84 21.85,-0.28 20.01,0.01C18.17,0.3 1.3,9.31 0.86,11.23C-0.31,16.36 -0.14,19.38 0.53,19.41Z " /><path id="路径 629" fill-rule="evenodd" fill="url(#linear_28)" transform="translate(39.30745660914863 62.09125963439777)  rotate(0 1.4135110583995072 19.575118240470573)" opacity="0.5" d="M0.19,1.48C0.03,3.41 -0.25,39.09 0.45,39.15C1.15,39.21 2.63,37.45 2.69,36.63C2.75,35.81 2.96,2.1 2.69,1.27C2.11,-0.46 0.35,-0.45 0.19,1.48Z " /><path id="路径 630" fill-rule="evenodd" fill="url(#linear_29)" transform="translate(125.3302688387879 62.66625661331341)  rotate(0 1.3148655806060674 17.64187169334329)" opacity="0.5" d="M0.22,35.28C0.66,35.28 2.63,33.7 2.63,32.87C2.63,32.04 2.13,0.2 1.91,0.03C1.69,-0.14 0.22,0.36 0.22,0.91C0.12,1.59 -0.22,35.28 0.22,35.28Z " /><path id="路径 631" fill-rule="evenodd" fill="url(#linear_30)" transform="translate(63.832933035711505 36.401039814331625)  rotate(0 9.9829616106081 7.294480092834192)" opacity="0.5" d="M19.92,0.01C19.78,-0.36 1.21,10.85 0.59,11.22C-0.03,11.59 -0.19,14.59 0.26,14.59C0.71,14.59 19.92,3.63 19.92,2.96C19.98,1.98 19.98,0.99 19.92,0.01Z " /><path id="路径 632" fill-rule="evenodd" style="fill:#4E217D" transform="translate(118.31347807886021 128.19)  rotate(0 2.6444475557702276 2.750242119276777)" opacity="1" d="M0.02,3.54C0.33,4.72 2.87,5.99 3.54,5.31C4.21,4.63 5.88,0 5.08,0C3.85,0 -0.29,2.36 0.02,3.54Z " /><path id="路径 633" fill-rule="evenodd" style="fill:#4E217D" transform="translate(124.13186681943165 128.81659437823004)  rotate(0 1.7380948818064894 1.3777572570045606)" opacity="1" d="M0.37,2.6C1.25,3.28 3.82,1.49 3.44,0.97C3.06,0.45 1.42,-0.35 0.83,0.16C0.41,0.54 -0.51,1.92 0.37,2.6Z " /><path id="路径 634" fill-rule="evenodd" fill="url(#linear_31)" transform="translate(118.7857879944442 128.14573059607716)  rotate(0 2.425821880457704 2.0144167351280373)" opacity="0.5" d="M3.86,3.49C4.4,2.32 5.28,-0.12 4.6,0C3.92,0.12 0.76,1.6 0.15,2.36C-0.85,3.74 3.32,4.66 3.86,3.49Z " /><path id="路径 635" fill-rule="evenodd" style="fill:#DAE1EF" transform="translate(118.32340212140309 131.35000000000002)  rotate(0 1.8382989392984541 1.2428545297634344)" opacity="1" d="M1.68 2.31C2.23 2.59 2.89 2.53 3.38 2.18C3.51 2.11 3.61 2.02 3.68 1.91C3.59 2.01 3.49 2.1 3.38 2.18C3 2.37 2.35 2.33 1.61 1.91C0.87 1.48 0.31 0.8 0.03 0C0.03 0 -0.34 1.4 1.68 2.31Z" /><path id="路径 636" fill-rule="evenodd" fill="url(#linear_32)" transform="translate(124.97211245427172 128.95666666666665)  rotate(0 1.317616732282346 1.2332128050867937)" opacity="0.5" d="M0.78,2.46C1.31,2.38 2.9,1.33 2.6,0.83C2.3,0.33 0.67,-0.17 0.46,0.05C-0.49,1.05 0.25,2.54 0.78,2.46Z " /><path id="路径 637" fill-rule="evenodd" style="fill:#DAE1EF" transform="translate(123.93169816628614 128.98000000000002)  rotate(0 0.6791509168569689 1.4116343490304928)" opacity="1" d="M0.02,2.45C0.23,3.22 1.36,2.56 1.36,2.56C1.36,2.56 0.86,2.57 0.51,1.88C0.16,1.19 1.03,0 1.03,0C0.29,0.59 -0.09,1.51 0.02,2.45Z " /><path id="路径 638" fill-rule="evenodd" style="fill:#4E217D" transform="translate(70.87641699108002 38.812709542751065)  rotate(0 3.725589898820317 2.4185140894256563)" opacity="1" d="M0.66,2.77C-0.63,4.23 0.09,5.1 1.71,4.77C3.33,4.44 8.49,0.51 7.26,0.18C4.32,-0.59 1.95,1.31 0.66,2.77Z " /><path id="路径 639" fill-rule="evenodd" fill="url(#linear_33)" transform="translate(72.63377680450702 38.8009229568668)  rotate(0 2.830165193921289 1.923477512591532)" opacity="0.5" d="M0.22,1.53C-0.57,2.23 0.98,4.21 2.05,3.79C3.12,3.37 6.41,0.5 5.51,0.19C3.51,-0.49 1.01,0.83 0.22,1.53Z " /><path id="路径 640" fill-rule="evenodd" style="fill:#E6ADFF" transform="translate(69.2582692561765 40.81999999999999)  rotate(0 2.185865371911774 1.7867660037142343)" opacity="1" d="M0.02,3.25C0.34,4.33 4.37,2.36 4.37,2.36C4.37,2.36 2.31,3.04 1.84,2.12C1.37,1.2 3.02,0 3.02,0C3.02,0 -0.3,2.17 0.02,3.25Z " /><path id="路径 641" fill-rule="evenodd" style="fill:#E6ADFF" transform="translate(40.68205371806681 126.00075929293774)  rotate(0 2.4797554279498115 1.8829404657421946)" opacity="1" d="M4.49,3.76C5.59,3.92 4.49,1.14 3.97,0.66C2.83,0.13 1.57,-0.08 0.32,0.03C-1.24,0.42 3.39,3.6 4.49,3.76Z " /><path id="路径 642" fill-rule="evenodd" fill="url(#linear_34)" transform="translate(24.759999999999934 96.27000000000004)  rotate(0 58.775000000000006 23.95999999999998)" opacity="1" d="M0 9.62C0.45 6.31 1.36 3.08 2.68 0.01L58.94 32.82L115.55 0C116.77 3.06 117.45 6.31 117.55 9.61L114.22 15.82L58.94 47.92L3.67 15.83L0 9.62Z" /><path id="路径 643" fill-rule="evenodd" fill="url(#linear_35)" transform="translate(24.75999999999999 105.88999999999999)  rotate(0 58.775000000000006 19.155)" opacity="1" d="M114.22 6.21L58.94 38.31L3.67 6.21L0 0L58.94 34.53L117.55 0L114.22 6.21Z" /><path id="路径 644" fill-rule="evenodd" fill="url(#linear_36)" transform="translate(24.75999999999999 105.84999999999997)  rotate(0 58.785 20.840000000000003)" opacity="0.5" d="M17.75,17.61C17.75,17.61 57.57,41.68 59.01,41.68C60.86,41.68 100.37,17.07 100.37,17.07C100.37,17.07 103.44,14.49 103.75,14.31L113.51,9.2L113.51,6.63L114.24,6.21L117.57,0L58.96,34.53L0,0.04L3.67,6.25L4.51,6.76L4.51,8.61C4.51,8.61 7.66,10.22 13.86,13.61C14.07,13.73 17.75,17.61 17.75,17.61Z " /><path id="路径 645" fill-rule="evenodd" fill="url(#linear_37)" transform="translate(83.69999999999999 96.27999999999992)  rotate(0 29.305000000000007 22.07000000000002)" opacity="0.5" d="M0,44.14L58.61,9.61C58.61,9.61 58.37,3.93 56.61,0L0,32.81L0,44.14Z " /><path id="路径 646" fill-rule="evenodd" style="fill:#FFFFFF" transform="translate(29.902281363831435 98.76999999999998)  rotate(0 21.62780633066788 16.860000000000014)" opacity="0.5" d="M3.51,11.72C8.71,15.2 40.02,33.65 42.07,33.72C43.49,33.72 43.41,25.64 42.99,25.01C42.18,23.78 2.04,0 0.44,0C-0.64,0 0.24,9.53 3.51,11.72Z " /><path id="路径 647" fill-rule="evenodd" style="fill:#FFFFFF" transform="translate(100.67621459832901 98.79635417396173)  rotate(0 18.314548199725408 14.92961569189174)" opacity="0.5" d="M1,29.85C2.16,29.59 19.86,20.13 28.21,14C36.56,7.87 37.73,-0.2 35.85,0C35.87,-0.03 1.87,19.06 0.42,20.5C-0.26,21.21 -0.16,30.11 1,29.85Z " /><path id="路径 648" fill-rule="evenodd" style="fill:#E6ADFF" transform="translate(55.04000000000002 123.63)  rotate(0 25.950000000000017 8.710000000000008)" opacity="1" d="M28.71,17.42C29.32,17.42 51.9,3.1 51.9,3.1C51.9,3.1 30.38,16.16 28.66,16.16C26.94,16.16 0,0 0,0C0,0 28.1,17.42 28.71,17.42Z " /><path id="路径 649" fill-rule="evenodd" fill="url(#linear_38)" transform="translate(24.75999999999999 77.90999999999997)  rotate(0 58.77499999999998 23.960000000000008)" opacity="1" d="M114.22 15.81L58.94 47.92L3.67 15.81L0 9.61C0.45 6.3 1.35 3.07 2.68 0L58.94 32.81L115.55 0C116.77 3.06 117.45 6.31 117.55 9.61L114.22 15.81Z" /><path id="路径 650" fill-rule="evenodd" fill="url(#linear_39)" transform="translate(24.75999999999999 87.51999999999998)  rotate(0 58.775000000000006 19.155)" opacity="1" d="M114.22 6.2L58.94 38.31L3.67 6.2L0 0L58.94 34.53L117.55 0L114.22 6.2Z" /><path id="路径 651" fill-rule="evenodd" fill="url(#linear_40)" transform="translate(24.75999999999999 87.51999999999998)  rotate(0 58.775000000000006 20.835000000000008)" opacity="0.5" d="M3.67,6.2L4.51,6.72L4.51,8.57C4.51,8.57 7.66,10.17 13.86,13.57C14.07,13.68 17.75,17.57 17.75,17.57C17.75,17.57 57.55,41.67 58.99,41.67C60.84,41.67 100.35,17.06 100.35,17.06C100.35,17.06 103.42,14.47 103.73,14.29L113.49,9.19L113.49,6.67L114.22,6.24L117.55,0.04L58.94,34.57L0,0L3.67,6.2Z " /><path id="路径 652" fill-rule="evenodd" fill="url(#linear_41)" transform="translate(83.69999999999999 77.90999999999991)  rotate(0 29.305000000000007 22.07000000000002)" opacity="0.5" d="M0,44.14L58.61,9.61C58.61,9.61 58.37,3.93 56.61,0L0,32.81L0,44.14Z " /><path id="路径 653" fill-rule="evenodd" style="fill:#FFFFFF" transform="translate(29.902281363831435 80.39999999999998)  rotate(0 21.62780633066788 16.85499999999999)" opacity="0.5" d="M3.51,11.71C8.71,15.19 40.02,33.65 42.07,33.71C43.49,33.71 43.41,25.63 42.99,25C42.18,23.79 2.04,0 0.44,0C-0.64,0 0.24,9.52 3.51,11.71Z " /><path id="路径 654" fill-rule="evenodd" style="fill:#FFFFFF" transform="translate(100.67621459832901 80.42598919853202)  rotate(0 18.314548199725408 14.925011589352408)" opacity="0.5" d="M1,29.84C2.16,29.57 19.86,20.13 28.21,14C36.56,7.87 37.73,-0.21 35.85,0C35.87,-0.03 1.87,19.06 0.42,20.5C-0.26,21.2 -0.16,30.11 1,29.84Z " /><path id="路径 655" fill-rule="evenodd" style="fill:#E6ADFF" transform="translate(55.04000000000002 105.25999999999999)  rotate(0 25.950000000000017 8.704999999999984)" opacity="1" d="M28.71,17.41C29.32,17.41 51.9,3.1 51.9,3.1C51.9,3.1 30.38,16.15 28.66,16.15C26.94,16.15 0,0 0,0C0,0 28.1,17.41 28.71,17.41Z " /><path id="路径 656" fill-rule="evenodd" fill="url(#linear_42)" transform="translate(64.29000000000002 63.06999999999999)  rotate(0 19.549999999999983 18.595)" opacity="0.5" d="M39.1 14.21L29.32 23.74L31.63 37.19L19.55 30.84L7.46 37.19L9.77 23.74L0 14.21L13.51 12.24L19.55 0L25.59 12.24L39.1 14.21Z" /><path id="路径 657" fill-rule="evenodd" fill="url(#linear_43)" transform="translate(65.69999999999999 64.56)  rotate(0 18.140000000000015 17.25)" opacity="1" d="M29.35 34.5L18.14 28.61L6.93 34.5L9.07 22.02L0 13.18L12.53 11.36L18.14 0L23.74 11.36L27.98 11.97L29.76 12.23L36.28 13.18L27.21 22.02L29.35 34.5Z" /><path id="路径 658" fill-rule="evenodd" fill="url(#linear_44)" transform="translate(65.63 77.74000000000001)  rotate(0 9.235000000000014 4.4199999999999875)" opacity="0.5" d="M18.47 4.82L9.07 8.84L0 0L18.47 4.82Z" /><path id="路径 659" fill-rule="evenodd" fill="url(#linear_45)" transform="translate(84.10000000000002 77.74000000000001)  rotate(0 8.909999999999997 4.4199999999999875)" opacity="0.5" d="M17.82 0L8.75 8.84L0 4.82L17.82 0Z" /><path id="路径 660" fill-rule="evenodd" fill="url(#linear_46)" transform="translate(72.56 82.56)  rotate(0 5.77000000000001 8.25)" opacity="0.5" d="M11.22 10.61L0 16.5L11.54 0L11.22 10.61Z" /><path id="路径 661" fill-rule="evenodd" fill="url(#linear_47)" transform="translate(83.78000000000003 82.56)  rotate(0 5.60499999999999 8.25)" opacity="0.5" d="M11.21 16.5L0 10.61L0.32 0L11.21 16.5Z" /><path id="路径 662" fill-rule="evenodd" fill="url(#linear_48)" transform="translate(83.78000000000003 64.56)  rotate(0 2.799999999999983 9)" opacity="0.5" d="M0 0L5.6 11.36L0.32 18L0 0Z" /><path id="路径 663" fill-rule="evenodd" fill="url(#linear_49)" transform="translate(84.10000000000002 75.92000000000002)  rotate(0 8.909999999999997 3.319999999999993)" opacity="0.5" d="M0 6.64L5.28 0L17.82 1.82L0 6.64Z" /><path id="路径 664" fill-rule="evenodd" fill="url(#linear_50)" transform="translate(84.10000000000002 75.92000000000002)  rotate(0 8.909999999999997 3.319999999999993)" opacity="0.5" d="M0 6.64L5.28 0L17.82 1.82L0 6.64Z" /><path id="路径 665" fill-rule="evenodd" fill="url(#linear_51)" transform="translate(65.63 75.92000000000002)  rotate(0 9.235000000000014 3.319999999999993)" opacity="0.5" d="M18.47 6.64L0 1.82L12.54 0L18.47 6.64Z" /><path id="路径 666" fill-rule="evenodd" style="fill:#FFFFFF" transform="translate(88.92696433389943 79.05666666666667)  rotate(0 2.556517833050293 1.056666666666672)" opacity="0.8" d="M0.31,2.11L5.11,0.81C5.11,0.81 2.62,-1.02 0.45,0.81C-0.48,1.59 0.31,2.11 0.31,2.11Z " /><path id="路径 667" fill-rule="evenodd" fill="url(#linear_52)" transform="translate(72.63 93.19)  rotate(0 11.20999999999998 2.9350000000000023)" opacity="0.5" d="M11.21,0.75L22.42,5.87L11.21,0L0,5.87C0,5.87 8.5,1.87 11.21,0.75Z " /><path id="路径 668" fill-rule="evenodd" fill="url(#linear_53)" transform="translate(65.63 77.74000000000001)  rotate(0 9.235000000000014 6.775000000000006)" opacity="0.5" d="M18.47 4.82L8.33 13.55L0 0L18.47 4.82Z" /><path id="路径 669" fill-rule="evenodd" fill="url(#linear_54)" transform="translate(84.10000000000002 77.74000000000001)  rotate(0 8.909999999999997 7.35499999999999)" opacity="0.5" d="M17.82 0L9.82 14.71L0 4.82L17.82 0Z" /><path id="路径 670" fill-rule="evenodd" fill="url(#linear_55)" transform="translate(72.63 82.56)  rotate(0 11.210000000000008 8.25)" opacity="0.5" d="M22.42 16.5L11.21 14.73L0 16.5L11.47 0L22.42 16.5Z" /><path id="路径 671" fill-rule="evenodd" style="fill:#F7FFFF" transform="translate(79.46945056554478 70.93808873893676)  rotate(0 2.2590457897879332 3.9276805114806734)" opacity="0.4" d="M4.2,7.61C4.85,6.59 4.42,0.91 3.65,0.15C2.88,-0.61 0.68,1.66 0.2,3.01C-1,6.32 3.55,8.63 4.2,7.61Z " /><path id="路径 672" fill-rule="evenodd" style="fill:#F7FFFF" transform="translate(74.78029750726051 85.79407266197313)  rotate(0 2.7451279042550993 2.561542201748779)" opacity="0.4" d="M5.44,0.79C6.26,-2.26 -3.23,4.51 1.17,5.1C3.58,5.43 4.94,2.68 5.44,0.79Z " /><path id="路径 673" fill-rule="evenodd" fill="url(#linear_56)" transform="translate(48.650000000000034 57.339999999999975)  rotate(0 9.099999999999994 8.655000000000001)" opacity="0.5" d="M18.2 6.61L13.65 11.05L14.72 17.31L9.1 14.35L3.48 17.31L4.55 11.05L0 6.61L6.29 5.7L9.1 0L11.91 5.7L18.2 6.61Z" /><path id="路径 674" fill-rule="evenodd" fill="url(#linear_57)" transform="translate(49.360000000000014 58.089999999999975)  rotate(0 8.389999999999986 7.980000000000018)" opacity="1" d="M12.58 10.18L13.57 15.96L8.39 13.23L3.2 15.96L4.19 10.18L0 6.09L5.8 5.25L8.39 0L10.98 5.25L12.94 5.53L13.76 5.65L16.78 6.09L12.58 10.18Z" /><path id="路径 675" fill-rule="evenodd" fill="url(#linear_58)" transform="translate(49.329999999999984 64.18)  rotate(0 4.27000000000001 2.0449999999999875)" opacity="0.5" d="M8.54 2.24L4.19 4.09L0 0L8.54 2.24Z" /><path id="路径 676" fill-rule="evenodd" fill="url(#linear_59)" transform="translate(57.870000000000005 64.18)  rotate(0 4.1200000000000045 2.0449999999999875)" opacity="0.5" d="M8.24 0L4.05 4.09L0 2.24L8.24 0Z" /><path id="路径 677" fill-rule="evenodd" fill="url(#linear_60)" transform="translate(52.53000000000003 66.42000000000002)  rotate(0 2.6699999999999875 3.8149999999999977)" opacity="0.5" d="M5.19 4.9L0 7.63L5.34 0L5.19 4.9Z" /><path id="路径 678" fill-rule="evenodd" fill="url(#linear_61)" transform="translate(57.72000000000003 66.42000000000002)  rotate(0 2.594999999999999 3.8149999999999977)" opacity="0.5" d="M5.19 7.63L0 4.9L0.15 0L5.19 7.63Z" /><path id="路径 679" fill-rule="evenodd" fill="url(#linear_62)" transform="translate(57.72000000000003 58.089999999999975)  rotate(0 1.2949999999999875 4.1650000000000205)" opacity="0.5" d="M0 0L2.59 5.25L0.15 8.33L0 0Z" /><path id="路径 680" fill-rule="evenodd" fill="url(#linear_63)" transform="translate(57.870000000000005 63.339999999999975)  rotate(0 4.1200000000000045 1.5400000000000205)" opacity="0.5" d="M0 3.08L2.44 0L8.24 0.84L0 3.08Z" /><path id="路径 681" fill-rule="evenodd" fill="url(#linear_64)" transform="translate(57.870000000000005 63.339999999999975)  rotate(0 4.1200000000000045 1.5400000000000205)" opacity="0.5" d="M0 3.08L2.44 0L8.24 0.84L0 3.08Z" /><path id="路径 682" fill-rule="evenodd" fill="url(#linear_65)" transform="translate(49.329999999999984 63.339999999999975)  rotate(0 4.27000000000001 1.5400000000000205)" opacity="0.5" d="M8.54 3.08L0 0.84L5.8 0L8.54 3.08Z" /><path id="路径 683" fill-rule="evenodd" style="fill:#FFFFFF" transform="translate(60.1019891883995 64.8324806367039)  rotate(0 1.1840054058002636 0.47875968164805727)" opacity="0.8" d="M0.15,0.96L2.37,0.36C1.73,-0.12 0.85,-0.12 0.21,0.36C-0.22,0.72 0.15,0.96 0.15,0.96Z " /><path id="路径 684" fill-rule="evenodd" fill="url(#linear_66)" transform="translate(52.55000000000001 71.32)  rotate(0 5.189999999999998 1.365000000000009)" opacity="0.5" d="M5.19,0.36L10.38,2.73L5.19,0L0,2.73C0,2.73 3.94,0.87 5.19,0.36Z " /><path id="路径 685" fill-rule="evenodd" fill="url(#linear_67)" transform="translate(49.329999999999984 64.18)  rotate(0 4.27000000000001 3.134999999999991)" opacity="0.5" d="M8.54 2.24L3.85 6.27L0 0L8.54 2.24Z" /><path id="路径 686" fill-rule="evenodd" fill="url(#linear_68)" transform="translate(57.870000000000005 64.18)  rotate(0 4.1200000000000045 3.405000000000001)" opacity="0.5" d="M8.24 0L4.54 6.81L0 2.24L8.24 0Z" /><path id="路径 687" fill-rule="evenodd" fill="url(#linear_69)" transform="translate(52.56 66.42000000000002)  rotate(0 5.185000000000002 3.8149999999999977)" opacity="0.5" d="M10.37 7.63L5.19 6.81L0 7.63L5.31 0L10.37 7.63Z" /><path id="路径 688" fill-rule="evenodd" style="fill:#F7FFFF" transform="translate(55.728590386909275 61.0366857383832)  rotate(0 1.0256839096235524 1.8175394203277904)" opacity="0.4" d="M1.92,3.52C2.16,2.37 2.07,1.18 1.67,0.07C1.31,-0.29 0.31,0.76 0.09,1.39C-0.46,2.92 1.64,3.99 1.92,3.52Z " /><path id="路径 689" fill-rule="evenodd" style="fill:#F7FFFF" transform="translate(53.56156390892551 67.9067365986349)  rotate(0 1.2797758800764143 1.1877141692103237)" opacity="0.4" d="M2.54,0.36C2.9,-1.05 -1.49,2.08 0.54,2.36C1.66,2.51 2.28,1.24 2.54,0.36Z " /><path id="路径 690" fill-rule="evenodd" fill="url(#linear_70)" transform="translate(100.99000000000001 57.339999999999975)  rotate(0 9.099999999999994 8.655000000000001)" opacity="0.5" d="M6.29 5.7L9.1 0L11.91 5.7L18.2 6.61L13.65 11.05L14.72 17.31L9.1 14.35L3.48 17.31L4.55 11.05L0 6.61L6.29 5.7Z" /><path id="路径 691" fill-rule="evenodd" fill="url(#linear_71)" transform="translate(101.69999999999999 58.089999999999975)  rotate(0 8.390000000000015 7.980000000000018)" opacity="1" d="M0 6.09L5.8 5.25L8.39 0L10.98 5.25L12.94 5.53L13.77 5.65L16.78 6.09L12.59 10.18L13.58 15.96L8.39 13.23L3.2 15.96L4.19 10.18L0 6.09Z" /><path id="路径 692" fill-rule="evenodd" fill="url(#linear_72)" transform="translate(101.67000000000002 64.18)  rotate(0 4.27000000000001 2.0449999999999875)" opacity="0.5" d="M8.54 2.24L4.19 4.09L0 0L8.54 2.24Z" /><path id="路径 693" fill-rule="evenodd" fill="url(#linear_73)" transform="translate(110.21000000000004 64.18)  rotate(0 4.119999999999976 2.0449999999999875)" opacity="0.5" d="M8.24 0L4.04 4.09L0 2.24L8.24 0Z" /><path id="路径 694" fill-rule="evenodd" fill="url(#linear_74)" transform="translate(104.87 66.42000000000002)  rotate(0 2.670000000000016 3.8149999999999977)" opacity="0.5" d="M5.19 4.9L0 7.63L5.34 0L5.19 4.9Z" /><path id="路径 695" fill-rule="evenodd" fill="url(#linear_75)" transform="translate(110.06 66.42000000000002)  rotate(0 2.594999999999999 3.8149999999999977)" opacity="0.5" d="M5.19 7.63L0 4.9L0.15 0L5.19 7.63Z" /><path id="路径 696" fill-rule="evenodd" fill="url(#linear_76)" transform="translate(110.06 58.089999999999975)  rotate(0 1.295000000000016 4.1650000000000205)" opacity="0.5" d="M0 0L2.59 5.25L0.15 8.33L0 0Z" /><path id="路径 697" fill-rule="evenodd" fill="url(#linear_77)" transform="translate(110.21000000000004 63.339999999999975)  rotate(0 4.119999999999976 1.5400000000000205)" opacity="0.5" d="M0 3.08L2.44 0L8.24 0.84L0 3.08Z" /><path id="路径 698" fill-rule="evenodd" fill="url(#linear_78)" transform="translate(110.21000000000004 63.339999999999975)  rotate(0 4.119999999999976 1.5400000000000205)" opacity="0.5" d="M0 3.08L2.44 0L8.24 0.84L0 3.08Z" /><path id="路径 699" fill-rule="evenodd" fill="url(#linear_79)" transform="translate(101.67000000000002 63.339999999999975)  rotate(0 4.27000000000001 1.5400000000000205)" opacity="0.5" d="M8.54 3.08L0 0.84L5.8 0L8.54 3.08Z" /><path id="路径 700" fill-rule="evenodd" style="fill:#FFFFFF" transform="translate(112.44198918839948 64.8324806367039)  rotate(0 1.184005405800292 0.47875968164805727)" opacity="0.8" d="M0.15,0.96L2.37,0.36C1.73,-0.12 0.85,-0.12 0.21,0.36C-0.22,0.72 0.15,0.96 0.15,0.96Z " /><path id="路径 701" fill-rule="evenodd" fill="url(#linear_80)" transform="translate(104.90000000000003 71.32)  rotate(0 5.189999999999998 1.365000000000009)" opacity="0.5" d="M5.19,0.36L10.38,2.73L5.19,0L0,2.73C0,2.73 3.94,0.87 5.19,0.36Z " /><path id="路径 702" fill-rule="evenodd" fill="url(#linear_81)" transform="translate(101.67000000000002 64.18)  rotate(0 4.27000000000001 3.134999999999991)" opacity="0.5" d="M8.54 2.24L3.85 6.27L0 0L8.54 2.24Z" /><path id="路径 703" fill-rule="evenodd" fill="url(#linear_82)" transform="translate(110.21000000000004 64.18)  rotate(0 4.119999999999976 3.405000000000001)" opacity="0.5" d="M8.24 0L4.54 6.81L0 2.24L8.24 0Z" /><path id="路径 704" fill-rule="evenodd" fill="url(#linear_83)" transform="translate(104.90000000000003 66.42000000000002)  rotate(0 5.189999999999998 3.8149999999999977)" opacity="0.5" d="M10.38 7.63L5.19 6.81L0 7.63L5.31 0L10.38 7.63Z" /><path id="路径 705" fill-rule="evenodd" style="fill:#F7FFFF" transform="translate(108.06859038690936 61.0366857383832)  rotate(0 1.025683909623524 1.8175394203277904)" opacity="0.4" d="M1.92,3.52C2.16,2.37 2.07,1.18 1.67,0.07C1.32,-0.29 0.31,0.76 0.09,1.39C-0.46,2.92 1.64,3.99 1.92,3.52Z " /><path id="路径 706" fill-rule="evenodd" style="fill:#F7FFFF" transform="translate(105.90156390892554 67.9067365986349)  rotate(0 1.2797758800763859 1.1877141692103237)" opacity="0.4" d="M2.54,0.36C2.9,-1.05 -1.49,2.08 0.54,2.36C1.66,2.51 2.28,1.24 2.54,0.36Z " /></g></svg>