<svg xmlns="http://www.w3.org/2000/svg" xmlns:xlink="http://www.w3.org/1999/xlink" width="176" height="176" viewBox="0 0 176 176" fill="none"><defs><filter id="filter_2" x="-60" y="-60" width="174" height="174" filterUnits="userSpaceOnUse" color-interpolation-filters="sRGB"><feFlood flood-opacity="0" result="BackgroundImageFix"/>
          <feColorMatrix in="SourceAlpha" type="matrix" values="0 0 0 0 0 0 0 0 0 0 0 0 0 0 0 0 0 0 127 0"/>
          <feOffset dx="0" dy="20"/>
          <feGaussianBlur stdDeviation="30"/>
          <feColorMatrix type="matrix" values="0 0 0 0 0.21568627450980393 0 0 0 0 0.24313725490196078 0 0 0 0 0.49019607843137253 0 0 0 0.05 0"/>
          <feBlend mode="normal" in2="BackgroundImageFix" result="effect1_Shadow"/>
          <feBlend mode="normal" in="SourceGraphic" in2="effect1_Shadow" result="shape"/></filter></defs><g opacity="1" transform="translate(61 41)  rotate(0 27 27)"><g id="Ellipse 3" filter="url(#filter_2)"><path id="Ellipse 3" fill-rule="evenodd" style="fill:#FFFFFF" transform="translate(0 0)  rotate(0 27 27)" opacity="0.8" d="M0 27C0 12.09 12.09 0 27 0C41.91 0 54 12.09 54 27C54 41.91 41.91 54 27 54C12.09 54 0 41.91 0 27Z" /><path  id="Ellipse 3" style="stroke:#979AB2; stroke-width:2; stroke-opacity:50; stroke-dasharray:0 0" transform="translate(0 0)  rotate(0 27 27)" d="M54,27Z M27,0C12.09,0 0,12.09 0,27C0,41.91 12.09,54 27,54C41.91,54 54,41.91 54,27C54,12.09 41.91,0 27,0Z " /></g><g opacity="1" transform="translate(12 12)  rotate(0 15 15)"><path id="矩形" fill-rule="evenodd" style="fill:#000000" transform="translate(0 0)  rotate(0 15 15)" opacity="0" d="M30 30L0 30L0 0L30 0L30 30Z" /><path id="形状" fill-rule="evenodd" style="fill:#4AD574" transform="translate(2 4)  rotate(0 13 10.5)" opacity="1" d="M18.4899 6.40993C17.6899 2.72993 13.7299 -7.34329e-05 9.19995 -7.34329e-05C4.13995 -7.34329e-05 -5.24521e-05 3.41993 -5.24521e-05 7.75993C-5.24521e-05 10.2699 1.37995 12.3199 3.67995 13.9199L2.75995 16.6699L5.97995 15.0699C7.12995 15.2899 8.04995 15.5199 9.19995 15.5199C9.48995 15.5199 9.77995 15.5099 10.0599 15.4899C9.87995 14.8799 9.77995 14.2399 9.77995 13.5799C9.77995 9.58993 13.2299 6.34993 17.5999 6.34993C17.8999 6.34993 18.1899 6.37993 18.4899 6.40993Z M11.2717 5.01939C11.2717 5.69939 11.9617 6.15939 12.6517 6.15939C13.3417 6.15939 13.8017 5.69939 13.8017 5.01939C13.8017 4.32939 13.3417 3.87939 12.6517 3.87939C11.9617 3.87939 11.2717 4.32939 11.2717 5.01939Z M7.35701 5.01939C7.35701 4.32939 6.90701 3.87939 6.21701 3.87939C5.52701 3.87939 4.82701 4.32939 4.82701 5.01939C4.82701 5.69939 5.52701 6.15939 6.21701 6.15939C6.90701 6.15939 7.35701 5.69939 7.35701 5.01939Z M18.187 6.84379C13.807 6.84379 10.357 9.81379 10.357 13.4638C10.357 17.1238 13.807 20.0838 18.187 20.0838C19.097 20.0838 20.027 19.8538 20.947 19.6338L23.467 21.0038L22.777 18.7238C24.627 17.3438 25.997 15.5238 25.997 13.4638C25.997 9.81379 22.317 6.84379 18.187 6.84379Z M16.7955 11.4086C16.7955 10.9586 16.3455 10.4986 15.6455 10.4986C15.1855 10.4986 14.7255 10.9586 14.7255 11.4086C14.7255 11.8686 15.1855 12.3286 15.6455 12.3286C16.3455 12.3286 16.7955 11.8686 16.7955 11.4086Z M21.8632 11.4086C21.8632 10.9586 21.3932 10.4986 20.7032 10.4986C20.2532 10.4986 19.7932 10.9586 19.7932 11.4086C19.7932 11.8686 20.2532 12.3286 20.7032 12.3286C21.3932 12.3286 21.8632 11.8686 21.8632 11.4086Z " /></g></g></svg>