<svg xmlns="http://www.w3.org/2000/svg" xmlns:xlink="http://www.w3.org/1999/xlink" width="82" height="83" viewBox="0 0 82 83" fill="none"><defs><linearGradient id="linear_0" x1="50%" y1="-3.0616171314629196e-15%" x2="51%" y2="99.99999999999999%" gradientUnits="objectBoundingBox"><stop offset="0" stop-color="#FED3B6" stop-opacity="0" /><stop offset="1" stop-color="#FFA66A" stop-opacity="0.38" /></linearGradient><filter id="filter_5" x="0" y="0" width="69" height="142" filterUnits="userSpaceOnUse" color-interpolation-filters="sRGB"><feFlood flood-opacity="0" result="BackgroundImageFix"/>
          <feBlend mode="normal" in="SourceGraphic" in2="BackgroundImageFix" result="shape"/>
          <feGaussianBlur stdDeviation="3.5" result="effect1_foregroundBlur" /></filter><rect id="path_0" x="0" y="0" width="59" height="59" /></defs><g opacity="1" transform="translate(0 0)  rotate(0 41 41.14)"><path id="Ellipse 189" fill-rule="evenodd" fill="url(#linear_0)" transform="translate(0 0)  rotate(0 41 41)" opacity="1" d="M41,0C18.36,0 0,18.36 0,41C0,63.64 18.36,82 41,82C63.64,82 82,63.64 82,41C82,18.36 63.64,0 41,0Z " /><g id="Ellipse 190" filter="url(#filter_5)"><path id="Ellipse 190" fill-rule="evenodd" style="fill:#EC853F" transform="translate(26 68)  rotate(0 8.5 3)" opacity="0.6" d="M8.5,0C3.81,0 0,1.34 0,3C0,4.66 3.81,6 8.5,6C13.19,6 17,4.66 17,3C17,1.34 13.19,0 8.5,0Z " /></g><g opacity="1" transform="translate(11.14 13.14)  rotate(26.83 29.5 29.5)"><mask id="bg-mask-0" fill="white"><use xlink:href="#path_0"></use></mask><g mask="url(#bg-mask-0)" ><path id="Vector" fill-rule="evenodd" style="fill:#FF9248" transform="translate(11.06 15.77)  rotate(0 18.435 17.925)" opacity="1" d="M36.87,30.94L36.87,0.01C35.25,3.56 32.62,6.56 29.36,8.66C29.42,9.12 29.5,9.57 29.5,10.04C29.5,16.15 24.55,21.11 18.44,21.11C12.33,21.11 7.38,16.15 7.38,10.04C7.38,9.57 7.46,9.12 7.51,8.66C4.25,6.56 1.62,3.56 0,0L0,30.94C0,33.65 2.2,35.85 4.91,35.85L31.96,35.85C34.67,35.85 36.87,33.65 36.87,30.94Z " /><path id="Vector" fill-rule="evenodd" style="fill:#FF9248" transform="translate(13.02 7.38)  rotate(0 16.485 6.66)" opacity="1" d="M16.49,7.38C20.74,7.38 24.38,9.8 26.23,13.32C30.04,10.5 32.64,6.12 32.97,1.1C32.14,0.45 31.14,0 30.01,0L2.96,0C1.83,0 0.83,0.45 0,1.1C0.33,6.12 2.93,10.5 6.74,13.32C8.59,9.8 12.23,7.38 16.49,7.38Z " /><path id="Vector" fill-rule="evenodd" style="fill:#FF9248" transform="translate(22.76 18.63)  rotate(0 6.745 7.735)" opacity="1" d="M13.49,6.81C13.49,6.23 13.07,5.81 12.49,5.81L8.52,5.81L12.49,1.84C12.89,1.44 12.89,0.83 12.49,0.43C12.1,0.03 11.48,0.03 11.08,0.43L6.75,4.76L2.41,0.3C2.01,-0.1 1.39,-0.1 1,0.3C0.8,0.49 0.7,0.75 0.7,1.01C0.7,1.27 0.81,1.52 1,1.7L4.98,5.8L1,5.8C0.42,5.8 0,6.23 0,6.81C0,7.39 0.42,7.81 1,7.81L5.74,7.81L5.74,9.63L1,9.63C0.42,9.63 0,10.06 0,10.64C0,11.22 0.42,11.64 1,11.64L5.74,11.64L5.74,14.47C5.74,15.05 6.16,15.47 6.75,15.47C7.33,15.47 7.75,15.05 7.75,14.47L7.75,11.64L12.49,11.64C13.07,11.64 13.49,11.22 13.49,10.64C13.49,10.06 13.07,9.63 12.49,9.63L7.75,9.63L7.75,7.81L12.49,7.81C13.07,7.81 13.49,7.39 13.49,6.81Z " /></g></g></g></svg>