<?xml version="1.0" standalone="no"?><!DOCTYPE svg PUBLIC "-//W3C//DTD SVG 1.1//EN" "http://www.w3.org/Graphics/SVG/1.1/DTD/svg11.dtd"><svg t="1697017974305" class="icon" viewBox="0 0 1870 1024" version="1.1" xmlns="http://www.w3.org/2000/svg" p-id="8739" xmlns:xlink="http://www.w3.org/1999/xlink" width="365.234375" height="200"><path d="M203.515511 391.492851c0-17.402752-14.087942-31.490693-31.490693-31.490693L153.862422 360.002158 153.862422 312.835177l120.092797 0c31.490693 0 57.111411 24.861074 57.111411 55.523064l0 451.435662c0 17.402752 14.087942 31.421635 32.319396 31.421635l17.402752 0 0 47.23604L259.867278 898.451578c-31.490693 0-56.282708-24.032371-56.282708-54.625303L203.58457 391.492851zM188.598867 266.427839 162.149447 117.399514l134.180739 0 24.861074 149.097383L188.598867 266.496898zM603.571621 896.725115 603.571621 595.284597 389.904505 595.284597 389.904505 548.048557 603.571621 548.048557 603.571621 172.024818 402.335042 172.024818 402.335042 123.960076l530.093337 0 0 48.064742-203.791745 0 0 376.023739 212.009711 0L940.646345 595.284597l-212.009711 0 0 301.509576L603.571621 896.794173zM449.502023 490.868087c-20.717561-80.31508-35.634206-175.546803-42.263825-265.875371l115.949285 0c6.62962 86.944699 20.717561 176.444564 42.263825 265.875371L449.502023 490.868087zM766.756946 490.868087c21.546264-89.430807 35.634206-178.861613 42.263825-265.875371l115.120583 0c-5.800917 90.259509-20.717561 185.560291-42.194767 265.875371L766.756946 490.868087z" p-id="8740" fill="#494f55"></path><path d="M1033.046668 386.520637c0-16.574049-14.916644-31.490693-32.319396-31.490693l-18.231454 0L982.495819 307.862962l121.750202 0c31.490693 0 57.180469 24.861074 57.180469 55.523064l0 455.579175c0 17.333693 14.916644 32.250337 32.250337 32.250337l17.402752 0 0 47.23604-121.750202 0c-31.490693 0-56.351767-24.032371-56.351767-55.454006L1032.97761 386.520637zM1017.301322 260.626922l-26.518479-149.926086 135.838144 0 25.689776 149.926086L1017.301322 260.626922zM1204.519018 413.867818c83.629889-93.574319 149.097383-197.093067 208.694902-303.166981l145.782574 0c60.426221 106.004856 125.893715 209.523604 209.523604 303.166981l-145.782574 0c-38.949015-44.680874-106.004856-135.009442-135.838144-185.560291-29.004586 52.139196-96.129485 140.810359-135.009442 185.560291L1204.519018 413.867818zM1768.520097 895.965471l-426.574589 0c-36.462908 0-65.398435-24.861074-65.398435-54.694362L1276.547073 447.015916l125.893715 0 0 370.222822c0 17.402752 17.402752 31.490693 38.120313 31.490693l328.028055 0L1768.589156 895.965471zM1735.371999 485.06717c-28.935527 86.944699-92.745616 189.703804-153.240896 240.254653l-131.694632 0c82.041543-72.925816 141.639061-159.041813 173.060696-240.254653L1735.371999 485.06717z" p-id="8741" fill="#494f55"></path></svg>